<svg xmlns="http://www.w3.org/2000/svg" width="226.879" height="118.749" viewBox="0 0 226.879 118.749">
  <g id="Group_1" data-name="Group 1" transform="translate(235.966 56.967) rotate(121)">
    <path id="Path_144" data-name="Path 144" d="M93.336,834.673c.136.216.2.536.348.761a9.571,9.571,0,0,1,.754,2.348,31.186,31.186,0,0,0,1.9,3.668,19.275,19.275,0,0,0,1.466,3,8.356,8.356,0,0,1,.962,1.857,7.746,7.746,0,0,0,.892,1.732A15.093,15.093,0,0,1,101.8,852.7a23.879,23.879,0,0,0,1.423,2.891c.753,1.883,1.449,3.853,2.382,5.72a14.483,14.483,0,0,1,1.584,3.677,3.84,3.84,0,0,0,.582,1.33,1.506,1.506,0,0,0,.565.56.311.311,0,0,1-.239.574,2.136,2.136,0,0,1-.84-.785,4.526,4.526,0,0,1-.681-1.577,13.836,13.836,0,0,0-1.527-3.5c-.941-1.883-1.644-3.868-2.4-5.767a24.508,24.508,0,0,1-1.449-2.972,14.366,14.366,0,0,0-2.041-4.436,8.376,8.376,0,0,1-.969-1.867,7.729,7.729,0,0,0-.885-1.722,19.9,19.9,0,0,1-1.525-3.1,31.847,31.847,0,0,1-1.931-3.75c-.125-.374-.2-.788-.295-1.193a3.088,3.088,0,0,0-.387-1.006,2.3,2.3,0,0,1-.215-.457,1.644,1.644,0,0,0-.144-.321,1.632,1.632,0,0,1-.084-.2.337.337,0,0,1,.135-.545.3.3,0,0,1,.268.038.333.333,0,0,1,.106.115C93.256,834.454,93.325,834.642,93.336,834.673Zm-.079-.072v-.012S93.258,834.6,93.258,834.6Z" transform="translate(-8.203 -653.084)" fill="#09450b" fill-rule="evenodd"/>
    <path id="Path_145" data-name="Path 145" d="M95.738,960.76a.307.307,0,0,1,.13-.126.311.311,0,0,1,.356.052,3.489,3.489,0,0,1,.386.447,1.161,1.161,0,0,1,.179.361,1.882,1.882,0,0,0,.127.339,3.106,3.106,0,0,1,.471.736.617.617,0,0,1,.03.14c.068.115.132.228.186.336.043.087.1.208.146.327l.011.008a.32.32,0,0,1,.118.267l0,.04.04.1a.311.311,0,0,1-.066.325,2.314,2.314,0,0,1-.041.359.36.36,0,0,1-.052.1.344.344,0,0,1-.091.146.442.442,0,0,1-.4.1,4.872,4.872,0,0,1-.912-.4,13.756,13.756,0,0,1-3.012-2.631,4.1,4.1,0,0,1-.812-1.068.655.655,0,0,1,.094-.747,1.3,1.3,0,0,1,1.356-.209A6.268,6.268,0,0,1,95.738,960.76Zm-2.661-.364a.508.508,0,0,1,.386-.1,2.1,2.1,0,0,1,.72.218,8.333,8.333,0,0,1,1.793,1.243c.071.132.151.266.233.4.012.041.027.086.045.134.093.254.256.619.316.74a8.033,8.033,0,0,1,.292.755.311.311,0,0,0-.273.064,13.441,13.441,0,0,1-2.811-2.494,4.094,4.094,0,0,1-.612-.735.916.916,0,0,1-.072-.148A.459.459,0,0,1,93.076,960.4Z" transform="translate(2.434 -749.852)" fill="#09450b" fill-rule="evenodd"/>
    <path id="Path_146" data-name="Path 146" d="M120.965,859.712c-.131-.2-.488-.618-.548-.693a11.6,11.6,0,0,1-1.232-2.029c-1.049-2.1-2.249-4.189-3.178-6.358-1.06-2.474-2.41-4.859-3.413-7.365-1.079-2.7-1.94-5.493-3.22-8.053a27.135,27.135,0,0,0-1.357-2.958,9.962,9.962,0,0,1-.742-1.306,2.568,2.568,0,0,1-.268-.96.311.311,0,0,1,.622,0,1.934,1.934,0,0,0,.212.7,9.256,9.256,0,0,0,.693,1.218,27.772,27.772,0,0,1,1.4,3.025c1.287,2.575,2.155,5.386,3.241,8.1,1,2.5,2.349,4.882,3.407,7.351.925,2.158,2.12,4.239,3.163,6.325a10.937,10.937,0,0,0,1.161,1.919c.061.076.409.49.563.712a.836.836,0,0,1,.113.213.311.311,0,0,1-.059.3.3.3,0,0,1-.276.115A.311.311,0,0,1,120.965,859.712Zm.254-.36-.008,0h.008Zm0,0a.3.3,0,0,1,.077,0A.307.307,0,0,0,121.221,859.352Z" transform="translate(-24.55 -649.561)" fill="#09450b" fill-rule="evenodd"/>
    <path id="Path_147" data-name="Path 147" d="M127.86,859.134c-.066-.16-.285-.686-.306-.747-.2-.592-.441-1.222-.6-1.877a23.789,23.789,0,0,0-2.25-5.32c-.735-1.471-2.215-3.191-3.159-4.765-1.959-3.265-2.91-7.015-4.618-10.43a27.2,27.2,0,0,1-1.938-5.388c-.156-.625-.449-1.165-.651-1.772-.038-.114-.127-.4-.2-.571a.31.31,0,0,1-.12-.245.316.316,0,0,1,.252-.343.309.309,0,0,1,.332.129,6.6,6.6,0,0,1,.32.834c.207.622.5,1.177.665,1.818a26.556,26.556,0,0,0,1.891,5.261c1.7,3.4,2.644,7.137,4.6,10.388.952,1.587,2.441,3.324,3.182,4.807a24.355,24.355,0,0,1,2.3,5.448c.16.64.4,1.253.592,1.832.022.066.235.52.311.749a.641.641,0,0,1,.039.266.32.32,0,0,1-.635-.071Zm.223-.266a.272.272,0,0,1,.224.02A.31.31,0,0,0,128.083,858.869Z" transform="translate(-33.055 -648.009)" fill="#09450b" fill-rule="evenodd"/>
    <path id="Path_148" data-name="Path 148" d="M180.369,773.762c-.9-1.792-1.339-3.935-2.251-5.759a50.272,50.272,0,0,1-2.649-6.442c-.278-.833-.844-1.872-1.251-2.874a5.648,5.648,0,0,1-.5-2.01.311.311,0,1,1,.622,0,5.021,5.021,0,0,0,.454,1.776c.413,1.015.984,2.068,1.265,2.912a49.641,49.641,0,0,0,2.615,6.36c.912,1.824,1.35,3.966,2.251,5.758a.311.311,0,1,1-.556.279Z" transform="translate(-99.155 -592.999)" fill="#09450b" fill-rule="evenodd"/>
    <path id="Path_149" data-name="Path 149" d="M167.628,729.741c.052.116.2.453.225.527.2.589.429,1.1.652,1.658a32.4,32.4,0,0,1,1.811,5.2,51.335,51.335,0,0,0,4.161,11.289c.657,1.314,1.929,3.013,2.257,4.393a.311.311,0,1,1-.605.143c-.318-1.34-1.57-2.983-2.208-4.259a52.043,52.043,0,0,1-4.215-11.445,31.706,31.706,0,0,0-1.779-5.09c-.227-.569-.464-1.092-.664-1.692-.029-.085-.186-.391-.239-.555a.521.521,0,0,1-.026-.245.326.326,0,0,1,.321-.267.31.31,0,0,1,.309.344Zm-.165.243a.283.283,0,0,1-.127.035A.311.311,0,0,0,167.463,729.983Z" transform="translate(-93.404 -572.192)" fill="#09450b" fill-rule="evenodd"/>
    <path id="Path_150" data-name="Path 150" d="M159.634,671.726a6.187,6.187,0,0,0,.215.9,22.508,22.508,0,0,1,.551,2.852c.7,2.805,1.641,5.637,2.566,8.412,1.065,3.193,1.9,6.65,3.221,9.727,1.168,2.725,2.425,5.478,3.359,8.28a41.359,41.359,0,0,0,2.256,5.284c.145.289.508.811.684,1.237a1.163,1.163,0,0,1,.106.645.311.311,0,1,1-.608-.128.312.312,0,0,0-.022-.138,1.933,1.933,0,0,0-.126-.306c-.187-.376-.468-.788-.59-1.031a41.968,41.968,0,0,1-2.29-5.365c-.929-2.786-2.18-5.523-3.341-8.232-1.325-3.093-2.17-6.566-3.24-9.776-.93-2.79-1.874-5.638-2.579-8.458a21.914,21.914,0,0,0-.526-2.772,7.286,7.286,0,0,1-.273-1.188.822.822,0,0,1,.005-.28.3.3,0,0,1,.3-.242.391.391,0,0,1,.358.26A.311.311,0,0,1,159.634,671.726Z" transform="translate(-87.439 -527.251)" fill="#09450b" fill-rule="evenodd"/>
    <path id="Path_151" data-name="Path 151" d="M205.967,590.271a5.36,5.36,0,0,1,.83.56,25.216,25.216,0,0,1,1.781,2.1,39.071,39.071,0,0,1,4.509,6.765,169.081,169.081,0,0,1,7.469,16.007c.623,1.662,1.254,3.348,1.915,5a20.515,20.515,0,0,1,.99,2.217.311.311,0,0,1-.612.11,19.723,19.723,0,0,0-.956-2.1c-.662-1.656-1.295-3.346-1.92-5.013a168.481,168.481,0,0,0-7.443-15.947,38.443,38.443,0,0,0-4.438-6.655,24.594,24.594,0,0,0-1.735-2.052,4.732,4.732,0,0,0-.737-.482.372.372,0,0,1-.1-.075.311.311,0,0,1,.209-.516.315.315,0,0,1,.185.042A.32.32,0,0,1,205.967,590.271Z" transform="translate(-148.912 -464.797)" fill="#09450b" fill-rule="evenodd"/>
    <path id="Path_152" data-name="Path 152" d="M241.875,609.043l-.311.32h-.015a.31.31,0,0,1-.229-.118.277.277,0,0,1-.064-.148v0s-.005-.041-.015-.1a.31.31,0,0,1-.038-.2,1.164,1.164,0,0,0-.077-.242,11.042,11.042,0,0,1-.5-1.425c-.464-1.393-1.295-2.623-1.858-4.03a14.9,14.9,0,0,0-2.657-4.051,30.723,30.723,0,0,1-3.073-3.946,8.148,8.148,0,0,0-2.87-2.923.311.311,0,1,1,.236-.575,8.918,8.918,0,0,1,3.167,3.178,30.143,30.143,0,0,0,3.014,3.864,15.508,15.508,0,0,1,2.76,4.222c.568,1.419,1.4,2.66,1.87,4.065a10.4,10.4,0,0,0,.462,1.344,2.372,2.372,0,0,1,.149.51c0,.013.009.027.013.04A1.163,1.163,0,0,1,241.875,609.043Z" transform="translate(-172.928 -465.862)" fill="#09450b" fill-rule="evenodd"/>
    <path id="Path_153" data-name="Path 153" d="M200.852,595.208a2.779,2.779,0,0,1,.724.712c.287.384.543.832.815,1.159,1.145,1.374,2.265,2.7,3.316,4.172A61.377,61.377,0,0,1,213.9,617.1a21.774,21.774,0,0,0,1.356,3.932,6.6,6.6,0,0,1,.786,1.919c.473,2.84,1.982,5.634,2.658,8.337.093.371.255,1.1.466,1.723a2.447,2.447,0,0,0,.411.849.311.311,0,0,1-.44.44,2.381,2.381,0,0,1-.444-.771,17.622,17.622,0,0,1-.6-2.09c-.68-2.718-2.192-5.53-2.668-8.385a5.859,5.859,0,0,0-.706-1.7,22.442,22.442,0,0,1-1.413-4.056,60.739,60.739,0,0,0-8.106-15.681c-1.042-1.459-2.153-2.774-3.288-4.136-.234-.281-.459-.649-.7-.994a2.6,2.6,0,0,0-.688-.745.311.311,0,0,1,.326-.529Z" transform="translate(-143.953 -468.628)" fill="#09450b" fill-rule="evenodd"/>
    <path id="Path_154" data-name="Path 154" d="M207.157,629.868c-.2.338-.588,1.216-.739,1.442a12.8,12.8,0,0,0-1.555,3.9c-1.009,4.034.249,8.2,1.225,12.1a29.784,29.784,0,0,0,1.425,3.794c.135.336.376.763.547,1.178a2.5,2.5,0,0,1,.221.907.317.317,0,0,1-.552.231.458.458,0,0,1-.079-.133,1.913,1.913,0,0,1-.1-.408.308.308,0,0,1,.021-.138c-.025-.073-.053-.147-.084-.222-.172-.418-.414-.846-.549-1.185a30.362,30.362,0,0,1-1.451-3.874c-1-4-2.258-8.266-1.225-12.4a13.452,13.452,0,0,1,1.641-4.091c.145-.218.515-1.046.712-1.4a.762.762,0,0,1,.242-.283.3.3,0,0,1,.353.041.326.326,0,0,1,.116.266A.31.31,0,0,1,207.157,629.868Zm-.456-.257v0Z" transform="translate(-133.369 -494.925)" fill="#09450b" fill-rule="evenodd"/>
    <path id="Path_155" data-name="Path 155" d="M215.855,648.668c-.075.26-.3,1.037-.349,1.246a4.67,4.67,0,0,0-.045,1.626,17.265,17.265,0,0,1,.161,1.76,3.1,3.1,0,0,0,.114.77,1.335,1.335,0,0,0,.081.186.311.311,0,0,1-.2.586.674.674,0,0,1-.415-.422,3.565,3.565,0,0,1-.2-1.12,16.62,16.62,0,0,0-.157-1.694,5.288,5.288,0,0,1,.06-1.842c.068-.273.319-1.234.411-1.438a.355.355,0,0,1,.212-.2.288.288,0,0,1,.353.117.35.35,0,0,1,.063.216A.31.31,0,0,1,215.855,648.668Zm-.535-.2s0-.008,0-.011Z" transform="translate(-143.586 -509.471)" fill="#09450b" fill-rule="evenodd"/>
    <path id="Path_156" data-name="Path 156" d="M194.887,592.846a.314.314,0,0,1-.3.389.305.305,0,0,1-.194-.058.319.319,0,0,1-.136-.245,3.2,3.2,0,0,1,.079-.6,6.16,6.16,0,0,1,.256-.966,21.342,21.342,0,0,0,.942-2.622c.733-2.2,1.547-4.381,2.124-6.687.161-.644.56-1.149.689-1.8a13.445,13.445,0,0,1,.613-2.847.9.9,0,0,0,.019-.406,1.136,1.136,0,0,1,.066-.451l-.005-.221a.314.314,0,0,1-.006-.061.293.293,0,0,1,.153-.284.3.3,0,0,1,.205-.04.3.3,0,0,1,.19.105.3.3,0,0,1,.074.173,2.845,2.845,0,0,1,.008.393.472.472,0,0,1-.042.165.307.307,0,0,0-.022.13c0,.088,0,.18.006.271a1.076,1.076,0,0,1-.09.5,12.715,12.715,0,0,0-.559,2.691c-.131.657-.532,1.172-.7,1.825-.581,2.322-1.4,4.518-2.137,6.733a22.048,22.048,0,0,1-.975,2.7,5.541,5.541,0,0,0-.2.809C194.922,592.6,194.9,592.77,194.887,592.846Zm-.125-.18a.3.3,0,0,1,.066.061l.005.007A.25.25,0,0,0,194.762,592.666Zm-.215-.052a.307.307,0,0,0-.143.056A.282.282,0,0,1,194.548,592.614Z" transform="translate(-122.564 -453.805)" fill="#09450b" fill-rule="evenodd"/>
    <path id="Path_157" data-name="Path 157" d="M204.379,570.02a1.371,1.371,0,0,0,.014.153c.039.218.123.469.147.591a7.581,7.581,0,0,1-.107,2.572,37.888,37.888,0,0,1-2.359,6.658c-.275.688-.424,1.49-.756,2.154a25.116,25.116,0,0,0-1.84,4.783,8.287,8.287,0,0,1-.609,1.5c-.032.063-.184.407-.235.521a.294.294,0,0,1,0,.032.311.311,0,0,1-.311.311.317.317,0,0,1-.2-.069.322.322,0,0,1-.121-.212.559.559,0,0,1,.031-.241,6.109,6.109,0,0,1,.28-.62,7.6,7.6,0,0,0,.562-1.374,25.793,25.793,0,0,1,1.888-4.91c.325-.649.466-1.435.735-2.107a37.3,37.3,0,0,0,2.327-6.549,6.864,6.864,0,0,0,.106-2.328,7.136,7.136,0,0,1-.168-.733.687.687,0,0,1,.081-.445.311.311,0,0,1,.535.313Zm-6.038,18.654a.277.277,0,0,1,.148.047A.307.307,0,0,0,198.34,588.675Z" transform="translate(-128.356 -448.885)" fill="#09450b" fill-rule="evenodd"/>
    <path id="Path_158" data-name="Path 158" d="M224.907,531.789l-.024-.144a.307.307,0,0,1-.03-.133.313.313,0,0,1,.05-.186.289.289,0,0,1,.311-.142.3.3,0,0,1,.239.185,2.634,2.634,0,0,1,.074.409,3.409,3.409,0,0,0,.154.631c.142.71.166,1.478.269,2.2a63.194,63.194,0,0,0,1.219,6.412c.984,3.935,1.7,8.32,3.339,12.149.613,1.431,1.024,2.987,1.6,4.427.113.282.337.627.5.953a1.78,1.78,0,0,1,.218.75.311.311,0,1,1-.622-.007,1.159,1.159,0,0,0-.154-.469c-.166-.339-.4-.7-.515-1-.574-1.436-.983-2.987-1.595-4.413-1.654-3.859-2.379-8.277-3.371-12.243a63.764,63.764,0,0,1-1.231-6.475c-.1-.712-.124-1.467-.263-2.167A4.271,4.271,0,0,1,224.907,531.789Zm.567-.244a.266.266,0,0,1-.012.058A.29.29,0,0,0,225.474,531.545Zm0-.009v0Z" transform="translate(-162.706 -419.265)" fill="#09450b" fill-rule="evenodd"/>
    <path id="Path_159" data-name="Path 159" d="M231.152,555.715c-.025-.045-.046-.081-.055-.095a11.167,11.167,0,0,1-.669-1.761,27.138,27.138,0,0,1-1.667-4.635c-.341-1.7-1.363-3.3-1.7-5.006-.652-3.262-1.74-6.5-2.292-9.809a21.7,21.7,0,0,0-.728-4.036,11.391,11.391,0,0,1-.332-1.478c-.012-.048-.031-.291-.044-.449a.309.309,0,0,1-.019-.105.343.343,0,0,1,.179-.341.293.293,0,0,1,.3.017.29.29,0,0,1,.138.192c.009.038.033.473.049.535a10.709,10.709,0,0,0,.307,1.4,22.389,22.389,0,0,1,.764,4.165c.551,3.3,1.637,6.534,2.288,9.789.341,1.706,1.363,3.3,1.7,5.006a26.505,26.505,0,0,0,1.635,4.526,10.46,10.46,0,0,0,.609,1.647,2.99,2.99,0,0,1,.312.6.383.383,0,0,1-.085.378.328.328,0,0,1-.232.1.341.341,0,0,1-.206-.063.511.511,0,0,1-.149-.18,1.045,1.045,0,0,1-.1-.359A.334.334,0,0,1,231.152,555.715Z" transform="translate(-161.549 -416.785)" fill="#09450b" fill-rule="evenodd"/>
    <path id="Path_160" data-name="Path 160" d="M238.164,555.306a.941.941,0,0,0,0-.1,2.28,2.28,0,0,0-.05-.306,16.973,16.973,0,0,0-.523-1.661c-.737-2.211-1.439-4.425-2.081-6.67-1.355-4.742-3.035-9.522-4-14.35-.224-1.12-.826-2.185-1.014-3.312a40.079,40.079,0,0,1-.75-6.175.311.311,0,1,1,.622,0,39.438,39.438,0,0,0,.741,6.073c.187,1.12.787,2.179,1.01,3.292.962,4.812,2.638,9.576,3.988,14.3.639,2.236,1.339,4.442,2.073,6.644a17.7,17.7,0,0,1,.541,1.724,1.52,1.52,0,0,1,.022.768.311.311,0,0,1-.58-.225Z" transform="translate(-169.782 -412.503)" fill="#09450b" fill-rule="evenodd"/>
    <path id="Path_161" data-name="Path 161" d="M43.131,470.212a.311.311,0,0,1-.608-.093.45.45,0,0,1,.1-.28,1.054,1.054,0,0,1,.425-.285c.454-.188,1.242-.319,1.453-.425a11.942,11.942,0,0,0,2.819-2.185c2.517-2.517,4.58-4.979,5.67-8.25a12.626,12.626,0,0,1,1.425-2.686,12.031,12.031,0,0,0,1.366-2.567c.711-2.135,1.539-4.238,2.185-6.5.231-.807.157-1.666.322-2.493a8.572,8.572,0,0,0-.219-3c-.016-.077-.239-.933-.319-1.239a.311.311,0,0,1-.127-.323.34.34,0,0,1,.216-.269.348.348,0,0,1,.438.2,11.718,11.718,0,0,1,.4,1.507,9.261,9.261,0,0,1,.219,3.241c-.169.843-.1,1.718-.334,2.541-.648,2.27-1.478,4.381-2.193,6.524a12.654,12.654,0,0,1-1.431,2.7,12,12,0,0,0-1.359,2.549c-1.121,3.364-3.231,5.9-5.82,8.493a12.593,12.593,0,0,1-2.981,2.3c-.19.1-.823.217-1.3.373A2.627,2.627,0,0,0,43.131,470.212Zm15.093-30.162v0l0-.005Zm0-.01,0-.014Z" transform="translate(52.806 -348.612)" fill="#09450b" fill-rule="evenodd"/>
    <path id="Path_162" data-name="Path 162" d="M108.8,572.188a1.257,1.257,0,0,1,.589-.2,4.729,4.729,0,0,1,1.4.065,15.6,15.6,0,0,0,3.426.21c2.3,0,4.838.384,7.124.058,1.146-.164,2.346-.262,3.485-.489a11,11,0,0,0,1.657-.562,5.248,5.248,0,0,1,1.8-.429.311.311,0,1,1,0,.622,4.621,4.621,0,0,0-1.575.389,11.592,11.592,0,0,1-1.757.59c-1.15.23-2.361.33-3.519.5-2.314.331-4.885-.052-7.212-.052a16.28,16.28,0,0,1-3.577-.228,4.022,4.022,0,0,0-1-.067.96.96,0,0,0-.46.09.311.311,0,0,1-.382-.491Z" transform="translate(-31.927 -449.863)" fill="#09450b" fill-rule="evenodd"/>
    <path id="Path_163" data-name="Path 163" d="M110.495,553.214c-.216.1-1.647.738-1.856.807a13.683,13.683,0,0,1-4.257.563,19.118,19.118,0,0,1-3.4.1,19.293,19.293,0,0,0-7.538-.274,12.365,12.365,0,0,0-1.97.914,9.9,9.9,0,0,0-3.616,2.229c-.133.133-1.19,1.161-1.382,1.373a.31.31,0,0,1-.26.141.287.287,0,0,1-.292-.2.351.351,0,0,1,.088-.353c.189-.209,1.271-1.263,1.407-1.4a10.481,10.481,0,0,1,3.825-2.367,12.993,12.993,0,0,1,2.079-.946,19.917,19.917,0,0,1,7.782.273,18.456,18.456,0,0,0,3.276-.115,13.055,13.055,0,0,0,4.06-.531c.235-.078,1.672-.785,1.963-.84a.322.322,0,0,1,.419.289.311.311,0,0,1-.286.334A.277.277,0,0,1,110.495,553.214Zm-24,5.405a.311.311,0,0,0-.277-.17A.281.281,0,0,1,86.494,558.619Zm23.713-5.675a.309.309,0,0,0,.076.167A.281.281,0,0,1,110.206,552.944Z" transform="translate(-8.96 -435.776)" fill="#09450b" fill-rule="evenodd"/>
    <path id="Path_164" data-name="Path 164" d="M85.506,554.054a.31.31,0,0,1-.138.279.48.48,0,0,0-.1.112c-.049.078-.082.128-.082.128a.311.311,0,0,1-.524-.334l0-.006h0s.337-.515.475-.79c.167-.334.3-.761.5-1.133a2.112,2.112,0,0,1,.578-.728c.882-.661,1.633-1.455,2.455-2.155a7.33,7.33,0,0,1,3.019-1.673,48.963,48.963,0,0,1,6-1.21c1.56-.2,3.434.459,4.959.713,1.338.223,2.707.214,4.049.438a4.473,4.473,0,0,0,1.556-.091,6.668,6.668,0,0,1,1.672-.179.311.311,0,0,1-.047.62,6.041,6.041,0,0,0-1.512.171,5.093,5.093,0,0,1-1.771.093c-1.342-.224-2.711-.215-4.049-.438-1.471-.245-3.275-.9-4.78-.71a48.442,48.442,0,0,0-5.927,1.2,6.726,6.726,0,0,0-2.766,1.543c-.831.709-1.593,1.51-2.485,2.18a1.753,1.753,0,0,0-.486.693c-.149.323-.268.668-.408.948C85.646,553.814,85.577,553.934,85.506,554.054Z" transform="translate(-8.049 -431.09)" fill="#09450b" fill-rule="evenodd"/>
    <path id="Path_165" data-name="Path 165" d="M180.925,506.8c.779-2.759,2.544-5.475,3.188-8.693.472-2.359-.484-4.825-1.194-6.954-.619-1.857-.867-3.8-1.477-5.636a.311.311,0,0,1,.59-.2c.61,1.832.858,3.779,1.477,5.636.741,2.225,1.707,4.807,1.214,7.272-.647,3.234-2.416,5.966-3.2,8.74a.311.311,0,1,1-.6-.169Z" transform="translate(-104.699 -383.72)" fill="#09450b" fill-rule="evenodd"/>
    <path id="Path_166" data-name="Path 166" d="M199.887,510.193a65.5,65.5,0,0,0-.217-8.737c-.45-3.152-1.682-6.248-2.134-9.411a23.609,23.609,0,0,1-.66-3.272.311.311,0,0,1,.622,0,23.013,23.013,0,0,0,.653,3.184c.452,3.163,1.684,6.258,2.134,9.411a66.158,66.158,0,0,1,.223,8.818.311.311,0,0,1-.622.007Z" transform="translate(-124.035 -386.307)" fill="#09450b" fill-rule="evenodd"/>
    <path id="Path_167" data-name="Path 167" d="M200.5,448.166c-.122.217-.268.467-.376.629a7.106,7.106,0,0,0-.887,2.146,17.265,17.265,0,0,0,0,7.414c.756,3.778,2.833,7.277,4.777,10.516.911,1.518,1.887,2.9,2.693,4.508a11.161,11.161,0,0,1,.644,1.449,2.414,2.414,0,0,1,.143,1.089.311.311,0,0,1-.614-.1,1.785,1.785,0,0,0-.12-.794,10.485,10.485,0,0,0-.609-1.365c-.8-1.6-1.767-2.962-2.67-4.466-1.979-3.3-4.084-6.866-4.853-10.714a17.9,17.9,0,0,1,0-7.687,7.745,7.745,0,0,1,.973-2.341c.217-.325.587-1.014.587-1.014a.311.311,0,0,1,.585.147v.274A.311.311,0,0,1,200.5,448.166Z" transform="translate(-131.312 -354.529)" fill="#09450b" fill-rule="evenodd"/>
    <path id="Path_168" data-name="Path 168" d="M199.441,442.968a29.38,29.38,0,0,0,.1,9.443,15.212,15.212,0,0,0,1.822,4.442c.763,1.272,1.041,2.956,1.708,4.289.821,1.641,1.965,3.387,2.272,5.231a10.984,10.984,0,0,1,.326,1.24.828.828,0,0,1-.194.673.311.311,0,0,1-.44-.44c.024-.024.017-.064.017-.107a1.14,1.14,0,0,0-.025-.225c-.075-.384-.262-.82-.3-1.039-.3-1.784-1.421-3.467-2.215-5.055-.66-1.319-.93-2.989-1.685-4.247a15.881,15.881,0,0,1-1.9-4.64,30,30,0,0,1-.1-9.646.311.311,0,1,1,.616.081Z" transform="translate(-129.526 -350.937)" fill="#09450b" fill-rule="evenodd"/>
    <path id="Path_169" data-name="Path 169" d="M183.146,411.064a.311.311,0,0,1-.039.139s-.258.462-.377.7l-.766,1.532a7.086,7.086,0,0,1-.4.73.394.394,0,0,1-.085.074q-.055.133-.108.267a9.267,9.267,0,0,0-.37,1.164c-.047.188-.1.572-.1.572a.311.311,0,0,1-.618-.034,5.966,5.966,0,0,1,.125-1.478,9.3,9.3,0,0,1,1.365-2.668c.059-.074.126-.164.2-.263q.309-.55.664-1.083a5.656,5.656,0,0,1,1.936-1.6,9.5,9.5,0,0,0,1.933-1.3c1.048-1.048,1.821-2.237,2.71-3.163a4.774,4.774,0,0,1,3.638-1.688.311.311,0,0,1,0,.622,4.191,4.191,0,0,0-3.19,1.5c-.892.929-1.667,2.121-2.719,3.172a10.12,10.12,0,0,1-2.059,1.394,5.041,5.041,0,0,0-1.732,1.4Z" transform="translate(-112.857 -320.35)" fill="#09450b" fill-rule="evenodd"/>
    <path id="Path_170" data-name="Path 170" d="M204.194,420.85a.308.308,0,0,1-.074-.155.964.964,0,0,1,.025-.328.472.472,0,0,1,.122-.213.35.35,0,0,1,.239-.1.385.385,0,0,1,.292.127.437.437,0,0,1,.1.344,4.107,4.107,0,0,1-.2.757,8.439,8.439,0,0,0-.473,1.953,14.618,14.618,0,0,0,.374,6.163.311.311,0,0,1-.6.171,15.229,15.229,0,0,1-.392-6.422,9.069,9.069,0,0,1,.512-2.1C204.136,421.027,204.164,420.947,204.194,420.85Z" transform="translate(-129.894 -333.531)" fill="#09450b" fill-rule="evenodd"/>
    <path id="Path_171" data-name="Path 171" d="M219.067,435.05a8.939,8.939,0,0,1-.031,2.047c0,2.273-.392,4.45.679,6.591a.311.311,0,1,1-.556.278c-1.117-2.233-.744-4.5-.744-6.869a8.275,8.275,0,0,0,.05-1.895.311.311,0,0,1,.6-.152Z" transform="translate(-148.144 -344.918)" fill="#09450b" fill-rule="evenodd"/>
    <path id="Path_172" data-name="Path 172" d="M179.291,473.434a24.607,24.607,0,0,1,.521-2.967,8.06,8.06,0,0,0,.143-2.934c-.27-1.622-1.443-3.294-2.16-4.727-1.173-2.346-1.237-5.2-1.237-7.8a.311.311,0,1,1,.622,0c0,2.507.04,5.259,1.171,7.521.742,1.484,1.938,3.224,2.217,4.9a8.666,8.666,0,0,1-.146,3.156,23.987,23.987,0,0,0-.511,2.891.311.311,0,0,1-.62-.044Z" transform="translate(-99.505 -360.256)" fill="#09450b" fill-rule="evenodd"/>
    <path id="Path_173" data-name="Path 173" d="M169.755,474.128a4.16,4.16,0,0,0,.114-.479c.223-1.339.456-2.717.713-4,.845-4.228.769-8.679,1.309-13a.311.311,0,1,1,.617.077c-.542,4.336-.468,8.8-1.317,13.045-.256,1.281-.487,2.652-.709,3.984a6.4,6.4,0,0,1-.521,1.565,1.426,1.426,0,0,0-.078.384.311.311,0,0,1-.62-.029,4.713,4.713,0,0,1,.088-.89,1.456,1.456,0,0,1,.216-.534A.309.309,0,0,1,169.755,474.128Z" transform="translate(-89.692 -361.55)" fill="#09450b" fill-rule="evenodd"/>
    <path id="Path_174" data-name="Path 174" d="M156.62,462.221a1.717,1.717,0,0,1,.041-.939c.069-.249.169-.494.215-.724.157-.784.227-1.519.383-2.3.756-3.78,1.191-7.956,3.438-11.328a.311.311,0,1,1,.517.345c-2.2,3.3-2.605,7.4-3.346,11.105-.156.779-.226,1.514-.383,2.3-.049.244-.152.5-.226.769a1.1,1.1,0,0,0-.042.6.311.311,0,1,1-.6.17Z" transform="translate(-75.548 -354.16)" fill="#09450b" fill-rule="evenodd"/>
    <path id="Path_175" data-name="Path 175" d="M166.062,504.926c.009-.034.019-.065.028-.093.151-.453.2-.921.389-1.385a14.406,14.406,0,0,1,2.015-3.854.311.311,0,1,1,.486.388,13.8,13.8,0,0,0-1.924,3.7c-.181.452-.23.91-.377,1.351a6.711,6.711,0,0,0-.153.669.311.311,0,0,1-.615-.085s.036-.365.076-.544A.309.309,0,0,1,166.062,504.926Z" transform="translate(-85.464 -394.806)" fill="#09450b" fill-rule="evenodd"/>
    <path id="Path_176" data-name="Path 176" d="M76.455,438.816c-.106.127-.235.31-.339.44a1.181,1.181,0,0,1-.216.22,4.736,4.736,0,0,0-.946.929,6.731,6.731,0,0,1-1.064,1.085A65.062,65.062,0,0,1,67.346,446c-2.8,1.6-5.913,2.3-8.77,3.729-2.749,1.375-5.318,3.159-7.967,4.749a8.876,8.876,0,0,0-2.418,2.2,7.846,7.846,0,0,1-1.29,1.71.311.311,0,0,1-.351-.513,2.122,2.122,0,0,0,.432-.484c.258-.358.511-.787.692-1.059a9.624,9.624,0,0,1,2.616-2.392c2.663-1.6,5.246-3.39,8.009-4.772,2.847-1.423,5.953-2.12,8.739-3.712a64.48,64.48,0,0,0,6.479-4.466,6.1,6.1,0,0,0,.962-.989,5.4,5.4,0,0,1,1.067-1.039c.015-.019.215-.268.335-.423a1.6,1.6,0,0,1,.35-.36.327.327,0,0,1,.388.025.356.356,0,0,1,.132.3A.311.311,0,0,1,76.455,438.816Z" transform="translate(34.139 -347.476)" fill="#09450b" fill-rule="evenodd"/>
    <path id="Path_177" data-name="Path 177" d="M80.46,493.991a.3.3,0,0,1-.08.042c-.15.079-.313.166-.424.233a3.452,3.452,0,0,1-1.089.357,2.416,2.416,0,0,0-.868.292c-1.412.941-4.041,1.318-5.715,1.527a74.284,74.284,0,0,1-7.79.255,20.792,20.792,0,0,0-7.453,1.2,8.615,8.615,0,0,0-3.179,1.737c-.17.169-.408.313-.605.483a.522.522,0,0,0-.234.391.311.311,0,1,1-.622,0,1.114,1.114,0,0,1,.45-.862c.186-.16.412-.292.571-.452a9.209,9.209,0,0,1,3.387-1.874,21.41,21.41,0,0,1,7.672-1.247,73.643,73.643,0,0,0,7.725-.25c1.594-.2,4.1-.531,5.447-1.428a3.039,3.039,0,0,1,1.086-.384,2.834,2.834,0,0,0,.9-.281c.127-.076.319-.179.487-.267a2.152,2.152,0,0,1,.393-.2.311.311,0,0,1,.24.572S80.625,493.905,80.46,493.991Z" transform="translate(28.593 -390.002)" fill="#09450b" fill-rule="evenodd"/>
    <path id="Path_178" data-name="Path 178" d="M60.748,405.872v0a1.252,1.252,0,0,1,.36-.382,2.81,2.81,0,0,0,.61-.5,1.529,1.529,0,0,1,.669-.379,1.851,1.851,0,0,1,1.037.092C67,405.9,70.839,406.441,74.261,408.4a10.7,10.7,0,0,1,2.309,1.582.527.527,0,0,0,.129.073,2.753,2.753,0,0,1,.273.144.5.5,0,0,1,.24.339.311.311,0,0,1-.586.181c-.044-.024-.156-.083-.225-.118a1.077,1.077,0,0,1-.271-.179,10.077,10.077,0,0,0-2.178-1.482C70.567,407,66.77,406.476,63.229,405.3a1.33,1.33,0,0,0-.664-.084,1.171,1.171,0,0,0-.578.381,2.536,2.536,0,0,1-.582.443c-.017.021-.135.173-.21.285a2.39,2.39,0,0,1-.4.5.43.43,0,0,1-.281.094.365.365,0,0,1-.249-.111.579.579,0,0,1-.153-.387,2.69,2.69,0,0,1,.016-.34.623.623,0,0,0,0-.183c-.073-.294-.119-.625-.206-.942a1.561,1.561,0,0,0-.369-.719,1.669,1.669,0,0,0-1.233-.47,5.634,5.634,0,0,1-1.655-.166,4.237,4.237,0,0,1-1.13-.692,2.872,2.872,0,0,0-.981-.56,1.7,1.7,0,0,0-.575,0,2.65,2.65,0,0,1-.779,0,21.843,21.843,0,0,0-4.261-.213,14.843,14.843,0,0,0-2.894.268c-.178.036-.988.214-1.118.243a.311.311,0,0,1-.366-.054.318.318,0,0,1,.133-.525c.15-.056,1.02-.232,1.23-.274a15.478,15.478,0,0,1,3.016-.279,22.459,22.459,0,0,1,4.383.225,2.026,2.026,0,0,0,.593-.012,2.313,2.313,0,0,1,.789.015,3.492,3.492,0,0,1,1.205.667,3.61,3.61,0,0,0,.952.6,5.026,5.026,0,0,0,1.482.135,2.246,2.246,0,0,1,1.648.652,2.176,2.176,0,0,1,.529,1c.088.321.135.657.209.955A.725.725,0,0,1,60.748,405.872Zm-15.737-3.705a.28.28,0,0,1,.074.264A.311.311,0,0,0,45.011,402.167Z" transform="translate(34.119 -319.223)" fill="#09450b" fill-rule="evenodd"/>
    <path id="Path_179" data-name="Path 179" d="M144.855,403.453a1.892,1.892,0,0,1-.223.728,8.9,8.9,0,0,0-.451.911,42.662,42.662,0,0,0-1.85,5.27.311.311,0,1,1-.61-.122,43.2,43.2,0,0,1,1.87-5.345,6.312,6.312,0,0,1,.4-.833,1.657,1.657,0,0,0,.239-.628.311.311,0,0,1,.621.019Z" transform="translate(-55.741 -320.474)" fill="#09450b" fill-rule="evenodd"/>
    <path id="Path_180" data-name="Path 180" d="M153.485,401.757a1.023,1.023,0,0,1-.14.48c-.154.291-.434.641-.554.852a17.929,17.929,0,0,0-1.237,2.527,16.847,16.847,0,0,0-1.131,3.755,19.746,19.746,0,0,1-.172,2.558.311.311,0,0,1-.6-.151,19.1,19.1,0,0,0,.157-2.476,17.516,17.516,0,0,1,1.167-3.9,18.563,18.563,0,0,1,1.28-2.617c.1-.181.324-.463.481-.723a1.555,1.555,0,0,0,.108-.2.212.212,0,0,0,.024-.074.311.311,0,1,1,.621-.022Z" transform="translate(-66.181 -319.182)" fill="#09450b" fill-rule="evenodd"/>
    <path id="Path_181" data-name="Path 181" d="M184.725,404.464a3.469,3.469,0,0,1-.578,1.138,6.292,6.292,0,0,0-.607.962,9.987,9.987,0,0,0-.961,5.465.311.311,0,0,1-.616.088,10.607,10.607,0,0,1,1.009-5.806,6.962,6.962,0,0,1,.664-1.063,2.846,2.846,0,0,0,.483-.924.311.311,0,1,1,.606.14Z" transform="translate(-104.796 -321.207)" fill="#09450b" fill-rule="evenodd"/>
    <path id="Path_182" data-name="Path 182" d="M126.865,435.015a1.639,1.639,0,0,1-.081,1.057,13.267,13.267,0,0,1-1.18,2.225c-1.6,2.662-3.244,5.443-5.708,7.415a.311.311,0,1,1-.388-.486c2.406-1.925,4-4.649,5.563-7.249a15.967,15.967,0,0,0,1-1.785,3.232,3.232,0,0,0,.208-.608.644.644,0,0,0,.008-.346.311.311,0,0,1,.58-.224Z" transform="translate(-32.707 -344.918)" fill="#09450b" fill-rule="evenodd"/>
    <path id="Path_183" data-name="Path 183" d="M326.625,485.189a3.2,3.2,0,0,0-.17-.477,10.666,10.666,0,0,0-1.4-2.1,3.088,3.088,0,0,1-.388-.593,2.22,2.22,0,0,0-.154-.243.3.3,0,0,0-.089-.091,8.518,8.518,0,0,1-1.172-.8,3.208,3.208,0,0,0-1.062-.595c-2.729-.682-5.526-1.916-8.519-1.417a28.034,28.034,0,0,0-5.359.915c-2.111.792-4.909,2.013-6.317,3.89a91.252,91.252,0,0,0-5.016,8.017,47.956,47.956,0,0,1-3.246,4.021,19.959,19.959,0,0,1-1.873,1.516l-.009.007a.3.3,0,0,1-.04.036.311.311,0,0,1-.435-.062.291.291,0,0,1-.037-.311.448.448,0,0,1,.134-.157,18.61,18.61,0,0,0,1.763-1.4,47.363,47.363,0,0,0,3.21-3.968,91.86,91.86,0,0,1,5.052-8.07c1.474-1.965,4.386-3.27,6.6-4.1a28.647,28.647,0,0,1,5.475-.946c3.079-.513,5.963.725,8.772,1.428a3.829,3.829,0,0,1,1.283.7,7.89,7.89,0,0,0,1.078.746,1.206,1.206,0,0,1,.431.456,3.776,3.776,0,0,0,.361.587,11.5,11.5,0,0,1,1.518,2.273,2.288,2.288,0,0,1,.229.671.566.566,0,0,1-.047.315.311.311,0,0,1-.572-.239Zm-34.686,11.847Zm0-.016v0Zm-.053-.176a.3.3,0,0,1,.053.169A.31.31,0,0,0,291.886,496.844Zm0,0-.009-.013Z" transform="translate(-272.315 -378.337)" fill="#09450b" fill-rule="evenodd"/>
    <path id="Path_184" data-name="Path 184" d="M285.381,514.349a.311.311,0,0,1-.089.609c-.234,0-.452-.183-.549-.54a6.564,6.564,0,0,1-.09-1.467c0-1.944.109-3.876.109-5.8a25.016,25.016,0,0,0-.6-4.107c-.5-3.01-.918-5.719-2.477-8.317-.281-.469-.549-1.122-.852-1.674a2.541,2.541,0,0,0-.579-.78.311.311,0,1,1,.382-.491,3.17,3.17,0,0,1,.743.972c.3.544.562,1.19.839,1.652,1.6,2.667,2.042,5.445,2.557,8.535a25.626,25.626,0,0,1,.606,4.21c0,1.924-.109,3.856-.109,5.8a7.586,7.586,0,0,0,.035,1.137A1.677,1.677,0,0,0,285.381,514.349Z" transform="translate(-228.117 -388.818)" fill="#09450b" fill-rule="evenodd"/>
    <path id="Path_185" data-name="Path 185" d="M283.9,560.962a1.087,1.087,0,0,1,.653.656,1.6,1.6,0,0,0,.232.477,16.383,16.383,0,0,1,1.852,3.179c.693,1.154.831,2.371,1.434,3.577.835,1.67,1.985,3.127,2.692,4.893.494,1.235,1.265,2.4,1.751,3.611a7.742,7.742,0,0,0,.835,1.844,1.58,1.58,0,0,0,.563.41c.269.137.552.254.771.386a31.774,31.774,0,0,0,6.559,2.926c3.356,1.119,7.227,1.553,10.5.067a19.742,19.742,0,0,0,3.075-1.179c1.228-.819,2.043-2.314,3-3.4a11.518,11.518,0,0,0,1.282-1.49c.907-1.452.686-2.984.885-4.579a27.691,27.691,0,0,0,.545-3.682.311.311,0,1,1,.622,0,28.261,28.261,0,0,1-.549,3.759c-.211,1.686-.016,3.3-.975,4.832a12.128,12.128,0,0,1-1.344,1.574c-.995,1.119-1.854,2.652-3.124,3.5A20.321,20.321,0,0,1,312,583.553c-3.412,1.551-7.45,1.124-10.951-.043a32.382,32.382,0,0,1-6.682-2.983c-.255-.153-.6-.283-.9-.454a1.949,1.949,0,0,1-.611-.5,8.364,8.364,0,0,1-.915-1.986c-.486-1.215-1.257-2.376-1.751-3.611-.7-1.75-1.843-3.191-2.671-4.846-.6-1.192-.727-2.4-1.411-3.536a15.722,15.722,0,0,0-1.759-3.059,1.645,1.645,0,0,1-.311-.545c-.07-.172-.125-.368-.33-.436a.311.311,0,0,1,.195-.591Z" transform="translate(-264.432 -442.23)" fill="#09450b" fill-rule="evenodd"/>
    <path id="Path_186" data-name="Path 186" d="M297.742,482.75a.311.311,0,0,1-.1-.137.293.293,0,0,1,0-.226.3.3,0,0,1,.209-.186.307.307,0,0,1,.307.084c.087.082.6.688.852.936a12.836,12.836,0,0,1,1.9,2.189,20.63,20.63,0,0,1,3.327,7.945.311.311,0,1,1-.616.088,20.018,20.018,0,0,0-3.239-7.7,12.222,12.222,0,0,0-1.816-2.079C298.345,483.436,297.828,482.847,297.742,482.75Zm.4-.014,0,0,.007-.006Zm.013-.012,0,0,.008-.008Zm.012-.013,0,0,.006-.006Zm.065-.3a.282.282,0,0,1,.006.165A.31.31,0,0,0,298.229,482.41Z" transform="translate(-250.751 -381.468)" fill="#09450b" fill-rule="evenodd"/>
    <path id="Path_187" data-name="Path 187" d="M314.7,482.1a.31.31,0,0,1-.279-.191.358.358,0,0,1,.01-.345.305.305,0,0,1,.366-.143.644.644,0,0,1,.209.114,5.369,5.369,0,0,1,.527.505,10.909,10.909,0,0,1,.845,1.238c.781,1.3,1.239,2.787,1.975,4.113a.311.311,0,1,1-.543.3c-.733-1.319-1.187-2.8-1.965-4.095a10.3,10.3,0,0,0-.8-1.169C315.027,482.407,314.825,482.219,314.7,482.1Z" transform="translate(-268.729 -380.866)" fill="#09450b" fill-rule="evenodd"/>
    <path id="Path_188" data-name="Path 188" d="M290.559,499.317q-.015-.133-.027-.266c-.109-1.232-.023-2.515-.023-3.652a.311.311,0,0,1,.622,0c0,1.12-.086,2.384.021,3.6a5.543,5.543,0,0,0,1.111,3.152c.493.592.818,1.32,1.313,1.915.09.109.175.226.265.34a3.837,3.837,0,0,1,.407.324.632.632,0,0,1,.221.411.285.285,0,0,1-.219.3.3.3,0,0,1-.252-.028c-.059-.033-.356-.292-.388-.324a2.85,2.85,0,0,1-.2-.232c-.358-.255-.765-.519-.89-.643a8.709,8.709,0,0,1-2.164-3.387,27.176,27.176,0,0,0-1.732-4.534c-1.505-3.512-2.591-7.151-4.315-10.6-.748-1.5-1.66-2.938-2.407-4.432a4.691,4.691,0,0,0-.469-.817.9.9,0,0,0-.177-.177.146.146,0,0,0-.08-.037.311.311,0,1,1-.006-.622.87.87,0,0,1,.608.29,4.451,4.451,0,0,1,.68,1.085c.747,1.494,1.659,2.936,2.407,4.432,1.729,3.459,2.821,7.109,4.33,10.631C289.6,496.994,290.16,498.2,290.559,499.317Z" transform="translate(-237.146 -379.474)" fill="#09450b" fill-rule="evenodd"/>
    <path id="Path_189" data-name="Path 189" d="M322.068,554.777a2.315,2.315,0,0,0-.555-.55,3.812,3.812,0,0,1-.707-.66,16.691,16.691,0,0,0-4.945-4.024c-2.846-1.708-5.5-3.4-8.82-4.065-2.294-.459-4.705.1-6.959.387-3.437.43-6.744,2.026-10.172,2.516-.754.108-1.564.391-2.366.526a3.385,3.385,0,0,1-2.556-.411.311.311,0,1,1,.345-.517,2.787,2.787,0,0,0,2.108.315c.808-.136,1.623-.42,2.381-.528,3.431-.49,6.742-2.087,10.182-2.517,2.318-.29,4.8-.851,7.158-.38,3.395.679,6.109,2.4,9.018,4.142a17.308,17.308,0,0,1,5.123,4.184,3.192,3.192,0,0,0,.6.546,2.937,2.937,0,0,1,.695.707.311.311,0,0,1-.527.331Z" transform="translate(-266.232 -429.685)" fill="#09450b" fill-rule="evenodd"/>
    <path id="Path_190" data-name="Path 190" d="M340.208,542.93a6.093,6.093,0,0,1-2.822-1.378,12.036,12.036,0,0,0-3.923-1.585c-2.456-.491-4.833-1.33-7.357-1.582-2.544-.254-5.117-.108-7.684-.108a.311.311,0,1,1,0-.622c2.588,0,5.181-.146,7.746.111,2.544.255,4.941,1.1,7.417,1.591a12.823,12.823,0,0,1,4.174,1.7,5.394,5.394,0,0,0,2.477,1.255.311.311,0,1,1-.028.621Z" transform="translate(-291.723 -424.228)" fill="#09450b" fill-rule="evenodd"/>
    <path id="Path_191" data-name="Path 191" d="M319.249,533.72a.311.311,0,0,1-.033.62.584.584,0,0,1-.361-.137,1.575,1.575,0,0,1-.311-.367c-.118-.18-.231-.393-.34-.554-.037-.054-.062-.106-.1-.124a1.407,1.407,0,0,1-.6-.669,8.607,8.607,0,0,1-.376-1.1c-.54-1.62-.92-3.253-1.477-4.925a.311.311,0,1,1,.59-.2c.557,1.672.938,3.3,1.477,4.924.08.239.156.566.275.864a.965.965,0,0,0,.39.543.763.763,0,0,1,.233.2,4.88,4.88,0,0,1,.355.55,2.23,2.23,0,0,0,.215.315A.619.619,0,0,0,319.249,533.72Z" transform="translate(-270.153 -415.313)" fill="#09450b" fill-rule="evenodd"/>
    <path id="Path_192" data-name="Path 192" d="M326.372,527.512c-.052-.024-.193-.088-.31-.133-.3-.113-.634-.231-.705-.275a7.876,7.876,0,0,1-2.233-1.845,18.787,18.787,0,0,0-2.259-2.634,8.031,8.031,0,0,1-1.207-2,15.431,15.431,0,0,0-1.612-1.977.311.311,0,1,1,.5-.373,16.087,16.087,0,0,1,1.671,2.072,7.353,7.353,0,0,0,1.091,1.834,19.435,19.435,0,0,1,2.337,2.729,7.145,7.145,0,0,0,2.035,1.657c.1.058.729.256.975.383a.563.563,0,0,1,.218.18.327.327,0,0,1,.05.194.311.311,0,0,1-.547.184Z" transform="translate(-278.08 -409.217)" fill="#09450b" fill-rule="evenodd"/>
    <path id="Path_193" data-name="Path 193" d="M349.583,523.736a1.871,1.871,0,0,0-.2-.078,2.807,2.807,0,0,1-.619-.214c-1.008-.672-2.287-.99-3.242-1.706-3.948-2.961-9.119-5.355-14.094-5.355a.311.311,0,0,1,0-.622c5.105,0,10.416,2.441,14.467,5.479.946.71,2.216,1.021,3.214,1.686a1.029,1.029,0,0,0,.256.082,2.948,2.948,0,0,1,.46.148.572.572,0,0,1,.357.408.311.311,0,0,1-.593.171Z" transform="translate(-304.34 -407.369)" fill="#09450b" fill-rule="evenodd"/>
    <path id="Path_194" data-name="Path 194" d="M355.807,527.427a7.7,7.7,0,0,0-1.82-.415,8.151,8.151,0,0,1-2.018-.487c-3.708-1.589-7.508-3.577-11.528-4.247a2.686,2.686,0,0,0-1.1.106,5.183,5.183,0,0,1-1.2.226.311.311,0,1,1,0-.622,4.572,4.572,0,0,0,1.047-.208,3.3,3.3,0,0,1,1.357-.117c4.068.678,7.918,2.68,11.671,4.289a7.543,7.543,0,0,0,1.865.443,8.314,8.314,0,0,1,1.968.456.311.311,0,1,1-.239.574Z" transform="translate(-311.932 -411.901)" fill="#09450b" fill-rule="evenodd"/>
    <path id="Path_195" data-name="Path 195" d="M333.914,543.069a.311.311,0,0,1,.271-.158,2.853,2.853,0,0,1,.916.313.31.31,0,0,1,.1.083l.788.279a.311.311,0,0,1-.174.6s-.889-.207-1.328-.332c-.468-.134-1.108-.25-1.676-.424a3.338,3.338,0,0,1-1.064-.5.311.311,0,1,1,.385-.489,2.71,2.71,0,0,0,.862.394C333.289,542.923,333.61,543,333.914,543.069Z" transform="translate(-290.469 -427.898)" fill="#09450b" fill-rule="evenodd"/>
    <path id="Path_196" data-name="Path 196" d="M335.853,483.133c3.6,1.048,7.045,5.369,8.093,9.039a.311.311,0,0,1-.6.171c-1-3.488-4.243-7.616-7.669-8.613a.311.311,0,1,1,.174-.6Z" transform="translate(-299.111 -382.186)" fill="#09450b" fill-rule="evenodd"/>
    <path id="Path_197" data-name="Path 197" d="M367.937,488.62a8.4,8.4,0,0,1,3.866,1.836.311.311,0,0,1-.4.472,7.861,7.861,0,0,0-3.622-1.708.311.311,0,1,1,.161-.6Z" transform="translate(-334.396 -386.421)" fill="#09450b" fill-rule="evenodd"/>
    <path id="Path_198" data-name="Path 198" d="M346.9,555.737c-.03-.011-.114-.043-.176-.06-.186-.05-.4-.084-.485-.1-1.059-.212-2.114-.5-3.173-.711a9.244,9.244,0,0,0-4.8.747,91.462,91.462,0,0,0-9.434,4.526,9.542,9.542,0,0,1-4.641.971,17.172,17.172,0,0,1-2.014-.21.314.314,0,0,1-.238-.35.3.3,0,0,1,.127-.213.574.574,0,0,1,.319-.069.31.31,0,0,1,.186.062c.422.05,1.346.157,1.619.157a8.9,8.9,0,0,0,4.332-.889,92.021,92.021,0,0,1,9.5-4.557,9.942,9.942,0,0,1,5.162-.785c1.06.212,2.114.5,3.174.711a4.026,4.026,0,0,1,.828.22.5.5,0,0,1,.24.235.311.311,0,0,1-.529.316Z" transform="translate(-299.524 -436.993)" fill="#09450b" fill-rule="evenodd"/>
    <path id="Path_199" data-name="Path 199" d="M373.824,605.457a.311.311,0,0,1-.5-.363.42.42,0,0,1,.156-.16,1.564,1.564,0,0,1,.338-.135c.69-.207,2.33-.476,2.875-.658a11.262,11.262,0,0,0,4.9-3.737.311.311,0,1,1,.472.4,11.868,11.868,0,0,1-5.172,3.923c-.609.2-2.6.513-3.066.724Z" transform="translate(-345.939 -472.588)" fill="#09450b" fill-rule="evenodd"/>
    <path id="Path_200" data-name="Path 200" d="M328.176,547.551l.066.072a1.915,1.915,0,0,1,.411.8l.017.059c.27.521.483,1.1.724,1.577a1.015,1.015,0,0,1,.052.212,3.018,3.018,0,0,1,.04.568.3.3,0,0,1-.315.272.644.644,0,0,1-.341-.115.308.308,0,0,1-.093-.036.333.333,0,0,1-.121-.123.2.2,0,0,0-.036-.016,3.334,3.334,0,0,0-1.684-.052,10.334,10.334,0,0,0-2.565.965,15.156,15.156,0,0,0-4.023,2.4c-1.939,1.938-3.033,3.648-6.129,3.648a.311.311,0,1,1,0-.622c2.891,0,3.879-1.655,5.69-3.465a15.789,15.789,0,0,1,4.184-2.52,8.1,8.1,0,0,1,4-1.094,6.035,6.035,0,0,0-.361-.488,3.585,3.585,0,0,0-1.032-.528.311.311,0,0,1,.191-.592s.483.143.722.222a1.494,1.494,0,0,1,.595.407c-.1-.275-.208-.547-.329-.815-.063-.1-.2-.312-.32-.514a2.657,2.657,0,0,1-.351-.433.415.415,0,0,1-.023-.41c-.1-.175-.2-.348-.3-.519a.311.311,0,0,1,.538-.312C327.657,546.571,327.929,547.054,328.176,547.551Z" transform="translate(-279.71 -430.658)" fill="#09450b" fill-rule="evenodd"/>
    <path id="Path_201" data-name="Path 201" d="M305.766,590.068a16.71,16.71,0,0,0-6.3,2.466c-3.8,2.372-6.968,5.745-11.272,7.359a18.707,18.707,0,0,1-4.452,1.331,20.05,20.05,0,0,1-2.223-.053l-.465,0a.311.311,0,0,1-.449-.3.316.316,0,0,1,.191-.276.778.778,0,0,1,.272-.052c.163-.007.393.007.451.007a19.482,19.482,0,0,0,2.154.057,18.1,18.1,0,0,0,4.3-1.3c4.265-1.6,7.4-4.954,11.161-7.3a17.3,17.3,0,0,1,6.57-2.56,13.247,13.247,0,0,1,2.24-.168h.711a3.181,3.181,0,0,1,.394.032.417.417,0,0,1,.205.1.318.318,0,0,1,0,.455.478.478,0,0,1-.291.122c-.188.018-.555-.048-.651-.034a10.048,10.048,0,0,0-1.9.531,8.133,8.133,0,0,0-3.916,2.694.311.311,0,0,1-.486-.388A8.4,8.4,0,0,1,305.766,590.068ZM281.22,600.955v0Zm0-.021v0Z" transform="translate(-251.975 -464.089)" fill="#09450b" fill-rule="evenodd"/>
    <path id="Path_202" data-name="Path 202" d="M338.308,612.819a.311.311,0,0,1,.595.172.641.641,0,0,1-.267.362c-.191.141-.512.284-.662.374a14.114,14.114,0,0,0-1.958,1.406A36.408,36.408,0,0,1,327,620.782a8.142,8.142,0,0,1-3.483.51,1.533,1.533,0,0,1-1.236-.707.311.311,0,0,1,.556-.278.634.634,0,0,0,.39.283,2.728,2.728,0,0,0,.835.117,7.812,7.812,0,0,0,2.685-.494,35.761,35.761,0,0,0,8.859-5.549,14.8,14.8,0,0,1,2.048-1.471c.112-.067.322-.164.5-.267A1.855,1.855,0,0,0,338.308,612.819Z" transform="translate(-291.043 -482.099)" fill="#09450b" fill-rule="evenodd"/>
    <path id="Path_203" data-name="Path 203" d="M281.1,429.346a.311.311,0,0,1-.461.416.8.8,0,0,1-.177-.544c0-.178.022-.39.04-.587a1,1,0,0,0,0-.342,7.817,7.817,0,0,1-.292-1.917,7.236,7.236,0,0,0-.267-1.781,16.426,16.426,0,0,1-.4-2.37c-.554-3.324-.885-6.7-1.546-10.012a8.823,8.823,0,0,0-1.091-2.116c-1.346-2.691-4.387-4.518-6.7-6.256a16.659,16.659,0,0,0-2.533-1.433c-.247-.123-.989-.4-1.125-.446a.3.3,0,0,1-.08-.027.312.312,0,0,1,.226-.58c.1.028.959.348,1.257.5a17.3,17.3,0,0,1,2.628,1.492c2.389,1.791,5.5,3.7,6.887,6.475a9.428,9.428,0,0,1,1.145,2.272c.663,3.315,1,6.7,1.55,10.031a15.729,15.729,0,0,0,.375,2.275,7.861,7.861,0,0,1,.3,1.935,7.186,7.186,0,0,0,.261,1.764,2.543,2.543,0,0,1,0,.837,2.172,2.172,0,0,0-.012.331A.67.67,0,0,0,281.1,429.346ZM266.83,401.44a.314.314,0,0,0-.086-.064A.287.287,0,0,1,266.83,401.44Z" transform="translate(-220.522 -319.091)" fill="#09450b" fill-rule="evenodd"/>
    <path id="Path_204" data-name="Path 204" d="M258.221,381.608c-.026.074-.056.161-.058.165a3.319,3.319,0,0,0-.234.667,9.57,9.57,0,0,0-.421,2.2c0,2.429-.172,4.84-.172,7.269a18,18,0,0,0,.256,2.073c.2,1.842-.2,3.8.251,5.593a26.547,26.547,0,0,1,.136,3c.287,2.292.183,4.574.6,6.865.231,1.272.488,2.61.648,3.888a7.827,7.827,0,0,0,.226,1.189,1.186,1.186,0,0,0,.247.518.311.311,0,0,1-.414.464,1.477,1.477,0,0,1-.353-.579,7.429,7.429,0,0,1-.322-1.516c-.158-1.267-.413-2.593-.642-3.854-.419-2.3-.317-4.6-.6-6.9a25.945,25.945,0,0,0-.122-2.931c-.455-1.82-.058-3.807-.266-5.675a18.573,18.573,0,0,1-.26-2.142c0-2.428.172-4.84.172-7.269a10.208,10.208,0,0,1,.439-2.355,3.992,3.992,0,0,1,.272-.775,2.8,2.8,0,0,1,.13-.337.338.338,0,0,1,.129-.121.309.309,0,0,1,.187-.034.305.305,0,0,1,.19.1.343.343,0,0,1,.092.258A.31.31,0,0,1,258.221,381.608Zm-.517-.211v0Z" transform="translate(-196.963 -303.414)" fill="#09450b" fill-rule="evenodd"/>
    <path id="Path_205" data-name="Path 205" d="M267.577,381.561a2.807,2.807,0,0,1-.12,1.441c-.211.729-.57,1.514-.727,1.986-.736,2.206-.738,4.687-1.062,6.956a18.628,18.628,0,0,0,.259,4.864c.256,2.047.547,4.1.775,6.155.078.7-.032,1.439.084,2.134a34.554,34.554,0,0,1,.821,5.384.311.311,0,1,1-.622,0,33.923,33.923,0,0,0-.813-5.282c-.118-.706-.009-1.457-.088-2.167-.228-2.049-.518-4.1-.774-6.146a19.272,19.272,0,0,1-.257-5.029c.329-2.305.341-4.824,1.088-7.065.155-.466.511-1.241.719-1.962a2.183,2.183,0,0,0,.12-1.1.311.311,0,1,1,.6-.172Z" transform="translate(-206.675 -303.658)" fill="#09450b" fill-rule="evenodd"/>
    <path id="Path_206" data-name="Path 206" d="M290.905,400.077c-1.509-1.9-4-3.152-5.9-4.668a53.3,53.3,0,0,1-4.456-3.877.311.311,0,1,1,.44-.44,52.605,52.605,0,0,0,4.4,3.831c1.93,1.544,4.457,2.835,5.994,4.767a.311.311,0,1,1-.487.387Z" transform="translate(-234.047 -311.114)" fill="#09450b" fill-rule="evenodd"/>
    <path id="Path_207" data-name="Path 207" d="M294.392,409.244a.46.46,0,0,0-.131-.167,3.4,3.4,0,0,0-.38-.317c-.486-.359-1.1-.72-1.307-.9a42.229,42.229,0,0,0-4.221-3.3.311.311,0,1,1,.345-.517,42.849,42.849,0,0,1,4.285,3.347c.236.207,1.019.65,1.507,1.056a1.465,1.465,0,0,1,.5.644.311.311,0,0,1-.6.152Z" transform="translate(-239.363 -321.137)" fill="#09450b" fill-rule="evenodd"/>
    <path id="Path_208" data-name="Path 208" d="M355.7,343.006a1.958,1.958,0,0,0-.218-.227c-.3-.244-.7-.489-.862-.651a11.09,11.09,0,0,0-5-2.783c-3.144-.786-6.4-.992-9.557-1.625a26.008,26.008,0,0,1-9.5-4.093,7.8,7.8,0,0,0-1.688-.87,8.456,8.456,0,0,1-1.829-.953,57.691,57.691,0,0,0-8.938-4.919,14.476,14.476,0,0,1-3.329-1.874c-.011-.006-.1-.054-.163-.083-.185-.081-.491-.179-.64-.225a.309.309,0,0,1-.165-.032.323.323,0,0,1-.2-.357.332.332,0,0,1,.4-.248,5.949,5.949,0,0,1,.858.293,1.272,1.272,0,0,1,.346.205,13.671,13.671,0,0,0,3.175,1.765,58.311,58.311,0,0,1,9.033,4.978,7.832,7.832,0,0,0,1.7.877,8.432,8.432,0,0,1,1.82.946,25.319,25.319,0,0,0,9.25,3.981c3.17.634,6.432.842,9.586,1.631a11.736,11.736,0,0,1,5.288,2.947c.183.183.688.473.97.746a.811.811,0,0,1,.291.57.311.311,0,0,1-.621,0Z" transform="translate(-306.481 -259.467)" fill="#09450b" fill-rule="evenodd"/>
    <path id="Path_209" data-name="Path 209" d="M392.5,318.6a6.269,6.269,0,0,1,2.847.247c.912.246,1.818.571,2.638.708,2.012.335,3.76,1.474,5.557,2.373a75.336,75.336,0,0,1,13.273,8.955.311.311,0,0,1-.388.486,74.717,74.717,0,0,0-13.163-8.885c-1.743-.871-3.431-1.99-5.381-2.315-.838-.14-1.765-.469-2.7-.721a5.647,5.647,0,0,0-2.559-.238.311.311,0,1,1-.126-.609Z" transform="translate(-385.058 -255.197)" fill="#09450b" fill-rule="evenodd"/>
    <path id="Path_210" data-name="Path 210" d="M395.414,303.926a5.012,5.012,0,0,1,2.037.641c1.02.518,2.06,1.236,2.763,1.611,3.759,2,8.376,3.375,11.585,6.228a.311.311,0,1,1-.413.465c-3.173-2.821-7.747-4.161-11.464-6.144-.7-.373-1.737-1.089-2.752-1.6a4.38,4.38,0,0,0-1.763-.574.311.311,0,0,1,.008-.622Z" transform="translate(-380.684 -243.935)" fill="#09450b" fill-rule="evenodd"/>
    <path id="Path_211" data-name="Path 211" d="M335.118,368.592a.649.649,0,0,0-.149-.225,3.7,3.7,0,0,0-.592-.5c-.647-.458-1.464-.9-1.8-1.191-2.058-1.764-3.916-3.618-6.161-5.191a.311.311,0,0,1,.356-.509c2.263,1.584,4.136,3.45,6.21,5.228.385.33,1.417.867,2.072,1.394a1.909,1.909,0,0,1,.659.81.311.311,0,0,1-.595.18Z" transform="translate(-288.783 -287.911)" fill="#09450b" fill-rule="evenodd"/>
    <path id="Path_212" data-name="Path 212" d="M336.08,346.9a65.346,65.346,0,0,1-4.7-8.066c-.958-1.917-1.915-3.688-3.9-4.679a.311.311,0,1,1,.278-.556c2.111,1.055,3.156,2.917,4.176,4.957a64.75,64.75,0,0,0,4.658,7.989.311.311,0,1,1-.51.355Z" transform="translate(-289.937 -266.804)" fill="#09450b" fill-rule="evenodd"/>
    <path id="Path_213" data-name="Path 213" d="M332.8,346.119a27.306,27.306,0,0,1-2.589-6.479,24.479,24.479,0,0,0-2.7-6.443.311.311,0,0,1,.517-.345,25.1,25.1,0,0,1,2.78,6.6,26.685,26.685,0,0,0,2.522,6.332.311.311,0,1,1-.526.331Z" transform="translate(-286.703 -266.145)" fill="#09450b" fill-rule="evenodd"/>
    <path id="Path_214" data-name="Path 214" d="M385.2,286.236a3.527,3.527,0,0,1,1.4.683,15.835,15.835,0,0,0,1.789,1.306c3.292,1.646,7.247,2.621,10.087,4.988a.311.311,0,1,1-.4.478c-2.8-2.337-6.717-3.284-9.967-4.909a10.836,10.836,0,0,1-1.57-1.127,3.6,3.6,0,0,0-1.445-.805.311.311,0,0,1,.1-.613Z" transform="translate(-365.028 -230.283)" fill="#09450b" fill-rule="evenodd"/>
    <path id="Path_215" data-name="Path 215" d="M367.432,285.31c6.332-1.042,12.077,1.953,17.122,5.316a.311.311,0,1,1-.345.517c-4.918-3.279-10.5-6.236-16.676-5.22a.311.311,0,0,1-.1-.613Z" transform="translate(-347.092 -229.41)" fill="#09450b" fill-rule="evenodd"/>
    <path id="Path_216" data-name="Path 216" d="M357.6,303.537a1.426,1.426,0,0,0,.019-.21,7.254,7.254,0,0,1,.211-1.986,12.834,12.834,0,0,0,.706-6.352c-1.161-5.807-4.754-12.9-10.862-14.937a22.32,22.32,0,0,0-21.007,3.4,39.1,39.1,0,0,1-6.038,3.285l-2.084,1.042c-.1.049-.664.188-.867.237a.336.336,0,0,1-.475-.1.3.3,0,0,1-.018-.284.338.338,0,0,1,.2-.182c.136-.051.767-.173.879-.229l2.084-1.042a38.447,38.447,0,0,0,5.943-3.226,22.925,22.925,0,0,1,21.576-3.5c6.314,2.1,10.075,9.4,11.276,15.4a13.478,13.478,0,0,1-.726,6.67,6.532,6.532,0,0,0-.18,1.79,5.337,5.337,0,0,1-.209,1.067.311.311,0,0,1-.606-.05.944.944,0,0,0-.081-.324.311.311,0,0,1,.086-.431A.307.307,0,0,1,357.6,303.537ZM317.62,287.482a.308.308,0,0,0-.1-.024A.289.289,0,0,1,317.62,287.482Z" transform="translate(-310.29 -224.076)" fill="#09450b" fill-rule="evenodd"/>
    <path id="Path_217" data-name="Path 217" d="M422.264,320.2a.311.311,0,0,1-.044-.432.3.3,0,0,1,.309-.117.371.371,0,0,1,.245.177c.2.311.855,2.348,1.149,2.789a10.7,10.7,0,0,1,1.4,3.838,34.331,34.331,0,0,0,.852,3.854c.569,1.708,2.034,3.28,2.848,4.908a2.775,2.775,0,0,1,.134,1.41,2.14,2.14,0,0,0,.061,1.065,5.865,5.865,0,0,1,.455,1.589,5.2,5.2,0,0,0,.391,1.406c1.023,2.046,4.9,5.184,7.048,5.9.584.195,1.306.63,1.987.949a2.853,2.853,0,0,0,1.105.337.311.311,0,0,1,0,.622,3.476,3.476,0,0,1-1.369-.4c-.659-.308-1.355-.734-1.92-.922-2.257-.752-6.331-4.06-7.407-6.211a5.823,5.823,0,0,1-.447-1.571,5.24,5.24,0,0,0-.4-1.424,2.762,2.762,0,0,1-.125-1.391,2.151,2.151,0,0,0-.071-1.083c-.826-1.653-2.3-3.255-2.882-4.989a34.972,34.972,0,0,1-.872-3.926,10.08,10.08,0,0,0-1.306-3.618A27.293,27.293,0,0,1,422.264,320.2Zm.432-.032a.274.274,0,0,1-.163.1A.309.309,0,0,0,422.7,320.17Z" transform="translate(-415.475 -256.064)" fill="#09450b" fill-rule="evenodd"/>
    <path id="Path_218" data-name="Path 218" d="M346.243,402.722c-.116-.013-.274-.03-.4-.036a1.288,1.288,0,0,0-.313,0,1.04,1.04,0,0,0-.559.5c-.11.181-.2.383-.3.584-.545,1.09-1.006,2.73-1.735,4.092a5.021,5.021,0,0,1-2.05,2.233c-1.741.87-3.317,2.44-5.079,3.321a9.127,9.127,0,0,1-5.024.782,27.184,27.184,0,0,1-7.164-2.042.311.311,0,0,1,.23-.578,31.194,31.194,0,0,0,5.762,1.825,9.328,9.328,0,0,0,5.919-.544c1.761-.881,3.338-2.451,5.079-3.321a5.175,5.175,0,0,0,2.114-2.651c.542-1.194.938-2.486,1.393-3.4.3-.6.569-1.176,1.221-1.393a1.891,1.891,0,0,1,.539-.034,4.293,4.293,0,0,1,.73.088.309.309,0,0,1,.168.14.294.294,0,0,1,0,.306.3.3,0,0,1-.187.151.665.665,0,0,1-.178.018A.308.308,0,0,1,346.243,402.722Z" transform="translate(-299.217 -319.648)" fill="#09450b" fill-rule="evenodd"/>
    <path id="Path_219" data-name="Path 219" d="M334.924,401.659a5.56,5.56,0,0,1,2.264.9,7.833,7.833,0,0,1,.671.448.459.459,0,0,1,.17.321.3.3,0,0,1-.128.255.315.315,0,0,1-.244.059.631.631,0,0,1-.176-.064c-.131-.068-.418-.253-.479-.293a11.445,11.445,0,0,1-1.31-.657c-.129-.065-.265-.126-.406-.184a.351.351,0,0,1-.094.176.339.339,0,0,1-.317.1,1.263,1.263,0,0,1-.377-.2c-.054-.037-.148-.088-.188-.11a.31.31,0,0,1-.388-.282,1.578,1.578,0,0,0-.306-.055,3.871,3.871,0,0,1-.52-.025.439.439,0,0,1-.212-.1,4.2,4.2,0,0,0-1.016.116c-4.449,1.112-7.426,3.786-11.526,5.836-2.453,1.226-5.2,1.542-7.659,2.361a7.173,7.173,0,0,1-2.247.211,1.573,1.573,0,0,1-.308-.041.311.311,0,0,1-.277.171,1.75,1.75,0,0,1-.563-.047.4.4,0,0,1-.269-.394.462.462,0,0,1,.1-.293.485.485,0,0,1,.362-.179,1.613,1.613,0,0,1,.454.057,2.7,2.7,0,0,0,.506.1,6.545,6.545,0,0,0,2.05-.179c2.43-.81,5.152-1.114,7.577-2.327,4.143-2.072,7.158-4.76,11.653-5.883A6.208,6.208,0,0,1,334.924,401.659Z" transform="translate(-287.141 -319.086)" fill="#09450b" fill-rule="evenodd"/>
    <path id="Path_220" data-name="Path 220" d="M396.7,432.27a9.9,9.9,0,0,1-1.711.826,5.849,5.849,0,0,1-1.778.068c-.53-.033-1.2-.044-1.339-.046a.311.311,0,0,1-.491-.322.36.36,0,0,1,.192-.237.956.956,0,0,1,.381-.076c.225-.008.562.013.934.038a.3.3,0,0,1,.2-.156,5.472,5.472,0,0,1,.634-.07,4.508,4.508,0,0,0,1.2-.114c.523-.174,1.051-.332,1.577-.5a11.832,11.832,0,0,1,2-1c.544-.181,1.617-.582,1.617-.582a.311.311,0,0,1,.279.552s-.233.151-.357.213c-.479.239-.951.511-1.449.724C397.977,431.855,397.341,432.068,396.7,432.27Zm-3.483.09h0Z" transform="translate(-368.473 -341.265)" fill="#09450b" fill-rule="evenodd"/>
    <path id="Path_221" data-name="Path 221" d="M326.36,387.573a2.77,2.77,0,0,0,.288.151c.272.116.591.214.7.251a21.422,21.422,0,0,1,3.643,2.047c2.52,1.512,4.831,1.764,7.533,2.439a7.1,7.1,0,0,0,3.668.072,4.649,4.649,0,0,1,1.51-.149,4,4,0,0,0,1.29-.112,20.384,20.384,0,0,0,2.629-.7,9.271,9.271,0,0,1,2.5-1.071,11.838,11.838,0,0,0,2.756-.874,13.787,13.787,0,0,1,2.9-.948,7.982,7.982,0,0,1,2.557.027,1.968,1.968,0,0,1,.97.451.324.324,0,0,1,.1.278.312.312,0,0,1-.15.243.414.414,0,0,1-.2.059,2.063,2.063,0,0,1-.435-.058.311.311,0,0,1-.235-.324,3.77,3.77,0,0,0-.515-.1,7.733,7.733,0,0,0-1.989.035,13.184,13.184,0,0,0-2.768.91,12.462,12.462,0,0,1-2.9.914,8.6,8.6,0,0,0-2.314,1.012,21.025,21.025,0,0,1-2.71.733,4.627,4.627,0,0,1-1.494.143,4.024,4.024,0,0,0-1.306.117,7.771,7.771,0,0,1-4.015-.059c-2.765-.691-5.125-.963-7.7-2.509a20.705,20.705,0,0,0-3.52-1.99,5.638,5.638,0,0,1-1.152-.483.518.518,0,0,1-.236-.364.311.311,0,0,1,.6-.146Z" transform="translate(-312.355 -308.325)" fill="#09450b" fill-rule="evenodd"/>
    <path id="Path_222" data-name="Path 222" d="M380.354,386.806c-1.927-.1-3.655.7-5.559.906-3.832.426-7.508,1.724-11.329,2.149a12.285,12.285,0,0,1-5.164-.346,29.924,29.924,0,0,1-2.651-1.569,8.1,8.1,0,0,0-.976-.52,1.052,1.052,0,0,0-.36-.1.311.311,0,1,1,0-.622,3.009,3.009,0,0,1,1.192.443c1.007.555,2.349,1.522,3.026,1.793a11.571,11.571,0,0,0,4.864.305c3.822-.425,7.5-1.723,11.329-2.149,1.937-.215,3.7-1.007,5.658-.91a.311.311,0,1,1-.031.621Z" transform="translate(-340.071 -307.393)" fill="#09450b" fill-rule="evenodd"/>
    <path id="Path_223" data-name="Path 223" d="M134.2,225.76a.311.311,0,0,1-.352.426l-.138.051a.311.311,0,0,1-.347-.512,2.1,2.1,0,0,0,.43-.459,2.5,2.5,0,0,1,.648-.7,5.016,5.016,0,0,1,1.307-.772,4.824,4.824,0,0,1,2.682.085,4.936,4.936,0,0,0,2.311.212,7.644,7.644,0,0,0,2.272-1.164,32.187,32.187,0,0,1,4.916-3.478c2.119-1.059,4.653-1.464,6.673-2.676,3.1-1.859,4.983-4.742,7.445-7.205a3.437,3.437,0,0,0,.76-1.528c.27-.985.369-2.1.524-2.877.408-2.039-.328-3.466-.661-5.466-.636-3.813-3.242-7.458-5.183-10.693a15.35,15.35,0,0,1-1.3-3.194,11.961,11.961,0,0,0-1.279-2.98,8.329,8.329,0,0,1-.848-2,1.557,1.557,0,0,1-.044-.425v-.187a.311.311,0,0,1-.09-.387c.125-.251.292-.281.352-.283a.325.325,0,0,1,.34.274,2.665,2.665,0,0,1,.021.485,1.351,1.351,0,0,0,.012.326,7.7,7.7,0,0,0,.775,1.853,12.584,12.584,0,0,1,1.353,3.132,14.713,14.713,0,0,0,1.241,3.067c1.978,3.3,4.615,7.023,5.263,10.91.347,2.081,1.082,3.569.658,5.69-.157.785-.26,1.919-.534,2.92a4.062,4.062,0,0,1-.92,1.8c-2.5,2.5-4.421,5.412-7.565,7.3-2.033,1.22-4.582,1.633-6.715,2.7a31.609,31.609,0,0,0-4.821,3.419,8.38,8.38,0,0,1-2.495,1.27,5.548,5.548,0,0,1-2.6-.21,4.22,4.22,0,0,0-2.343-.1,4.331,4.331,0,0,0-1.115.668,1.867,1.867,0,0,0-.48.494A1.218,1.218,0,0,1,134.2,225.76Z" transform="translate(-73.026 -147.974)" fill="#09450b" fill-rule="evenodd"/>
    <path id="Path_224" data-name="Path 224" d="M219.046,324.13a2.979,2.979,0,0,1,.378-1.936c.448-.933,1.149-1.9,1.41-2.557,1.168-2.921,3.186-5.313,5.141-7.757,1.276-1.6,2.939-2.779,3.608-4.784a.311.311,0,0,1,.59.2c-.693,2.078-2.39,3.323-3.712,4.976-1.917,2.4-3.9,4.736-5.049,7.6-.266.664-.973,1.649-1.427,2.6a2.363,2.363,0,0,0-.338,1.506.311.311,0,0,1-.6.161Z" transform="translate(-158.733 -246.216)" fill="#09450b" fill-rule="evenodd"/>
    <path id="Path_225" data-name="Path 225" d="M194.817,267.47a21.877,21.877,0,0,1-.913,2.2,28.019,28.019,0,0,1-3.778,5.514,34.82,34.82,0,0,1-5.214,4.129,17.914,17.914,0,0,0-2.967,1.827c-1.67,1.67-3.083,3.559-4.646,5.433a33.987,33.987,0,0,0-2.843,4.267c-.084.139-.171.276-.258.412-.034.14-.068.282-.1.423a3.461,3.461,0,0,1-.76,1.593.363.363,0,0,1-.307.124.3.3,0,0,1-.285-.26.6.6,0,0,1,.013-.247,7.57,7.57,0,0,1,.286-.813,6.513,6.513,0,0,1,.58-1.067,5.592,5.592,0,0,1,.363-1.11,14.275,14.275,0,0,1,1.222-1.975,10.647,10.647,0,0,1,.96-1.8,33.641,33.641,0,0,1,3.008-3.435c.038-.07.074-.134.1-.182a.608.608,0,0,1,.164-.178.365.365,0,0,1,.142-.056l.414-.415a10.51,10.51,0,0,1,1.411-1.4c.244-.162.686-.55.686-.55a.311.311,0,0,1,.421.011l.02.021c.663-.393,1.391-.706,2.031-1.133a34.171,34.171,0,0,0,5.12-4.052,27.393,27.393,0,0,0,3.685-5.394c.285-.476.946-2.335,1-2.466a.288.288,0,0,1,.152-.163.311.311,0,0,1,.4.108.285.285,0,0,1,.048.214c0,.012-.03.116-.105.34A.307.307,0,0,1,194.817,267.47Z" transform="translate(-112.947 -215.201)" fill="#09450b" fill-rule="evenodd"/>
    <path id="Path_226" data-name="Path 226" d="M164.513,250.654a38.548,38.548,0,0,1-3.754,8.68,11.572,11.572,0,0,1-4.184,4.377c-1.042.521-2.047,1.131-3.086,1.651-1.094.547-2.554.568-3.7.95a14.216,14.216,0,0,0-5.763,3.3.311.311,0,0,1-.44-.44,14.824,14.824,0,0,1,6.006-3.448c1.12-.373,2.551-.382,3.619-.916,1.039-.52,2.044-1.129,3.086-1.651a10.945,10.945,0,0,0,3.932-4.147,37.87,37.87,0,0,0,3.687-8.53.311.311,0,1,1,.6.176Z" transform="translate(-75.818 -202.527)" fill="#09450b" fill-rule="evenodd"/>
    <path id="Path_227" data-name="Path 227" d="M164.9,189.053a2.2,2.2,0,0,1,.354,1.053c.131.941.1,2.285.171,2.8a6.245,6.245,0,0,0,.566,1.673,8.379,8.379,0,0,1,.651,1.755,11.155,11.155,0,0,1-.816,7.951.311.311,0,0,1-.556-.278,10.592,10.592,0,0,0,.763-7.551,7.746,7.746,0,0,0-.608-1.621,6.877,6.877,0,0,1-.615-1.841c-.064-.448-.049-1.506-.127-2.4a4.948,4.948,0,0,0-.137-.873.717.717,0,0,0-.115-.265.311.311,0,1,1,.469-.409Z" transform="translate(-83.063 -155.227)" fill="#09450b" fill-rule="evenodd"/>
    <path id="Path_228" data-name="Path 228" d="M179.231,181.9c-1.673,5.571-1.525,11.833-3.4,17.463a.311.311,0,0,1-.59-.2c1.875-5.624,1.725-11.879,3.4-17.445a.311.311,0,1,1,.6.179Z" transform="translate(-97.786 -149.478)" fill="#09450b" fill-rule="evenodd"/>
    <path id="Path_229" data-name="Path 229" d="M241.494,301.626a1.524,1.524,0,0,0,.438-.831,11.188,11.188,0,0,0,.327-1.842,25.685,25.685,0,0,0,.217-6.38,18.639,18.639,0,0,1-.434-2.34.311.311,0,1,1,.622,0,17.976,17.976,0,0,0,.428,2.252,26.328,26.328,0,0,1-.214,6.537,10.181,10.181,0,0,1-.468,2.3,1.709,1.709,0,0,1-.58.827.311.311,0,1,1-.336-.523Z" transform="translate(-176.877 -233.131)" fill="#09450b" fill-rule="evenodd"/>
    <path id="Path_230" data-name="Path 230" d="M228.5,234.722c.682-1.255.648-3.265.882-4.666,1-5.98-.719-12.048.142-18.077a23.53,23.53,0,0,1,1.024-5.6,6.68,6.68,0,0,1,.711-1.044,1.645,1.645,0,0,0,.238-.435.357.357,0,0,0-.006-.275.311.311,0,1,1,.556-.278,1.138,1.138,0,0,1-.13,1.116,13.457,13.457,0,0,0-.792,1.147,22.919,22.919,0,0,0-.986,5.454c-.862,6.034.853,12.107-.145,18.092-.244,1.462-.237,3.552-.948,4.861a.311.311,0,0,1-.546-.3Z" transform="translate(-162.845 -166.976)" fill="#09450b" fill-rule="evenodd"/>
    <path id="Path_231" data-name="Path 231" d="M242.949,212.463c-.056.189-.282,1.114-.321,1.213a14.28,14.28,0,0,0-.416,2.105c-.894,4.025-.289,7.878.22,11.95a.311.311,0,0,1-.617.077c-.518-4.144-1.12-8.066-.21-12.162a14.906,14.906,0,0,1,.445-2.2c.038-.1.251-.985.3-1.162a.34.34,0,0,1,.312-.253.311.311,0,0,1,.283.433Zm-.067.1a.288.288,0,0,1-.2.09A.31.31,0,0,0,242.883,212.561Z" transform="translate(-176.576 -173.036)" fill="#09450b" fill-rule="evenodd"/>
    <path id="Path_232" data-name="Path 232" d="M205.115,179.319c-.106.041-1.184.457-1.357.5a17.229,17.229,0,0,0-2.939.671c-.644.276-1.289.649-1.952.87-2.9.968-5.089,3.063-7.414,4.806a34.086,34.086,0,0,1-3.577,1.88c-1.3.742-2.616,1.508-3.883,2.268-1.384.831-3.121,1.98-3.84,3.417a24.4,24.4,0,0,0-1.6,2.919c-.423,1.269-.832,2.541-1.163,3.866-.2.786-.389,1.623-.585,2.409-.045.18-.176.979-.226,1.139a.339.339,0,0,1-.153.2.29.29,0,0,1-.342-.018.337.337,0,0,1-.133-.3.31.31,0,0,1,.053-.173c.046-.244.163-.864.2-1,.2-.786.389-1.623.585-2.409.335-1.341.749-2.628,1.177-3.912a25.044,25.044,0,0,1,1.634-3c.767-1.534,2.6-2.786,4.076-3.672,1.271-.762,2.593-1.531,3.895-2.275a33.442,33.442,0,0,0,3.512-1.837c2.377-1.783,4.623-3.909,7.591-4.9.646-.215,1.275-.582,1.9-.851a17.9,17.9,0,0,1,3.049-.706c.161-.036.9-.364,1.247-.468a.645.645,0,0,1,.387-.017.311.311,0,0,1-.141.6Z" transform="translate(-124.153 -147.322)" fill="#09450b" fill-rule="evenodd"/>
    <path id="Path_233" data-name="Path 233" d="M278.652,313.845a.305.305,0,0,1-.006.122.438.438,0,0,0-.009.046c-.01.09-.019.162-.019.162a.311.311,0,0,1-.618-.07s.008-.081.02-.164c.007-.064.013-.136.013-.186,0-.226.069-.411.069-.654a7.981,7.981,0,0,1,.118-1.016,2.3,2.3,0,0,0,.029-.8,5.546,5.546,0,0,1-.113-1.315,4.892,4.892,0,0,0-.093-1.163c-.287-1.147-.415-2.411-.785-3.522-.833-2.5-1.225-5.113-2.524-7.45-.509-.915-.985-1.85-1.541-2.739a11.21,11.21,0,0,1-1.445-2.622c-.291-.969-.533-1.937-.73-2.919a3.292,3.292,0,0,1,.109-1.147c.037-.176.074-.348.094-.5a.57.57,0,0,0,.007-.231.311.311,0,0,1,.585-.21,1.833,1.833,0,0,1-.032.846,3.55,3.55,0,0,0-.153,1.117c.193.963.43,1.912.716,2.862a10.6,10.6,0,0,0,1.377,2.471c.562.9,1.043,1.842,1.557,2.767,1.317,2.371,1.725,5.019,2.57,7.555.375,1.126.508,2.405.8,3.568a5.529,5.529,0,0,1,.112,1.311,4.921,4.921,0,0,0,.094,1.167,2.416,2.416,0,0,1,.011.83c-.047.391-.14.816-.14,1.138,0,.243-.069.427-.069.654C278.655,313.78,278.654,313.811,278.652,313.845Z" transform="translate(-219.318 -231.078)" fill="#09450b" fill-rule="evenodd"/>
    <path id="Path_234" data-name="Path 234" d="M246.513,347.3a4.477,4.477,0,0,1-.687,1.824h0l-.016.037a.311.311,0,0,1,.1.1.306.306,0,0,1,.049.2.952.952,0,0,1-.03.126c-.031.225-.168,1.231-.188,1.3-.1.359-.366.858-.517,1.331a1.048,1.048,0,0,0-.063.651.311.311,0,1,1-.583.216,1.125,1.125,0,0,1-.065-.4.3.3,0,0,1-.175-.3,1.767,1.767,0,0,1,.041-.356.316.316,0,0,1-.076-.138.7.7,0,0,1,0-.28,9.644,9.644,0,0,1,.608-1.946,6.509,6.509,0,0,1,.319-.884c.052-.173.115-.35.183-.527a9.07,9.07,0,0,1,.247-1.038,7.515,7.515,0,0,1,1.222-1.948,4.829,4.829,0,0,0,.348-.712c.378-.661.875-1.255,1.28-1.9a9.966,9.966,0,0,1,1.352-1.81,3.64,3.64,0,0,1,.515-.419.364.364,0,0,1,.441.041.319.319,0,0,1,.073.356,1,1,0,0,1-.189.272c-.153.169-.389.385-.435.431a2.064,2.064,0,0,0-.372.636,2.68,2.68,0,0,1-.642.924,4.639,4.639,0,0,0-.625.721C247.938,344.974,247.112,346.068,246.513,347.3Z" transform="translate(-185.249 -272.055)" fill="#09450b" fill-rule="evenodd"/>
    <path id="Path_235" data-name="Path 235" d="M271.724,270.512a.307.307,0,0,1,.1.147.311.311,0,0,1-.209.387.386.386,0,0,1-.474-.214.8.8,0,0,1-.045-.375,4.583,4.583,0,0,1,.108-.58c.165-.827.186-1.7.271-2.551a15.54,15.54,0,0,0-.6-6.712,67.935,67.935,0,0,1-2.281-6.638c-.242-.968-.743-1.9-.965-2.862a39.592,39.592,0,0,1-.661-6.486c-.124-1.984-.221-3.953.686-5.768.108-.216.163-.478.251-.712a1.486,1.486,0,0,1,.324-.539.311.311,0,1,1,.44.44,1.063,1.063,0,0,0-.221.431,5.012,5.012,0,0,1-.237.659,10.36,10.36,0,0,0-.622,5.451,38.962,38.962,0,0,0,.647,6.385c.222.961.721,1.886.962,2.851a67.3,67.3,0,0,0,2.262,6.577,16.179,16.179,0,0,1,.637,6.986c-.087.866-.111,1.765-.28,2.611C271.8,270.047,271.749,270.361,271.724,270.512Z" transform="translate(-211.688 -192.7)" fill="#09450b" fill-rule="evenodd"/>
    <path id="Path_236" data-name="Path 236" d="M274.511,368.752a.736.736,0,0,1,.029.08c.031.1.079.325.108.42.073.244.145.495.2.745a.313.313,0,0,1,.105.033.419.419,0,0,1,.046-.1c.017-.127.032-.253.042-.378-.052-1.429-.166-2.862-.343-4.272-.083-.663-.231-1.312-.365-1.963a3.507,3.507,0,0,1-.291-1.207.307.307,0,0,1,.29-.329.3.3,0,0,1,.312.193c.012.028.047.236.072.313a5.815,5.815,0,0,1,.182.691l.033.161.025.064a9.285,9.285,0,0,1,.457,1.246,12.468,12.468,0,0,1,.258,1.638c.017.061.036.122.051.181a7.53,7.53,0,0,1,.249,1.222,10.111,10.111,0,0,1-.145,2.36c-.007.171-.017.342-.03.513a.312.312,0,0,1,.165.134.344.344,0,0,1,.039.259,1.551,1.551,0,0,1-.082.2c-.055.168-.076.352-.138.517a7.874,7.874,0,0,0-.329,1.323c-.009.049-.016.1-.024.146a1.558,1.558,0,0,1,0,.244,4.041,4.041,0,0,1,.074.535.882.882,0,0,1-.144.59c.011.611.1,1.222.1,1.837,0,.1,0,.242.009.38.016.233.025.541.025.541a.311.311,0,0,1-.621.026s-.015-.265-.025-.537c0-.037-.005-.072-.008-.1l0-.034a.309.309,0,0,1-.148-.087.531.531,0,0,1-.13-.332,7.2,7.2,0,0,1,.072-.889c-.172-1-.285-2.005-.38-3.018q-.125-.648-.234-1.3a4.477,4.477,0,0,1-.091-.45.675.675,0,0,1,.031-.278c-.082-.153-.16-.309-.23-.477a19.778,19.778,0,0,1-.754-2.706c-.134-.285-.3-.624-.425-.952a2.789,2.789,0,0,1-.221-.936.346.346,0,0,1,.091-.252q-.027-.118-.051-.237a.3.3,0,0,1,.025-.209.347.347,0,0,1,.078-.107c-.1-.316-.212-.63-.33-.944-.016-.043-.109-.284-.2-.532a.31.31,0,0,1-.228-.288c-.006-.015-.067-.175-.092-.25a.522.522,0,0,1-.021-.291.344.344,0,0,1,.146-.2.367.367,0,0,1,.209-.06.34.34,0,0,1,.3.186c.107.186.44,1.118.478,1.22.517,1.379.871,2.775,1.314,4.216.13.421.311.828.417,1.255C274.453,368.543,274.486,368.645,274.511,368.752Zm1.243,2.209h0l.01,0Zm.021-.008-.005,0,.008,0Z" transform="translate(-216.563 -288.455)" fill="#09450b" fill-rule="evenodd"/>
    <path id="Path_237" data-name="Path 237" d="M284.9,265.945a.31.31,0,0,1,.006-.266.293.293,0,0,1,.323-.176.3.3,0,0,1,.232.15.557.557,0,0,1,.06.219,3.116,3.116,0,0,1-.042.8,2.675,2.675,0,0,0-.133,1.472c.343,1.259.777,2.495,1.135,3.748a11.626,11.626,0,0,0,.6,1.977c.335.67.493,1.437.854,2.087,1.769,3.185,3.713,6.234,4.876,9.723a19.536,19.536,0,0,0,1.153,2.472c.1.2.265.407.387.624a1.411,1.411,0,0,1,.2.574.311.311,0,0,1-.62.048.988.988,0,0,0-.179-.414c-.119-.191-.256-.379-.344-.554a20.178,20.178,0,0,1-1.187-2.553c-1.151-3.452-3.079-6.467-4.829-9.618-.366-.658-.528-1.433-.867-2.111a12.3,12.3,0,0,1-.64-2.084c-.359-1.255-.793-2.493-1.137-3.755a3.326,3.326,0,0,1,.143-1.832A2.786,2.786,0,0,0,284.9,265.945Zm.362.174a.31.31,0,0,0,.2-.162A.271.271,0,0,1,285.266,266.118Z" transform="translate(-238.105 -214.288)" fill="#09450b" fill-rule="evenodd"/>
    <path id="Path_238" data-name="Path 238" d="M285.945,258.478a.309.309,0,0,1-.187-.193.349.349,0,0,1,.14-.453.306.306,0,0,1,.349.038.906.906,0,0,1,.146.167c.15.209.417.65.5.761.411.575.722,1.333,1.083,1.951,1.108,1.9,1.9,4.052,3,5.992.62,1.1,1.311,2.191,1.987,3.255a35.869,35.869,0,0,1,1.982,4.27c.877,1.9,1.784,3.775,2.651,5.68.564,1.241,1.17,2.5,1.659,3.768a8.039,8.039,0,0,1,.571,1.361.311.311,0,1,1-.614.1,7.367,7.367,0,0,0-.538-1.235c-.484-1.259-1.086-2.5-1.645-3.734-.866-1.9-1.773-3.777-2.649-5.677a35.264,35.264,0,0,0-1.942-4.2c-.683-1.073-1.379-2.172-2-3.284-1.09-1.938-1.886-4.088-2.992-5.984-.352-.6-.651-1.343-1.051-1.9C286.315,259.06,286.1,258.7,285.945,258.478Z" transform="translate(-243.615 -208.343)" fill="#09450b" fill-rule="evenodd"/>
    <path id="Path_239" data-name="Path 239" d="M281.1,317.722c.066.12.206.372.232.417.226.377.45.76.66,1.147a22.141,22.141,0,0,1,1.743,3.423c.944,2.832,1.666,5.647,2.448,8.517.438,1.6,1.136,3.141,1.484,4.766.336,1.569.826,3.191,1.037,4.773a13.91,13.91,0,0,1,.312,1.8,4.756,4.756,0,0,1-.006.525.492.492,0,0,1-.078.22.3.3,0,0,1-.369.12.311.311,0,0,1-.2-.394.308.308,0,0,1,.025-.056l0-.415a13.3,13.3,0,0,0-.307-1.714c-.209-1.566-.7-3.172-1.028-4.725-.346-1.614-1.041-3.14-1.476-4.733-.78-2.859-1.5-5.663-2.438-8.484a21.516,21.516,0,0,0-1.7-3.322c-.207-.379-.425-.754-.648-1.125a6.632,6.632,0,0,1-.328-.615.322.322,0,1,1,.629-.122Zm7.53,25.1a.29.29,0,0,1,.132.015A.308.308,0,0,0,288.634,342.822Zm-8.05-24.845-.009-.009Z" transform="translate(-231.611 -254.345)" fill="#09450b" fill-rule="evenodd"/>
    <path id="Path_240" data-name="Path 240" d="M320.815,284.148a12.661,12.661,0,0,0-1.294-2.047c-.525-.84-.947-1.822-1.391-2.71-.4-.805-.973-1.532-1.376-2.34-.363-.726-.753-1.433-1.075-2.185-.071-.165-.125-.38-.192-.586a.973.973,0,0,0-.189-.384.311.311,0,0,1,.44-.44,1.4,1.4,0,0,1,.3.5c.083.224.138.477.217.663.317.74.7,1.436,1.059,2.151.4.808.974,1.535,1.376,2.34.435.871.847,1.835,1.362,2.659a13.274,13.274,0,0,1,1.35,2.16.311.311,0,1,1-.583.216Z" transform="translate(-271.944 -220.357)" fill="#09450b" fill-rule="evenodd"/>
    <path id="Path_241" data-name="Path 241" d="M317.214,230.559a.31.31,0,0,1-.12-.245.459.459,0,0,1,.152-.393.312.312,0,0,1,.233-.06.339.339,0,0,1,.248.165,1.228,1.228,0,0,1,.09.74c-.146.73-.281,1.447-.466,2.184-.495,1.978-1.179,3.9-1.534,5.859a.311.311,0,1,1-.612-.111c.357-1.972,1.044-3.907,1.542-5.9.182-.727.315-1.435.459-2.155A.429.429,0,0,0,317.214,230.559Z" transform="translate(-268.362 -186.79)" fill="#09450b" fill-rule="evenodd"/>
    <path id="Path_242" data-name="Path 242" d="M320.989,238.84c.046-.2.141-.612.176-.754a3.227,3.227,0,0,1,.559-1.056,4.894,4.894,0,0,0,.56-.876,14.129,14.129,0,0,0,1.433-5.711c0-.222.052-.769.018-1.22a1.614,1.614,0,0,0-.056-.343.671.671,0,0,0-.039-.089.311.311,0,0,1,.35-.514.952.952,0,0,1,.337.652,9.492,9.492,0,0,1,.012,1.513,14.732,14.732,0,0,1-1.483,5.956,5.551,5.551,0,0,1-.627.994,2.608,2.608,0,0,0-.46.844c-.056.223-.2.91-.257,1.009a.314.314,0,0,1-.2.163.3.3,0,0,1-.29-.061.358.358,0,0,1-.118-.3A.309.309,0,0,1,320.989,238.84Z" transform="translate(-276.194 -185.531)" fill="#09450b" fill-rule="evenodd"/>
    <path id="Path_243" data-name="Path 243" d="M302.912,207.85a.309.309,0,0,1,.063.17,3.109,3.109,0,0,1,0,.335.688.688,0,0,1-.061.251l-.014.024,0,.022-.029.225a2.835,2.835,0,0,1-.009.328.406.406,0,0,1-.1.216.348.348,0,0,1-.137.094c-.037.341-.1.663-.152,1.02-.212,1.489-.848,2.929-1.141,4.392a5.637,5.637,0,0,0-.006.811,1.553,1.553,0,0,1-.107.649.311.311,0,0,1-.553-.284,1.32,1.32,0,0,0,.037-.517,4.321,4.321,0,0,1,.02-.781c.267-1.336.825-2.651,1.077-4a.306.306,0,0,1-.014-.125s.042-.483.072-.723a8.589,8.589,0,0,0,.033-1.064v-.42a.693.693,0,0,1-.05-.119.377.377,0,0,1,0-.2.336.336,0,0,1,.209-.228,2.219,2.219,0,0,0,.139-.354c0-.01.005-.022.007-.035.01-.131.021-.241.021-.241a.311.311,0,0,1,.224-.268c.064-.23.14-.458.217-.688a7.688,7.688,0,0,1,1.96-3.323,5.03,5.03,0,0,1,1.758-1.462.311.311,0,1,1,.2.59,2.067,2.067,0,0,0-.777.526c-.261.257-.5.545-.737.786a7.12,7.12,0,0,0-1.81,3.08A5.458,5.458,0,0,0,302.912,207.85Z" transform="translate(-253.978 -164.942)" fill="#09450b" fill-rule="evenodd"/>
    <path id="Path_244" data-name="Path 244" d="M319.816,208.124a1.572,1.572,0,0,0,.017-.612c-.045-.412-.154-.852-.194-1.137a11.571,11.571,0,0,0-.55-2.632c-.246-.614-.654-1.177-.86-1.8a.311.311,0,0,1,.59-.2c.2.607.606,1.159.847,1.761a12.2,12.2,0,0,1,.588,2.775c.041.29.151.738.2,1.157a2.2,2.2,0,0,1-.043.87.311.311,0,1,1-.592-.19Z" transform="translate(-271.686 -164.942)" fill="#09450b" fill-rule="evenodd"/>
    <path id="Path_245" data-name="Path 245" d="M318.27,234.9l0,.024c0,.188-.035.373-.035.553a.311.311,0,0,1-.622,0c0-.186.036-.376.036-.569a1.68,1.68,0,0,1,.049-.268.3.3,0,0,1,.136-.165.3.3,0,0,1,.263-.025.3.3,0,0,1,.208.333A.306.306,0,0,1,318.27,234.9Zm-.592-.113v0Zm0-.017v0Z" transform="translate(-269.374 -190.321)" fill="#09450b" fill-rule="evenodd"/>
    <path id="Path_246" data-name="Path 246" d="M343.065,210.247a.311.311,0,0,1,.074-.613.518.518,0,0,1,.385.189,4.771,4.771,0,0,1,.3.474c.445.623.753,1.325,1.179,1.965,1.327,1.99,2.09,4.289,3.348,6.3a11.669,11.669,0,0,0,1.237,2.008,4.409,4.409,0,0,1,.436.443.786.786,0,0,1,.183.556.311.311,0,1,1-.618-.072c0-.02-.014-.037-.025-.056a.752.752,0,0,0-.085-.111c-.11-.124-.246-.234-.331-.319a12.339,12.339,0,0,1-1.324-2.118c-1.255-2.009-2.015-4.3-3.338-6.288-.423-.634-.727-1.33-1.168-1.948-.049-.068-.1-.177-.162-.283A1.544,1.544,0,0,0,343.065,210.247Z" transform="translate(-307.044 -171.187)" fill="#09450b" fill-rule="evenodd"/>
    <path id="Path_247" data-name="Path 247" d="M337.029,217.075l-.019,0a.311.311,0,0,1-.258-.356.338.338,0,0,1,.239-.294.406.406,0,0,1,.394.106,9.226,9.226,0,0,1,1.059,1.6,40.212,40.212,0,0,1,1.756,3.729,13.71,13.71,0,0,0,1.6,2.64c.876,1.314,1.76,2.616,2.664,3.907a10.735,10.735,0,0,1,1.861,3.019.311.311,0,1,1-.6.151,10.066,10.066,0,0,0-1.767-2.814c-.907-1.3-1.793-2.6-2.672-3.919a14.335,14.335,0,0,1-1.669-2.766,39.57,39.57,0,0,0-1.73-3.669C337.8,218.22,337.21,217.343,337.029,217.075Zm.329-.225v0l0-.006Zm0-.011v0l0-.011Zm0-.01,0-.014S337.365,216.824,337.364,216.829Z" transform="translate(-301.786 -176.413)" fill="#09450b" fill-rule="evenodd"/>
    <path id="Path_248" data-name="Path 248" d="M230.191,126.448l.154-.012a.892.892,0,0,1,.282.012,5.214,5.214,0,0,0,2.069-.11c2.855-.571,4.828-2.156,7.095-3.856,1.981-1.486,3.258-3.511,4.982-5.235,1.132-1.131,2.708-1.957,3.584-3.359a6.945,6.945,0,0,0,.709-1.9,7.612,7.612,0,0,0-.068-3.2,19.843,19.843,0,0,1-.475-3.414,16.7,16.7,0,0,0-1.609-7.023,12.168,12.168,0,0,0-.976-1.42c-.03-.049-.184-.284-.225-.346a.311.311,0,0,1,.133-.592.421.421,0,0,1,.285.125,2.945,2.945,0,0,1,.335.483,12.754,12.754,0,0,1,1.016,1.5,17.3,17.3,0,0,1,1.663,7.276,19.231,19.231,0,0,0,.465,3.3,8.225,8.225,0,0,1,.059,3.457,7.594,7.594,0,0,1-.785,2.081c-.9,1.442-2.508,2.306-3.672,3.47-1.745,1.745-3.043,3.789-5.048,5.293-2.344,1.757-4.394,3.378-7.346,3.969a5.89,5.89,0,0,1-2.342.1.9.9,0,0,0-.232.02.848.848,0,0,1-.344-.028.434.434,0,0,1-.23-.183.473.473,0,0,1-.066-.29.311.311,0,0,1,.586-.122Z" transform="translate(-180.798 -83.511)" fill="#09450b" fill-rule="evenodd"/>
    <path id="Path_249" data-name="Path 249" d="M262.417,54.625c-.085-.128-.227-.3-.258-.341-.294-.367-.664-.654-.968-1.009a20,20,0,0,0-3.342-2.751c-3.15-2.362-6.481-4.337-9.546-6.789a9.744,9.744,0,0,0-2.222-1.411,1.178,1.178,0,0,0-.378-.083.166.166,0,0,0-.123.03.311.311,0,1,1-.44-.44,1.086,1.086,0,0,1,1.151-.093,10.549,10.549,0,0,1,2.4,1.511c3.059,2.447,6.386,4.418,9.53,6.777a20.613,20.613,0,0,1,3.441,2.844c.309.361.684.653.982,1.025a3.939,3.939,0,0,1,.406.6.327.327,0,0,1-.051.314.3.3,0,0,1-.375.1A.311.311,0,0,1,262.417,54.625Zm.293-.314a.283.283,0,0,1,.121.017A.31.31,0,0,0,262.709,54.311Z" transform="translate(-197.565 -41.566)" fill="#09450b" fill-rule="evenodd"/>
    <path id="Path_250" data-name="Path 250" d="M321.716,57.806a.307.307,0,0,1,.021.111.311.311,0,0,1-.311.311.329.329,0,0,1-.317-.278c-.039-.183-.088-1.106-.115-1.244a11.422,11.422,0,0,1,.424-4.827,3.574,3.574,0,0,1,.734-1.44c1.133-1.511,1.828-3.049,3.628-3.949.546-.273,1.128-.459,1.68-.682a3.977,3.977,0,0,0,1.376-.828c.915-.915,1.844-1.887,2.755-2.8a1.692,1.692,0,0,1,.4-.242c.262-.125.72-.334.908-.419a.334.334,0,0,1,.609.113.368.368,0,0,1-.189.372c-.147.094-.563.268-.908.424a1.929,1.929,0,0,0-.379.191c-.911.911-1.84,1.882-2.756,2.8a4.585,4.585,0,0,1-1.583.965c-.537.217-1.1.4-1.635.661-1.7.852-2.335,2.334-3.409,3.766A2.969,2.969,0,0,0,322.027,52a10.849,10.849,0,0,0-.424,4.584C321.629,56.711,321.706,57.674,321.716,57.806Zm-.1-.138a.309.309,0,0,0-.187-.062A.292.292,0,0,1,321.612,57.668Z" transform="translate(-285.331 -41.365)" fill="#09450b" fill-rule="evenodd"/>
    <path id="Path_251" data-name="Path 251" d="M245.938,123.311a.311.311,0,0,1,.55-.288.744.744,0,0,1,.066.44c-.025.23-.131.531-.131.682a12.874,12.874,0,0,1-.52,3.473,16.544,16.544,0,0,1-6.7,9.63,19.544,19.544,0,0,1-2.037,1.3,3.67,3.67,0,0,1-1.611.444.311.311,0,1,1,0-.622A3.048,3.048,0,0,0,236.89,138a18.918,18.918,0,0,0,1.971-1.265,15.928,15.928,0,0,0,6.443-9.276,12.265,12.265,0,0,0,.5-3.31,3.581,3.581,0,0,1,.1-.562A2.533,2.533,0,0,0,245.938,123.311Z" transform="translate(-178.817 -104.246)" fill="#09450b" fill-rule="evenodd"/>
    <path id="Path_252" data-name="Path 252" d="M256.069,87.525a.311.311,0,0,1,.118-.4.3.3,0,0,1,.29-.021.314.314,0,0,1,.176.191,6.01,6.01,0,0,1,.075.8c0,.5.037,1.012,0,1.508a20.642,20.642,0,0,1-.86,4.262.311.311,0,1,1-.6-.179,20.023,20.023,0,0,0,.836-4.131c.037-.48,0-.978,0-1.46C256.107,88.037,256.091,87.682,256.069,87.525Zm.328.176h0Zm.1-.035a.3.3,0,0,1-.1.034A.313.313,0,0,0,256.5,87.667Zm0,0,.013-.008Z" transform="translate(-193.574 -76.635)" fill="#09450b" fill-rule="evenodd"/>
    <path id="Path_253" data-name="Path 253" d="M268.977,99.408a11.038,11.038,0,0,1,2.454-2.552,20.733,20.733,0,0,0,3.217-2.377,9.194,9.194,0,0,0,.978-1.521.311.311,0,0,1,.518.345,9.8,9.8,0,0,1-1.056,1.616,21.375,21.375,0,0,1-3.311,2.455,12.045,12.045,0,0,0-2.637,2.853,3.919,3.919,0,0,0-.547,1.014c-.048.145-.12.441-.12.441a.311.311,0,0,1-.609-.125,7.672,7.672,0,0,1,.181-.81c.16-.48.208-1.007.332-1.5a11.5,11.5,0,0,1,2.136-4.231c2.237-2.8,4.914-5.806,5.964-9.306a19.507,19.507,0,0,0,.5-3.633,12.3,12.3,0,0,0-.125-3.306,4.611,4.611,0,0,1-.024-.564.814.814,0,0,0-.048-.349.311.311,0,1,1,.542-.306,1.226,1.226,0,0,1,.123.518c.012.21-.006.442.02.6a12.939,12.939,0,0,1,.129,3.477,20.1,20.1,0,0,1-.52,3.743C276,89.46,273.283,92.545,271,95.4a10.86,10.86,0,0,0-2.018,3.993Z" transform="translate(-217.365 -69.16)" fill="#09450b" fill-rule="evenodd"/>
    <path id="Path_254" data-name="Path 254" d="M310.282,179.926a2.039,2.039,0,0,0-.359,1.175,11.771,11.771,0,0,1-.163,1.535c-.43,1.722-.346,3.516-1.076,5.219-.12.28-.205.6-.317.9a2.545,2.545,0,0,1-.554.938.311.311,0,1,1-.44-.44,1.927,1.927,0,0,0,.411-.715c.116-.311.2-.636.329-.925.716-1.671.621-3.434,1.044-5.125.121-.485.1-1.167.185-1.771a2.259,2.259,0,0,1,.478-1.206.311.311,0,0,1,.461.417Z" transform="translate(-259.078 -147.866)" fill="#09450b" fill-rule="evenodd"/>
    <path id="Path_255" data-name="Path 255" d="M308.078,74.421a4.991,4.991,0,0,0,.106-.5c.056-.4.095-.853.134-.992.521-1.824.285-3.865.285-5.765,0-3.39.34-6.8,0-10.185-.239-2.389.006-4.794-.586-7.162-.44-1.76-1-3.5-1.522-5.243a12.021,12.021,0,0,0-.764-1.331,1.524,1.524,0,0,1-.224-.624.311.311,0,0,1,.622,0,.464.464,0,0,0,.059.154c.051.108.122.233.2.365a8.443,8.443,0,0,1,.7,1.257c.524,1.748,1.087,3.5,1.53,5.27.6,2.4.359,4.832.6,7.251.34,3.4,0,6.837,0,10.247,0,1.956.228,4.057-.309,5.935-.056.2-.1,1.051-.222,1.442a.63.63,0,0,1-.247.369.311.311,0,0,1-.369-.494Z" transform="translate(-257.685 -42.096)" fill="#09450b" fill-rule="evenodd"/>
    <path id="Path_256" data-name="Path 256" d="M315.429,90.236c0,.006,0,.011,0,.017a.267.267,0,0,1-.007.066.286.286,0,0,1-.111.178.3.3,0,0,1-.245.063.289.289,0,0,1-.253-.246.255.255,0,0,1-.006-.051c0-.011,0-.223,0-.281a6.08,6.08,0,0,1,.045-.759q.138-1.107.3-2.21a15.092,15.092,0,0,0-.581-6.513c-.4-1.195-.519-2.49-1.009-3.667-.95-2.279-2.156-4.437-3.255-6.636-.536-1.071-1.285-2.089-1.9-3.158a7.249,7.249,0,0,1-1.143-3.636.311.311,0,1,1,.622,0,6.638,6.638,0,0,0,1.06,3.326c.621,1.08,1.376,2.109,1.917,3.19,1.106,2.212,2.318,4.383,3.273,6.675.5,1.191.622,2.5,1.025,3.709a15.755,15.755,0,0,1,.606,6.8q-.157,1.1-.3,2.2a5.421,5.421,0,0,0-.04.682Zm-.449-.265a.311.311,0,0,0-.173.274C314.81,90.033,314.884,89.967,314.981,89.971Z" transform="translate(-264.61 -58.128)" fill="#09450b" fill-rule="evenodd"/>
    <path id="Path_257" data-name="Path 257" d="M317.99,91.642c.037-.26.073-.632.085-.722a16.818,16.818,0,0,0,.125-2.081c0-2.237-.782-3.719-1.588-5.735a67.626,67.626,0,0,0-4.219-8.861c-1-1.721-2.332-3.222-3.231-5.02a3.835,3.835,0,0,1-.343-1.475,4.158,4.158,0,0,0-.219-1.262.311.311,0,0,1,.577-.231,4.768,4.768,0,0,1,.261,1.443,3.236,3.236,0,0,0,.279,1.246c.893,1.786,2.215,3.275,3.212,4.985a68.241,68.241,0,0,1,4.259,8.943c.838,2.1,1.633,3.64,1.633,5.965a17.475,17.475,0,0,1-.13,2.158c-.014.115-.07.666-.116.915a.678.678,0,0,1-.085.243.294.294,0,0,1-.35.119.3.3,0,0,1-.192-.165.634.634,0,0,1-.048-.231A.31.31,0,0,1,317.99,91.642Z" transform="translate(-267.833 -60.418)" fill="#09450b" fill-rule="evenodd"/>
    <path id="Path_258" data-name="Path 258" d="M322.871,106.511a1.165,1.165,0,0,0,.061-.606c-.027-.473-.139-1-.168-1.266a15.025,15.025,0,0,0-1.5-4.993c-1.91-4.2-5.619-7.246-8.279-10.97-1.267-1.774-2.761-3.323-3.313-5.531a.311.311,0,0,1,.6-.151c.532,2.13,1.993,3.61,3.215,5.321,2.683,3.756,6.412,6.834,8.339,11.074a15.583,15.583,0,0,1,1.552,5.181,12.246,12.246,0,0,1,.178,1.554,1.441,1.441,0,0,1-.158.712.311.311,0,0,1-.531-.324Z" transform="translate(-272.818 -73.301)" fill="#09450b" fill-rule="evenodd"/>
    <path id="Path_259" data-name="Path 259" d="M308.5,178.331c-.073.554-.311,1.132-.386,1.726a10.929,10.929,0,0,1-1.017,4.276.311.311,0,0,1-.533-.32,10.294,10.294,0,0,0,.933-4.033c.074-.6.313-1.175.386-1.73a.311.311,0,1,1,.616.081Z" transform="translate(-257.041 -146.765)" fill="#09450b" fill-rule="evenodd"/>
    <path id="Path_260" data-name="Path 260" d="M312.79,180.847a.309.309,0,0,1,.11.237,16.082,16.082,0,0,1-.86,4.325c-.131.458-.289.906-.425,1.36a5.918,5.918,0,0,1-.274.642.311.311,0,0,1-.587-.174s.087-.739.177-1.1a19.538,19.538,0,0,0,.756-2.167c.264-2.115.883-4.552.63-6.624a.311.311,0,0,1,.617-.075A14.031,14.031,0,0,1,312.79,180.847Z" transform="translate(-262.505 -146.009)" fill="#09450b" fill-rule="evenodd"/>
    <path id="Path_261" data-name="Path 261" d="M332.761,162.844a.779.779,0,0,0,.188.41c.212.3.513.594.671.784.311.373.459.823.763,1.187.832,1,1.9,1.938,2.821,2.862a.311.311,0,0,1-.44.44c-.937-.937-2.016-1.891-2.859-2.9-.3-.364-.452-.814-.763-1.187-.166-.2-.48-.508-.7-.824a1.4,1.4,0,0,1-.3-.785.311.311,0,1,1,.621.016Z" transform="translate(-291.691 -134.841)" fill="#09450b" fill-rule="evenodd"/>
    <path id="Path_262" data-name="Path 262" d="M328.261,185.287a.311.311,0,0,1-.287.524.408.408,0,0,1-.3-.3,1.317,1.317,0,0,1-.035-.42,2.807,2.807,0,0,0,.019-.383,6.119,6.119,0,0,0-.754-2.339c-1.714-2.4-3.954-4.587-5.521-7.1-.451-.722-.7-1.514-1.074-2.273a.311.311,0,0,1,.556-.278c.37.741.6,1.516,1.045,2.221,1.561,2.5,3.794,4.674,5.5,7.063a6.769,6.769,0,0,1,.857,2.578,2.3,2.3,0,0,1,0,.447C328.256,185.115,328.259,185.228,328.261,185.287Z" transform="translate(-280.037 -142.581)" fill="#09450b" fill-rule="evenodd"/>
    <path id="Path_263" data-name="Path 263" d="M330.45,191.5a11.489,11.489,0,0,0-3.812-5.9c-1.553-1.381-3.12-2.26-3.979-4.264a.311.311,0,0,1,.572-.245c.819,1.912,2.339,2.727,3.821,4.044a12.128,12.128,0,0,1,4.008,6.239.311.311,0,1,1-.609.124Z" transform="translate(-283.289 -149.022)" fill="#09450b" fill-rule="evenodd"/>
    <path id="Path_264" data-name="Path 264" d="M331.466,198.908a5.352,5.352,0,0,0-2.348-2.779c-1.067-.69-2.286-1.227-3.4-2.024-1.445-1.032-2.325-2.53-3.557-3.764a.311.311,0,1,1,.44-.44c1.209,1.209,2.063,2.685,3.479,3.7,1.108.791,2.32,1.323,3.379,2.008a5.943,5.943,0,0,1,2.6,3.093.311.311,0,1,1-.586.208Z" transform="translate(-284.164 -155.893)" fill="#09450b" fill-rule="evenodd"/>
    <path id="Path_265" data-name="Path 265" d="M321.065,196.308a.311.311,0,0,1,.185-.561.375.375,0,0,1,.295.141.614.614,0,0,1,.106.2c.031.09.047.2.064.257a4.351,4.351,0,0,0,.753,1.091,26.236,26.236,0,0,0,3.393,3.265,6.129,6.129,0,0,0,2.317,1.372,15.3,15.3,0,0,1,2.435.547,2.194,2.194,0,0,1,1.324,1.072.311.311,0,0,1-.572.244,1.584,1.584,0,0,0-.972-.734,14.624,14.624,0,0,0-2.337-.519,6.838,6.838,0,0,1-2.6-1.51,26.87,26.87,0,0,1-3.474-3.348,5.042,5.042,0,0,1-.858-1.283C321.111,196.5,321.08,196.372,321.065,196.308Z" transform="translate(-283.798 -160.473)" fill="#09450b" fill-rule="evenodd"/>
    <path id="Path_266" data-name="Path 266" d="M399.045,96.716c-.116-.163-1-1.4-1.052-1.508a9.528,9.528,0,0,0-2.783-2.618c-3.43-2.573-7.851-5.105-12.468-4.182-.8.159-1.579.286-2.373.484a2.488,2.488,0,0,0-.787.425,3.878,3.878,0,0,1-.944.543,4.884,4.884,0,0,1-1.969.1,5.385,5.385,0,0,0-1.757.008c-1.8.451-3.506.57-5.177,1.572a9.05,9.05,0,0,0-2.951,2.99,15.581,15.581,0,0,1-.653,1.641,7.811,7.811,0,0,1-1.5,1.938,4.589,4.589,0,0,0-1.941,1.78,1.939,1.939,0,0,1-1.105.887,2.409,2.409,0,0,1-.4.065.31.31,0,0,1-.262.051.374.374,0,0,1-.255-.172.3.3,0,0,1,.006-.322.324.324,0,0,1,.194-.143c.074-.021.384-.023.522-.069a1.289,1.289,0,0,0,.746-.575,5.134,5.134,0,0,1,2.152-2.02,7.045,7.045,0,0,0,1.327-1.765,2.761,2.761,0,0,0,.3-.7,5.934,5.934,0,0,1,.317-.87A9.8,9.8,0,0,1,369.417,91c1.727-1.036,3.483-1.177,5.346-1.643a6.01,6.01,0,0,1,1.964-.024,4.267,4.267,0,0,0,1.715-.067,3.249,3.249,0,0,0,.784-.462,3.109,3.109,0,0,1,.993-.518c.8-.2,1.6-.329,2.4-.49,4.794-.959,9.4,1.623,12.962,4.294a10.2,10.2,0,0,1,2.966,2.838c.055.11.934,1.279,1.057,1.512a.347.347,0,0,1,.021.315.291.291,0,0,1-.285.182A.311.311,0,0,1,399.045,96.716Zm.28-.4a.311.311,0,0,0-.231.124A.276.276,0,0,1,399.325,96.318Z" transform="translate(-360.56 -77.031)" fill="#09450b" fill-rule="evenodd"/>
    <path id="Path_267" data-name="Path 267" d="M351.511,143.549v.669a.173.173,0,0,1,0,.022c-.015.321-.162.386-.31.338-.147.048-.294-.017-.309-.338a.179.179,0,0,1,0-.022v-.669a3.18,3.18,0,0,1,.374-1.211c.533-1.065,1.163-2.083,1.705-3.167a20.787,20.787,0,0,0,.568-2.3,7.644,7.644,0,0,1,.935-1.723,7.034,7.034,0,0,0,.868-1.589,8,8,0,0,0-.14-5.437,7.3,7.3,0,0,0-1.149-2.429,2.1,2.1,0,0,1-.253-.39c-.087-.161-.22-.394-.255-.455a.311.311,0,0,1,.174-.561.435.435,0,0,1,.343.214c.082.121.2.356.309.55a1.225,1.225,0,0,0,.121.2,7.955,7.955,0,0,1,1.287,2.638,8.634,8.634,0,0,1,.152,5.865,7.666,7.666,0,0,1-.939,1.735,7.015,7.015,0,0,0-.864,1.578,21.469,21.469,0,0,1-.6,2.379c-.542,1.083-1.173,2.1-1.705,3.167A2.466,2.466,0,0,0,351.511,143.549Z" transform="translate(-315.047 -105.343)" fill="#09450b" fill-rule="evenodd"/>
    <path id="Path_268" data-name="Path 268" d="M394.943,96.439a.311.311,0,0,1,.059.583.33.33,0,0,1-.256.015.738.738,0,0,1-.124-.072.311.311,0,0,1,.064-.615A.574.574,0,0,1,394.943,96.439Z" transform="translate(-363.795 -83.787)" fill="#09450b" fill-rule="evenodd"/>
    <path id="Path_269" data-name="Path 269" d="M355.063,99.93l.111.093.061.052a12.286,12.286,0,0,0,1.034.779,6.3,6.3,0,0,1,1.294,1.388c.041.054.09.122.142.194a5.572,5.572,0,0,1,.361.511.311.311,0,0,1,.028.266,17.377,17.377,0,0,1,2.048,4.33c.6,1.793,0,3.747-.536,5.36a1.048,1.048,0,0,1-.3.423,2.393,2.393,0,0,0-.365.333,8.306,8.306,0,0,0-1.035,1.777,19.372,19.372,0,0,1-.7,2.477c-.511,1.022-1.244,2-1.754,3.02-.168.336-.322.689-.472.993l.043.326a.309.309,0,0,1,.072.2.351.351,0,0,1-.244.379.3.3,0,0,1-.3-.082.368.368,0,0,1-.078-.116,1.476,1.476,0,0,1-.075-.281,2.164,2.164,0,0,1-.039-.445.584.584,0,0,1,.052-.228c.155-.31.313-.675.487-1.023.51-1.02,1.243-2,1.754-3.02a18.688,18.688,0,0,0,.665-2.4,8.974,8.974,0,0,1,1.108-1.925,2.177,2.177,0,0,1,.4-.389.588.588,0,0,0,.2-.218c.5-1.5,1.09-3.3.536-4.967a14.972,14.972,0,0,0-3.521-6.073,30.3,30.3,0,0,0-3.749-2.869c-.5-.3-.979-.708-1.489-.963a5.682,5.682,0,0,1-.689-.474.311.311,0,0,1-.073-.4c-.191-.095-.5-.239-.579-.275a.311.311,0,0,1-.287-.281.294.294,0,0,1,.138-.291.321.321,0,0,1,.252-.046,7.059,7.059,0,0,1,.965.452c.511.341,1.065.6,1.559.926A33.082,33.082,0,0,1,355.063,99.93Zm-5.278-3.568a.28.28,0,0,1-.087.227A.31.31,0,0,0,349.785,96.361Z" transform="translate(-318.677 -83.561)" fill="#09450b" fill-rule="evenodd"/>
    <path id="Path_270" data-name="Path 270" d="M400.89,91.593a2.7,2.7,0,0,0-.339-.2c-.346-.157-.782-.3-.97-.366-1.6-.6-3.462-1.539-5.2-1.539-.7,0-1.452-.195-2.192-.195-.077,0-.313.01-.479.018a.311.311,0,0,1-.391.1.408.408,0,0,1-.233-.253.319.319,0,0,1,.051-.285.456.456,0,0,1,.278-.16,5.226,5.226,0,0,1,.773-.037c.74,0,1.488.195,2.192.195,1.81,0,3.754.954,5.419,1.579a10.579,10.579,0,0,1,1.194.472,1.045,1.045,0,0,1,.451.391.311.311,0,0,1-.554.283Z" transform="translate(-369.334 -77.864)" fill="#09450b" fill-rule="evenodd"/>
    <path id="Path_271" data-name="Path 271" d="M352.808,122.988a.311.311,0,0,1-.277-.3.318.318,0,0,1,.105-.255.324.324,0,0,1,.344-.067.936.936,0,0,1,.274.183,1.576,1.576,0,0,1,.3.361,1.578,1.578,0,0,0,.261.321,3.835,3.835,0,0,1,.4.473,12.332,12.332,0,0,1,1.157,3.046.311.311,0,1,1-.59.2,11.729,11.729,0,0,0-1.084-2.9,4.314,4.314,0,0,0-.416-.477,1.8,1.8,0,0,1-.285-.384A1.151,1.151,0,0,0,352.808,122.988Zm.344-.285a.275.275,0,0,1-.017.079A.32.32,0,0,0,353.152,122.7Zm0-.009v0Z" transform="translate(-314.446 -103.84)" fill="#09450b" fill-rule="evenodd"/>
    <path id="Path_272" data-name="Path 272" d="M375.807,128.825a9.592,9.592,0,0,1-2.973-3.919,5.377,5.377,0,0,1-.361-3.265.537.537,0,0,0-.008-.215c-.021-.122-.053-.247-.074-.37a1.038,1.038,0,0,1,.058-.647,25.87,25.87,0,0,0,1.584-5.052,34.131,34.131,0,0,0,.529-4.055c.271-2.169.062-4.64-1.616-6.318a.311.311,0,0,1,.44-.44c1.818,1.818,2.087,4.485,1.794,6.835a34.749,34.749,0,0,1-.543,4.129A26.535,26.535,0,0,1,373,120.687a.3.3,0,0,0-.015.165,3.073,3.073,0,0,0,.062.335,1.389,1.389,0,0,1,.025.605,4.753,4.753,0,0,0,.335,2.882,8.932,8.932,0,0,0,2.764,3.649.311.311,0,0,1-.368.5Z" transform="translate(-339.886 -90.038)" fill="#09450b" fill-rule="evenodd"/>
    <path id="Path_273" data-name="Path 273" d="M390.472,116.46a1.573,1.573,0,0,0-.276-.658c-.263-.43-.627-.87-.833-1.144a10.528,10.528,0,0,1-1.566-4.023,9.349,9.349,0,0,1,.116-3.63c.221-1.152.533-2.294.659-3.431a14.241,14.241,0,0,0-1.064-6.826,7.771,7.771,0,0,0-2.648-3.452.311.311,0,1,1,.345-.517,8.394,8.394,0,0,1,2.874,3.723,14.9,14.9,0,0,1,1.111,7.141c-.128,1.154-.443,2.312-.666,3.48a8.738,8.738,0,0,0-.117,3.391,9.865,9.865,0,0,0,1.454,3.772c.214.286.592.745.866,1.193a2.2,2.2,0,0,1,.366.958.311.311,0,1,1-.621.025Z" transform="translate(-357.503 -80.99)" fill="#09450b" fill-rule="evenodd"/>
    <path id="Path_274" data-name="Path 274" d="M403.345,119.952a1.042,1.042,0,0,0-.261-.419c-.255-.3-.589-.61-.752-.805a16.045,16.045,0,0,1-2.093-3.828c-1.913-4.463-3-9.2-6.744-12.607a18.2,18.2,0,0,0-4.984-2.918,15.223,15.223,0,0,0-3.15-1.343.311.311,0,1,1,.122-.61,15.821,15.821,0,0,1,3.281,1.385,18.831,18.831,0,0,1,5.149,3.026c3.817,3.47,4.949,8.278,6.9,12.823a15.384,15.384,0,0,0,2,3.675c.162.2.5.5.751.8a1.664,1.664,0,0,1,.4.725.311.311,0,1,1-.615.093Z" transform="translate(-370.462 -84.609)" fill="#09450b" fill-rule="evenodd"/>
    <path id="Path_275" data-name="Path 275" d="M396.242,151.2a.4.4,0,0,0-.09-.127,2.562,2.562,0,0,0-.257-.246c-.337-.289-.766-.587-.958-.779-1.113-1.113-2.2-2.246-3.313-3.361a93.507,93.507,0,0,1-7.771-8.9.311.311,0,1,1,.491-.382,92.944,92.944,0,0,0,7.72,8.837c1.115,1.115,2.2,2.248,3.313,3.361.218.218.754.576,1.092.9a1.321,1.321,0,0,1,.371.523.311.311,0,0,1-.6.171Z" transform="translate(-363.048 -115.371)" fill="#09450b" fill-rule="evenodd"/>
    <path id="Path_276" data-name="Path 276" d="M373.971,184.115c.205.281.422.549.6.812a2.263,2.263,0,0,1,.115.262,2.1,2.1,0,0,1,.193.331.557.557,0,0,1,.047.2.311.311,0,0,1,.075.572s-.053.028-.134.065a.289.289,0,0,1-.162.069c-.058.023-.121.046-.181.063a.306.306,0,0,1-.029.1.311.311,0,0,1-.392.157s-.082-.032-.185-.08a.311.311,0,0,1-.337-.2.625.625,0,0,1-.122-.133.385.385,0,0,1-.058-.286.375.375,0,0,1,.107-.2.387.387,0,0,1,.047-.04l0-.012,0-.023.006-.021c0-.063,0-.127-.008-.19-.055-.094-.131-.228-.151-.265a.3.3,0,0,1-.037-.1.291.291,0,0,1,.061-.243.333.333,0,0,1,.023-.027.96.96,0,0,1-.187-.464.3.3,0,0,1,.06-.183l-.056-.083a25.306,25.306,0,0,1-2.379-3.3.311.311,0,1,1,.57-.248,11.259,11.259,0,0,0,1.686,2.353l-.018-.076a3.982,3.982,0,0,0-.85-1.418,4.541,4.541,0,0,1-.953-1.6,10.146,10.146,0,0,1-.253-2.658.311.311,0,0,1,.622,0,9.565,9.565,0,0,0,.234,2.507,3.921,3.921,0,0,0,.837,1.367,4.607,4.607,0,0,1,.966,1.654A13.244,13.244,0,0,1,373.971,184.115Z" transform="translate(-338.401 -145.968)" fill="#09450b" fill-rule="evenodd"/>
    <path id="Path_277" data-name="Path 277" d="M383.594,168.105a5.069,5.069,0,0,1,.056.706.4.4,0,0,0,.037.121c.033.088.073.179.1.258a.61.61,0,0,1,.028.337.362.362,0,0,1-.115.184c.065.159.136.318.205.478a3.882,3.882,0,0,1,.38,1.319.311.311,0,1,1-.621.031,3.26,3.26,0,0,0-.329-1.1,5.69,5.69,0,0,1-.448-1.281,10.464,10.464,0,0,1-.072-2,4.8,4.8,0,0,1,.184-1.747,4.238,4.238,0,0,1,.283-.86.456.456,0,0,1,.332-.254l.031,0a2.129,2.129,0,0,0,.017-.259.311.311,0,1,1,.622,0,10.426,10.426,0,0,1-.5,2.17,5.673,5.673,0,0,0-.186,1.435C383.6,167.686,383.6,167.87,383.594,168.105Z" transform="translate(-350.256 -135.768)" fill="#09450b" fill-rule="evenodd"/>
    <path id="Path_278" data-name="Path 278" d="M386.36,144l.185.185a1.364,1.364,0,0,1,.246.375,2.719,2.719,0,0,0,.221.438,5.948,5.948,0,0,0,2.083,1.711c.618.309,1.149.835,1.726,1.181,1.772,1.063,3.685,1.89,5.533,2.814a35.78,35.78,0,0,0,10.289,2.846c1.641.273,3.352.035,5.005.242,1.889.236,3.857.208,5.529,1.211.262.157.6.306.892.5a1.879,1.879,0,0,1,.569.548.311.311,0,1,1-.526.331,1.47,1.47,0,0,0-.519-.443c-.251-.148-.52-.271-.736-.4-1.6-.958-3.482-.9-5.286-1.127-1.662-.208-3.381.029-5.03-.245a36.4,36.4,0,0,1-10.465-2.9c-1.862-.931-3.789-1.766-5.575-2.837-.564-.338-1.08-.856-1.684-1.158a6.578,6.578,0,0,1-2.3-1.894,2.536,2.536,0,0,1-.248-.463.974.974,0,0,0-.162-.283c-.054-.054-.174-.173-.2-.2a.28.28,0,0,1-.071-.113.311.311,0,0,1,.292-.416A.31.31,0,0,1,386.36,144Z" transform="translate(-385.346 -120.47)" fill="#09450b" fill-rule="evenodd"/>
    <path id="Path_279" data-name="Path 279" d="M394.357,187.934a.939.939,0,0,0-.306-.26,3.711,3.711,0,0,0-.726-.339,11.866,11.866,0,0,0-3.945-.812.311.311,0,0,1,0-.622,12.456,12.456,0,0,1,4.142.844,4.4,4.4,0,0,1,.859.4,1.575,1.575,0,0,1,.509.466.311.311,0,1,1-.533.321Z" transform="translate(-362.336 -152.877)" fill="#09450b" fill-rule="evenodd"/>
    <path id="Path_280" data-name="Path 280" d="M431.764,179.185a2.324,2.324,0,0,0-.238-.064,6.843,6.843,0,0,0-.946-.1,30.175,30.175,0,0,1-4.039-.3c-1.55-.221-3.4.125-4.9-.25a45.738,45.738,0,0,0-6.289-.626c-1.049-.1-2.329-.088-3.516-.255a6.056,6.056,0,0,1-2.264-.713.311.311,0,0,1,.32-.533,6.281,6.281,0,0,0,2.615.7c1,.1,2.036.1,2.908.185a46.342,46.342,0,0,1,6.377.641c1.482.37,3.31.019,4.84.238a29.544,29.544,0,0,0,3.951.289,6.293,6.293,0,0,1,1.372.188.53.53,0,0,1,.346.3.311.311,0,0,1-.534.3Z" transform="translate(-404.365 -145.474)" fill="#09450b" fill-rule="evenodd"/>
    <path id="Path_281" data-name="Path 281" d="M462.8,182.814c-2.016-.383-4.214.246-6.28.039a33.527,33.527,0,0,1-6-1.033.311.311,0,0,1,.171-.6,32.919,32.919,0,0,0,5.889,1.013c2.084.208,4.3-.417,6.334-.031a.311.311,0,0,1-.116.611Z" transform="translate(-444.563 -149.257)" fill="#09450b" fill-rule="evenodd"/>
    <path id="Path_282" data-name="Path 282" d="M457.5,186.358a8.626,8.626,0,0,0-4.722.419,27.906,27.906,0,0,1-4.86,1.33,12.482,12.482,0,0,1-2.8.146,3.172,3.172,0,0,1-.708-.208,1.514,1.514,0,0,0-.52-.13.311.311,0,1,1,0-.622,2.126,2.126,0,0,1,.739.17,2.561,2.561,0,0,0,.566.173,11.837,11.837,0,0,0,2.655-.147,27.241,27.241,0,0,0,4.746-1.307,9.238,9.238,0,0,1,5.059-.427.311.311,0,0,1-.154.6Z" transform="translate(-437.747 -152.612)" fill="#09450b" fill-rule="evenodd"/>
    <path id="Path_283" data-name="Path 283" d="M446.068,187.059c-.047,0-.15-.015-.226-.015a4.541,4.541,0,0,0-.489.024c-.945.158-1.933.061-2.881.2a18.87,18.87,0,0,0-5.9,2.26,18.973,18.973,0,0,1-2.671.8,7.647,7.647,0,0,1-2.5.4,1.6,1.6,0,0,1-1.03-.381.311.311,0,0,1,.44-.44,1.336,1.336,0,0,0,.962.2,7.743,7.743,0,0,0,1.935-.377,18.349,18.349,0,0,0,2.59-.762,19.463,19.463,0,0,1,6.087-2.319c.943-.135,1.926-.037,2.867-.194a4.494,4.494,0,0,1,.944-.008.438.438,0,0,1,.337.236.311.311,0,0,1-.464.375ZM446,187a.276.276,0,0,1-.046-.077A.31.31,0,0,0,446,187Z" transform="translate(-423.374 -153.281)" fill="#09450b" fill-rule="evenodd"/>
    <path id="Path_284" data-name="Path 284" d="M455.178,101.5a.3.3,0,0,1-.076.046.311.311,0,0,1-.408-.164.362.362,0,0,1-.013-.27.351.351,0,0,1,.192-.209.659.659,0,0,1,.324-.036,2.54,2.54,0,0,1,.464.107,17.24,17.24,0,0,0,2.2.669,14.684,14.684,0,0,1,5.526,3.03.311.311,0,1,1-.388.486,14.068,14.068,0,0,0-5.289-2.913,17.9,17.9,0,0,1-2.281-.7C455.415,101.546,455.276,101.519,455.178,101.5Zm.1-.344h0Z" transform="translate(-445.894 -87.268)" fill="#09450b" fill-rule="evenodd"/>
    <path id="Path_285" data-name="Path 285" d="M486.036,144.081l.084.138a1.134,1.134,0,0,1,.135.288c.112.448.236.948.383,1.39a17.456,17.456,0,0,0,2.877,4.978,25.776,25.776,0,0,1,2.27,4.091c.543,1.087.588,2.393,1.121,3.459a1.924,1.924,0,0,0,.766.777c.354.219.739.388,1.077.614a6.216,6.216,0,0,0,.6.381.725.725,0,0,0,.3.1.311.311,0,0,1,0,.622,1.351,1.351,0,0,1-.589-.172,6.869,6.869,0,0,1-.655-.416c-.332-.221-.712-.387-1.059-.6a2.53,2.53,0,0,1-.995-1.028c-.533-1.065-.577-2.372-1.121-3.459a25.16,25.16,0,0,0-2.212-4,18.061,18.061,0,0,1-2.969-5.155c-.152-.457-.281-.973-.4-1.436a2.051,2.051,0,0,0-.2-.336.586.586,0,0,1-.088-.312.339.339,0,0,1,.1-.221.358.358,0,0,1,.281-.1.311.311,0,0,1,.3.324A.306.306,0,0,1,486.036,144.081Zm-.3.229h0Zm.01,0h0Zm.012,0h0Z" transform="translate(-485.364 -120.309)" fill="#09450b" fill-rule="evenodd"/>
    <path id="Path_286" data-name="Path 286" d="M401.667,210.242a8.811,8.811,0,0,1-.442,1.078,13.711,13.711,0,0,0-.651,1.391,2.214,2.214,0,0,1-.7.887c-.429.286-.969.782-1.511,1.177a3.635,3.635,0,0,1-1.168.619,20.678,20.678,0,0,1-4.9.3c-4.407,0-8.4-1.733-12.679-2.588-1.044-.209-2.017-.772-3.035-1.026-.12-.03-.59-.3-.843-.363a.311.311,0,0,1-.309-.513.438.438,0,0,1,.423-.1c.25.056.754.341.879.372,1.009.252,1.972.813,3.006,1.02,4.235.847,8.191,2.576,12.557,2.576a20.044,20.044,0,0,0,4.747-.283,3.01,3.01,0,0,0,.953-.518c.549-.4,1.1-.9,1.532-1.192a1.969,1.969,0,0,0,.6-.877,8.607,8.607,0,0,1,.584-1.229,10.443,10.443,0,0,0,.41-1.031.3.3,0,0,1,.241-.18.313.313,0,0,1,.357.312A.307.307,0,0,1,401.667,210.242Zm-25.794,1.4.009-.01Zm25.222-1.55a.307.307,0,0,0,.036.13A.28.28,0,0,1,401.095,210.091Z" transform="translate(-365.983 -171.284)" fill="#09450b" fill-rule="evenodd"/>
    <path id="Path_287" data-name="Path 287" d="M375.911,205.162l.095.124a.752.752,0,0,1,.161.388.311.311,0,0,1-.619.061.212.212,0,0,0-.066-.111c-.032-.04-.063-.078-.089-.117a.567.567,0,0,1-.1-.32.311.311,0,0,1,.621-.025Z" transform="translate(-340.422 -167.517)" fill="#09450b" fill-rule="evenodd"/>
    <path id="Path_288" data-name="Path 288" d="M377.547,203.668c-.054-.056-.074-.124-.13-.18a.311.311,0,1,1,.44-.44c.057.057.078.127.134.183a.311.311,0,0,1-.443.436Z" transform="translate(-342.798 -166.036)" fill="#09450b" fill-rule="evenodd"/>
    <path id="Path_289" data-name="Path 289" d="M377.677,202.405a.834.834,0,0,1,.168.049,1.514,1.514,0,0,1,.9,1.269.311.311,0,0,1-.338.31.3.3,0,0,1-.2-.1c-.053-.054-.319-.351-.37-.428l-.1-.145c.013.111.028.224.043.318a2.083,2.083,0,0,1,.029.655,6.784,6.784,0,0,1-1.033,2.506,26.774,26.774,0,0,1-2.02,2.218,3.474,3.474,0,0,1-.857.509,1.048,1.048,0,0,1-.374.1.333.333,0,0,1-.2-.073.312.312,0,0,1-.118-.208.375.375,0,0,1,.131-.326.311.311,0,0,1,.334-.069,2.576,2.576,0,0,0,.64-.369,26.2,26.2,0,0,0,1.975-2.167,6.121,6.121,0,0,0,.915-2.268.955.955,0,0,0-.02-.268c-.034-.253-.093-.562-.116-.8a1.515,1.515,0,0,1,0-.317.311.311,0,0,1,.272-.514A.869.869,0,0,1,377.677,202.405Z" transform="translate(-342.529 -165.516)" fill="#09450b" fill-rule="evenodd"/>
    <path id="Path_290" data-name="Path 290" d="M387.862,205.88a3.39,3.39,0,0,0-.816.128,7.051,7.051,0,0,0-3.9,3.479,4.145,4.145,0,0,1-1.432,1.307,6.034,6.034,0,0,1-2.781.89.311.311,0,1,1,0-.622,5.367,5.367,0,0,0,2.462-.8,3.512,3.512,0,0,0,1.217-1.093,7.655,7.655,0,0,1,4.188-3.731,4.426,4.426,0,0,1,1.245-.181.3.3,0,0,1,.216.113.291.291,0,0,1,.05.312.366.366,0,0,1-.324.21A.308.308,0,0,1,387.862,205.88Z" transform="translate(-353.353 -167.807)" fill="#09450b" fill-rule="evenodd"/>
    <path id="Path_291" data-name="Path 291" d="M398.255,196.626c-.049-.019-.362-.138-.429-.172a3.5,3.5,0,0,0-2.723-.168,9.8,9.8,0,0,0-3.993,2.029c-1.254.966-2.425,2.08-3.627,2.981a8.1,8.1,0,0,1-3.146,1.225,4.947,4.947,0,0,1-1.03.107.371.371,0,0,1-.364-.363.311.311,0,0,1,.485-.258c.152-.017.714-.081.788-.1a7.433,7.433,0,0,0,2.895-1.113c1.2-.9,2.369-2.012,3.621-2.976a10.414,10.414,0,0,1,4.25-2.146,4.01,4.01,0,0,1,3.123.222c.076.038.334.118.457.185a.465.465,0,0,1,.178.162.311.311,0,0,1-.484.381Zm-14.692,5.625s0,.01,0,.015Zm0-.011v0Zm0-.013v0Z" transform="translate(-364.784 -160.26)" fill="#09450b" fill-rule="evenodd"/>
    <path id="Path_292" data-name="Path 292" d="M411.865,194.8c-.085-.011-1.079-.135-1.2-.135-1.442,0-2.741-.352-4.189.13-1.613.538-2.811,1.57-4.405,2.279a29.521,29.521,0,0,1-8.718,1.828,13.446,13.446,0,0,1-3.485,0,9.5,9.5,0,0,1-1.115-.191.515.515,0,0,1-.258-.166.325.325,0,0,1-.063-.194.311.311,0,0,1,.518-.231c.039.011.112.031.172.043.3.061.729.109.834.125a12.873,12.873,0,0,0,3.335,0,28.872,28.872,0,0,0,8.527-1.777c1.613-.717,2.829-1.756,4.461-2.3,1.516-.505,2.875-.162,4.385-.162.139,0,1.129.11,1.32.146a.345.345,0,0,1,.216.118.292.292,0,0,1,.045.314A.311.311,0,0,1,411.865,194.8Zm-22.87,3.369a.256.256,0,0,1,.057.164A.31.31,0,0,0,388.995,198.17Zm22.707-3.489a.288.288,0,0,1-.032-.295A.31.31,0,0,0,411.7,194.681Z" transform="translate(-379.529 -159.072)" fill="#09450b" fill-rule="evenodd"/>
  </g>
</svg>
