<svg xmlns="http://www.w3.org/2000/svg" width="227.181" height="117.721" viewBox="0 0 227.181 117.721">
  <g id="Group_5" data-name="Group 5" transform="translate(-9.18 63.063) rotate(-60)">
    <path id="Path_144" data-name="Path 144" d="M.7.428c.136.216.2.536.348.761A9.571,9.571,0,0,1,1.8,3.537,31.186,31.186,0,0,0,3.7,7.2a19.275,19.275,0,0,0,1.466,3,8.356,8.356,0,0,1,.962,1.857A7.746,7.746,0,0,0,7.021,13.8a15.093,15.093,0,0,1,2.147,4.658,23.879,23.879,0,0,0,1.423,2.891c.753,1.883,1.449,3.853,2.382,5.72a14.483,14.483,0,0,1,1.584,3.677,3.84,3.84,0,0,0,.582,1.33,1.506,1.506,0,0,0,.565.56.311.311,0,0,1-.239.574,2.136,2.136,0,0,1-.84-.785,4.526,4.526,0,0,1-.681-1.577,13.836,13.836,0,0,0-1.527-3.5c-.941-1.883-1.644-3.868-2.4-5.767a24.508,24.508,0,0,1-1.449-2.972,14.366,14.366,0,0,0-2.041-4.436A8.376,8.376,0,0,1,5.554,12.3a7.729,7.729,0,0,0-.885-1.722,19.9,19.9,0,0,1-1.525-3.1,31.847,31.847,0,0,1-1.931-3.75c-.125-.374-.2-.788-.295-1.193A3.088,3.088,0,0,0,.531,1.534a2.3,2.3,0,0,1-.215-.457A1.644,1.644,0,0,0,.172.756a1.632,1.632,0,0,1-.084-.2A.309.309,0,0,1,0,.344.308.308,0,0,1,.223.016.3.3,0,0,1,.491.054.333.333,0,0,1,.6.168C.62.209.689.4.7.428ZM.621.356V.344S.622.352.621.356Z" transform="translate(84.433 181.161)" fill="#09450b" fill-rule="evenodd"/>
    <path id="Path_145" data-name="Path 145" d="M3.285,1.089a.307.307,0,0,1,.13-.126.311.311,0,0,1,.356.052,3.489,3.489,0,0,1,.386.447,1.161,1.161,0,0,1,.179.361,1.882,1.882,0,0,0,.127.339,3.106,3.106,0,0,1,.471.736.617.617,0,0,1,.03.14c.068.115.132.228.186.336.043.087.1.208.146.327l.011.008a.32.32,0,0,1,.118.267l0,.04.04.1a.311.311,0,0,1-.066.325,2.314,2.314,0,0,1-.041.359.36.36,0,0,1-.052.1.344.344,0,0,1-.091.146.442.442,0,0,1-.4.1,4.872,4.872,0,0,1-.912-.4A13.756,13.756,0,0,1,.884,2.118,4.1,4.1,0,0,1,.072,1.049.655.655,0,0,1,.166.3,1.3,1.3,0,0,1,1.522.093,6.268,6.268,0,0,1,3.285,1.089ZM.623.725a.508.508,0,0,1,.386-.1,2.1,2.1,0,0,1,.72.218A8.333,8.333,0,0,1,3.522,2.083c.071.132.151.266.233.4.012.041.027.086.045.134.093.254.256.619.316.74a8.033,8.033,0,0,1,.292.755.311.311,0,0,0-.273.064A13.441,13.441,0,0,1,1.324,1.678,4.094,4.094,0,0,1,.711.943.916.916,0,0,1,.64.795.459.459,0,0,1,.623.725Z" transform="translate(94.887 209.819)" fill="#09450b" fill-rule="evenodd"/>
    <path id="Path_146" data-name="Path 146" d="M13.957,30.033c-.131-.2-.488-.618-.548-.693a11.6,11.6,0,0,1-1.232-2.029c-1.049-2.1-2.249-4.189-3.178-6.358-1.06-2.474-2.41-4.859-3.413-7.365-1.079-2.7-1.94-5.493-3.22-8.053A27.135,27.135,0,0,0,1.009,2.577,9.962,9.962,0,0,1,.268,1.271,2.568,2.568,0,0,1,0,.311a.311.311,0,0,1,.622,0,1.934,1.934,0,0,0,.212.7,9.256,9.256,0,0,0,.693,1.218,27.772,27.772,0,0,1,1.4,3.025c1.287,2.575,2.155,5.386,3.241,8.1,1,2.5,2.349,4.882,3.407,7.351.925,2.158,2.12,4.239,3.163,6.325a10.937,10.937,0,0,0,1.161,1.919c.061.076.409.49.563.712a.836.836,0,0,1,.113.213.311.311,0,0,1-.059.3.3.3,0,0,1-.276.115A.311.311,0,0,1,13.957,30.033Zm.254-.36-.008,0h.008Zm0,0a.3.3,0,0,1,.077,0A.307.307,0,0,0,14.213,29.673Z" transform="translate(82.459 180.118)" fill="#09450b" fill-rule="evenodd"/>
    <path id="Path_147" data-name="Path 147" d="M13.842,31.468c-.066-.16-.285-.686-.306-.747-.2-.592-.441-1.222-.6-1.877a23.789,23.789,0,0,0-2.25-5.32c-.735-1.471-2.215-3.191-3.159-4.765C5.563,15.493,4.612,11.743,2.9,8.328A27.2,27.2,0,0,1,.966,2.94C.81,2.315.517,1.775.315,1.168.277,1.054.188.772.12.6A.31.31,0,0,1,0,.352.316.316,0,0,1,.252.009.309.309,0,0,1,.584.138,6.6,6.6,0,0,1,.9.971c.207.622.5,1.177.665,1.818A26.557,26.557,0,0,0,3.46,8.05c1.7,3.4,2.644,7.137,4.6,10.388.952,1.587,2.441,3.324,3.182,4.807a24.355,24.355,0,0,1,2.3,5.448c.16.64.4,1.253.592,1.832.022.066.235.52.311.749a.641.641,0,0,1,.039.266.32.32,0,0,1-.635-.071Zm.223-.266a.272.272,0,0,1,.224.02A.31.31,0,0,0,14.064,31.2Z" transform="translate(80.963 179.658)" fill="#09450b" fill-rule="evenodd"/>
    <path id="Path_148" data-name="Path 148" d="M6.651,17.4c-.9-1.792-1.339-3.935-2.251-5.759A50.272,50.272,0,0,1,1.751,5.2C1.473,4.362.907,3.323.5,2.321A5.648,5.648,0,0,1,0,.311a.311.311,0,1,1,.622,0,5.021,5.021,0,0,0,.454,1.776C1.488,3.1,2.06,4.155,2.341,5a49.641,49.641,0,0,0,2.615,6.36c.912,1.824,1.35,3.966,2.251,5.758a.311.311,0,1,1-.556.279Z" transform="translate(74.562 163.367)" fill="#09450b" fill-rule="evenodd"/>
    <path id="Path_149" data-name="Path 149" d="M.635.344C.687.46.836.8.86.871c.2.589.429,1.1.652,1.658a32.4,32.4,0,0,1,1.811,5.2A51.335,51.335,0,0,0,7.484,19.017c.657,1.314,1.929,3.013,2.257,4.393a.311.311,0,1,1-.605.143c-.318-1.34-1.57-2.983-2.208-4.259A52.043,52.043,0,0,1,2.713,7.85,31.706,31.706,0,0,0,.935,2.76C.708,2.191.471,1.668.271,1.067.242.982.085.677.031.513A.521.521,0,0,1,.005.267.32.32,0,0,1,.138.06.318.318,0,0,1,.326,0,.31.31,0,0,1,.635.344ZM.47.586A.283.283,0,0,1,.343.622.311.311,0,0,0,.47.586Z" transform="translate(73.589 157.205)" fill="#09450b" fill-rule="evenodd"/>
    <path id="Path_150" data-name="Path 150" d="M.644.579a6.187,6.187,0,0,0,.215.9A22.508,22.508,0,0,1,1.41,4.332c.7,2.805,1.641,5.637,2.566,8.412,1.065,3.193,1.9,6.65,3.221,9.727,1.168,2.725,2.425,5.478,3.359,8.28a41.359,41.359,0,0,0,2.256,5.284c.145.289.508.811.684,1.237a1.163,1.163,0,0,1,.106.645A.311.311,0,1,1,13,37.788a.312.312,0,0,0-.022-.138,1.933,1.933,0,0,0-.126-.306c-.187-.376-.468-.788-.59-1.031a41.968,41.968,0,0,1-2.29-5.365c-.929-2.786-2.18-5.523-3.341-8.232-1.325-3.093-2.17-6.566-3.24-9.776C2.456,10.151,1.512,7.3.807,4.483A21.914,21.914,0,0,0,.281,1.711,7.286,7.286,0,0,1,.009.523.822.822,0,0,1,.014.243.3.3,0,0,1,.311,0,.391.391,0,0,1,.669.26.311.311,0,0,1,.644.579Z" transform="translate(71.551 143.895)" fill="#09450b" fill-rule="evenodd"/>
    <path id="Path_151" data-name="Path 151" d="M.524.074a5.36,5.36,0,0,1,.83.56,25.213,25.213,0,0,1,1.781,2.1A39.071,39.071,0,0,1,7.644,9.5a169.085,169.085,0,0,1,7.469,16.007c.623,1.662,1.254,3.348,1.915,5a20.514,20.514,0,0,1,.99,2.217.311.311,0,0,1-.612.11,19.723,19.723,0,0,0-.956-2.1c-.662-1.656-1.295-3.346-1.92-5.013A168.485,168.485,0,0,0,7.087,9.781,38.442,38.442,0,0,0,2.649,3.126,24.594,24.594,0,0,0,.915,1.074,4.732,4.732,0,0,0,.178.592a.372.372,0,0,1-.1-.075A.289.289,0,0,1,.022.207.288.288,0,0,1,.29,0,.315.315,0,0,1,.475.044.32.32,0,0,1,.524.074Z" transform="translate(56.531 125.4)" fill="#09450b" fill-rule="evenodd"/>
    <path id="Path_152" data-name="Path 152" d="M11.9,17.466l-.311.32H11.57a.31.31,0,0,1-.229-.118.277.277,0,0,1-.064-.148v0s-.005-.041-.015-.1a.31.31,0,0,1-.038-.2,1.164,1.164,0,0,0-.077-.242,11.042,11.042,0,0,1-.5-1.425c-.464-1.393-1.295-2.623-1.858-4.03A14.9,14.9,0,0,0,6.136,7.467,30.723,30.723,0,0,1,3.063,3.521,8.148,8.148,0,0,0,.193.6.311.311,0,1,1,.429.023,8.918,8.918,0,0,1,3.6,3.2,30.143,30.143,0,0,0,6.61,7.065a15.508,15.508,0,0,1,2.76,4.222c.568,1.419,1.4,2.66,1.87,4.065A10.4,10.4,0,0,0,11.7,16.7a2.372,2.372,0,0,1,.149.51c0,.013.009.027.013.04A1.163,1.163,0,0,1,11.9,17.466Z" transform="translate(57.052 125.715)" fill="#09450b" fill-rule="evenodd"/>
    <path id="Path_153" data-name="Path 153" d="M.474.046A2.779,2.779,0,0,1,1.2.758c.287.384.543.832.815,1.159,1.145,1.374,2.265,2.7,3.316,4.172a61.377,61.377,0,0,1,8.19,15.846,21.774,21.774,0,0,0,1.356,3.932,6.6,6.6,0,0,1,.786,1.919c.473,2.84,1.982,5.634,2.658,8.337.093.371.255,1.1.466,1.723a2.447,2.447,0,0,0,.411.849.311.311,0,0,1-.44.44,2.381,2.381,0,0,1-.444-.771,17.622,17.622,0,0,1-.6-2.09c-.68-2.718-2.192-5.53-2.668-8.385a5.859,5.859,0,0,0-.706-1.7,22.441,22.441,0,0,1-1.413-4.056A60.739,60.739,0,0,0,4.822,6.451C3.78,4.992,2.67,3.678,1.535,2.315c-.234-.281-.459-.649-.7-.994A2.6,2.6,0,0,0,.148.576.311.311,0,0,1,.474.046Z" transform="translate(56.424 126.534)" fill="#09450b" fill-rule="evenodd"/>
    <path id="Path_154" data-name="Path 154" d="M3.283.621c-.2.338-.588,1.216-.739,1.442A12.8,12.8,0,0,0,.989,5.96c-1.009,4.034.249,8.2,1.225,12.1a29.784,29.784,0,0,0,1.425,3.794c.135.336.376.763.547,1.178a2.5,2.5,0,0,1,.221.907.317.317,0,0,1-.552.231.458.458,0,0,1-.079-.133,1.913,1.913,0,0,1-.1-.408A.308.308,0,0,1,3.7,23.49c-.025-.073-.053-.147-.084-.222-.172-.418-.414-.846-.549-1.185a30.362,30.362,0,0,1-1.451-3.874c-1-4-2.258-8.266-1.225-12.4A13.452,13.452,0,0,1,2.027,1.718c.145-.218.515-1.046.712-1.4A.762.762,0,0,1,2.98.039.3.3,0,0,1,3.332.08a.326.326,0,0,1,.116.266A.31.31,0,0,1,3.283.621ZM2.827.364v0Z" transform="translate(70.505 134.322)" fill="#09450b" fill-rule="evenodd"/>
    <path id="Path_155" data-name="Path 155" d="M1.064.567C.989.826.766,1.6.715,1.812A4.67,4.67,0,0,0,.67,3.439,17.265,17.265,0,0,1,.83,5.2a3.1,3.1,0,0,0,.114.77,1.335,1.335,0,0,0,.081.186.311.311,0,0,1-.2.586A.674.674,0,0,1,.41,6.318a3.565,3.565,0,0,1-.2-1.12A16.62,16.62,0,0,0,.051,3.5a5.288,5.288,0,0,1,.06-1.842C.18,1.388.431.427.522.224a.355.355,0,0,1,.212-.2.288.288,0,0,1,.353.117A.35.35,0,0,1,1.15.352.31.31,0,0,1,1.064.567ZM.528.364s0-.008,0-.011Z" transform="translate(71.206 138.63)" fill="#09450b" fill-rule="evenodd"/>
    <path id="Path_156" data-name="Path 156" d="M.626,16.9a.314.314,0,0,1-.3.389.305.305,0,0,1-.194-.058A.319.319,0,0,1,0,16.982a3.2,3.2,0,0,1,.079-.6,6.16,6.16,0,0,1,.256-.966A21.345,21.345,0,0,0,1.277,12.8C2.01,10.6,2.824,8.417,3.4,6.111c.161-.644.56-1.149.689-1.8A13.445,13.445,0,0,1,4.7,1.467a.9.9,0,0,0,.019-.406A1.136,1.136,0,0,1,4.787.61L4.782.389A.314.314,0,0,1,4.776.328.293.293,0,0,1,4.929.044.3.3,0,0,1,5.134,0a.3.3,0,0,1,.19.105A.3.3,0,0,1,5.4.282a2.845,2.845,0,0,1,.008.393A.472.472,0,0,1,5.365.84a.307.307,0,0,0-.022.13c0,.088,0,.18.006.271a1.076,1.076,0,0,1-.09.5A12.715,12.715,0,0,0,4.7,4.437c-.131.657-.532,1.172-.7,1.825C3.423,8.584,2.605,10.78,1.867,13a22.05,22.05,0,0,1-.975,2.7,5.541,5.541,0,0,0-.2.809C.661,16.649.637,16.82.626,16.9ZM.5,16.717a.3.3,0,0,1,.066.061l.005.007A.25.25,0,0,0,.5,16.717Zm-.215-.052a.307.307,0,0,0-.143.056A.282.282,0,0,1,.286,16.664Z" transform="translate(71.697 122.144)" fill="#09450b" fill-rule="evenodd"/>
    <path id="Path_157" data-name="Path 157" d="M6.381.449A1.371,1.371,0,0,0,6.395.6c.039.218.123.469.147.591a7.581,7.581,0,0,1-.107,2.572,37.888,37.888,0,0,1-2.359,6.658c-.275.688-.424,1.49-.756,2.154a25.116,25.116,0,0,0-1.84,4.783,8.287,8.287,0,0,1-.609,1.5c-.032.063-.184.407-.235.521a.294.294,0,0,1,0,.032.311.311,0,0,1-.311.311.317.317,0,0,1-.2-.069A.322.322,0,0,1,0,19.443.559.559,0,0,1,.034,19.2a6.109,6.109,0,0,1,.28-.62,7.6,7.6,0,0,0,.562-1.374A25.793,25.793,0,0,1,2.764,12.3c.325-.649.466-1.435.735-2.107A37.3,37.3,0,0,0,5.826,3.642a6.864,6.864,0,0,0,.106-2.328A7.136,7.136,0,0,1,5.764.581.687.687,0,0,1,5.846.136a.311.311,0,0,1,.535.313ZM.343,19.1a.277.277,0,0,1,.148.047A.307.307,0,0,0,.343,19.1Z" transform="translate(69.642 120.687)" fill="#09450b" fill-rule="evenodd"/>
    <path id="Path_158" data-name="Path 158" d="M.053.609.03.465A.307.307,0,0,1,0,.332.313.313,0,0,1,.05.147.289.289,0,0,1,.361,0,.3.3,0,0,1,.6.19,2.634,2.634,0,0,1,.675.6a3.409,3.409,0,0,0,.154.631c.142.71.166,1.478.269,2.2A63.194,63.194,0,0,0,2.317,9.843c.984,3.935,1.7,8.32,3.339,12.149.613,1.431,1.024,2.987,1.6,4.427.113.282.337.627.5.953a1.78,1.78,0,0,1,.218.75.311.311,0,1,1-.622-.007,1.159,1.159,0,0,0-.154-.469c-.166-.339-.4-.7-.515-1C6.1,25.214,5.7,23.663,5.084,22.237,3.431,18.378,2.705,13.96,1.714,9.994A63.764,63.764,0,0,1,.483,3.518C.381,2.807.359,2.051.219,1.352A4.271,4.271,0,0,1,.053.609ZM.62.365A.266.266,0,0,1,.608.424.29.29,0,0,0,.62.365Zm0-.009v0Z" transform="translate(62.147 111.915)" fill="#09450b" fill-rule="evenodd"/>
    <path id="Path_159" data-name="Path 159" d="M7.51,27.749c-.025-.045-.046-.081-.055-.095a11.167,11.167,0,0,1-.669-1.761,27.138,27.138,0,0,1-1.667-4.635c-.341-1.7-1.363-3.3-1.7-5.006-.652-3.262-1.74-6.5-2.292-9.809A21.7,21.7,0,0,0,.4,2.407,11.391,11.391,0,0,1,.063.929C.051.881.032.638.019.48A.309.309,0,0,1,0,.374.343.343,0,0,1,.179.033a.293.293,0,0,1,.3.017A.29.29,0,0,1,.617.243C.626.281.65.715.666.778a10.709,10.709,0,0,0,.307,1.4,22.389,22.389,0,0,1,.764,4.165c.551,3.3,1.637,6.534,2.288,9.789.341,1.706,1.363,3.3,1.7,5.006a26.505,26.505,0,0,0,1.635,4.526,10.46,10.46,0,0,0,.609,1.647,2.99,2.99,0,0,1,.312.6.383.383,0,0,1-.085.378.328.328,0,0,1-.232.1.341.341,0,0,1-.206-.063.511.511,0,0,1-.149-.18,1.045,1.045,0,0,1-.1-.359A.334.334,0,0,1,7.51,27.749Z" transform="translate(62.094 111.181)" fill="#09450b" fill-rule="evenodd"/>
    <path id="Path_160" data-name="Path 160" d="M8.417,32.89a.941.941,0,0,0,0-.1,2.28,2.28,0,0,0-.05-.306,16.973,16.973,0,0,0-.523-1.661c-.737-2.211-1.439-4.425-2.081-6.67-1.355-4.742-3.035-9.522-4-14.35C1.54,8.679.938,7.613.75,6.487A40.079,40.079,0,0,1,0,.311a.311.311,0,1,1,.622,0,39.438,39.438,0,0,0,.741,6.073c.187,1.12.787,2.179,1.01,3.292.962,4.812,2.638,9.576,3.988,14.3C7,26.214,7.7,28.419,8.435,30.622a17.7,17.7,0,0,1,.541,1.724A1.52,1.52,0,0,1,9,33.115a.311.311,0,0,1-.58-.225Z" transform="translate(59.964 109.913)" fill="#09450b" fill-rule="evenodd"/>
    <path id="Path_161" data-name="Path 161" d="M.608,30.608A.311.311,0,0,1,0,30.515a.45.45,0,0,1,.1-.28,1.054,1.054,0,0,1,.425-.285c.454-.188,1.242-.319,1.453-.425A11.942,11.942,0,0,0,4.8,27.341c2.517-2.517,4.58-4.979,5.67-8.25A12.626,12.626,0,0,1,11.891,16.4a12.031,12.031,0,0,0,1.366-2.567C13.969,11.7,14.8,9.6,15.442,7.34c.231-.807.157-1.666.322-2.493a8.572,8.572,0,0,0-.219-3c-.016-.077-.239-.933-.319-1.239A.311.311,0,0,1,15.1.289.34.34,0,0,1,15.315.02a.348.348,0,0,1,.438.2,11.718,11.718,0,0,1,.4,1.507,9.261,9.261,0,0,1,.219,3.241c-.169.843-.1,1.718-.334,2.541-.648,2.27-1.478,4.381-2.193,6.524a12.654,12.654,0,0,1-1.431,2.7,12,12,0,0,0-1.359,2.549c-1.121,3.364-3.231,5.9-5.82,8.493a12.593,12.593,0,0,1-2.981,2.3c-.19.1-.823.217-1.3.373A2.627,2.627,0,0,0,.608,30.608ZM15.7.446v0l0-.005Zm0-.01,0-.014Z" transform="translate(95.33 90.991)" fill="#09450b" fill-rule="evenodd"/>
    <path id="Path_162" data-name="Path 162" d="M.12,1.348a1.257,1.257,0,0,1,.589-.2,4.729,4.729,0,0,1,1.4.065,15.6,15.6,0,0,0,3.426.21c2.3,0,4.838.384,7.124.058,1.146-.164,2.346-.262,3.485-.489A11,11,0,0,0,17.806.429,5.248,5.248,0,0,1,19.6,0a.311.311,0,1,1,0,.622,4.621,4.621,0,0,0-1.575.389,11.592,11.592,0,0,1-1.757.59c-1.15.23-2.361.33-3.519.5-2.314.331-4.885-.052-7.212-.052a16.28,16.28,0,0,1-3.577-.228,4.022,4.022,0,0,0-1-.067.96.96,0,0,0-.46.09A.311.311,0,0,1,.12,1.348Z" transform="translate(76.75 120.977)" fill="#09450b" fill-rule="evenodd"/>
    <path id="Path_163" data-name="Path 163" d="M24.586.633c-.216.1-1.647.738-1.856.807A13.683,13.683,0,0,1,18.473,2a19.118,19.118,0,0,1-3.4.1,19.293,19.293,0,0,0-7.538-.274,12.365,12.365,0,0,0-1.97.914A9.9,9.9,0,0,0,1.95,4.976C1.817,5.109.76,6.137.568,6.349a.31.31,0,0,1-.26.141.287.287,0,0,1-.292-.2A.351.351,0,0,1,.1,5.935c.189-.209,1.271-1.263,1.407-1.4A10.481,10.481,0,0,1,5.336,2.17a12.993,12.993,0,0,1,2.079-.946A19.917,19.917,0,0,1,15.2,1.5a18.456,18.456,0,0,0,3.276-.115A13.055,13.055,0,0,0,22.533.85C22.768.772,24.205.065,24.5.01A.322.322,0,0,1,24.916.3a.311.311,0,0,1-.286.334A.277.277,0,0,1,24.586.633Zm-24,5.405a.311.311,0,0,0-.277-.17A.281.281,0,0,1,.585,6.038ZM24.3.363a.309.309,0,0,0,.076.167A.281.281,0,0,1,24.3.363Z" transform="translate(76.948 116.805)" fill="#09450b" fill-rule="evenodd"/>
    <path id="Path_164" data-name="Path 164" d="M.895,7.547a.31.31,0,0,1-.138.279.48.48,0,0,0-.1.112c-.049.078-.082.128-.082.128a.311.311,0,0,1-.524-.334l0-.006h0s.337-.515.475-.79c.167-.334.3-.761.5-1.133A2.112,2.112,0,0,1,1.6,5.075c.882-.661,1.633-1.455,2.455-2.155A7.33,7.33,0,0,1,7.075,1.246a48.963,48.963,0,0,1,6-1.21c1.56-.2,3.434.459,4.959.713,1.338.223,2.707.214,4.049.438A4.473,4.473,0,0,0,23.64,1.1,6.668,6.668,0,0,1,25.312.916a.311.311,0,0,1-.047.62,6.041,6.041,0,0,0-1.512.171,5.093,5.093,0,0,1-1.771.093c-1.342-.224-2.711-.215-4.049-.438-1.471-.245-3.275-.9-4.78-.71a48.442,48.442,0,0,0-5.927,1.2A6.726,6.726,0,0,0,4.46,3.392C3.628,4.1,2.867,4.9,1.975,5.572a1.753,1.753,0,0,0-.486.693c-.149.323-.268.668-.408.948C1.035,7.307.966,7.427.895,7.547Z" transform="translate(76.562 115.417)" fill="#09450b" fill-rule="evenodd"/>
    <path id="Path_165" data-name="Path 165" d="M.012,21.691C.791,18.932,2.556,16.216,3.2,13c.472-2.359-.484-4.825-1.194-6.954C1.387,4.188,1.139,2.241.528.409a.311.311,0,0,1,.59-.2c.61,1.832.858,3.779,1.477,5.636.741,2.225,1.707,4.807,1.214,7.272-.647,3.234-2.416,5.966-3.2,8.74a.311.311,0,1,1-.6-.169Z" transform="translate(76.214 101.389)" fill="#09450b" fill-rule="evenodd"/>
    <path id="Path_166" data-name="Path 166" d="M3.01,21.731a65.5,65.5,0,0,0-.217-8.737C2.343,9.841,1.112,6.746.66,3.583A23.609,23.609,0,0,1,0,.311a.311.311,0,0,1,.622,0A23.013,23.013,0,0,0,1.275,3.5c.452,3.163,1.684,6.258,2.134,9.411a66.158,66.158,0,0,1,.223,8.818.311.311,0,0,1-.622.007Z" transform="translate(72.842 102.155)" fill="#09450b" fill-rule="evenodd"/>
    <path id="Path_167" data-name="Path 167" d="M2.287.893c-.122.217-.268.467-.376.629a7.106,7.106,0,0,0-.887,2.146,17.265,17.265,0,0,0,0,7.414C1.782,14.862,3.86,18.361,5.8,21.6c.911,1.518,1.887,2.9,2.693,4.508a11.161,11.161,0,0,1,.644,1.449,2.414,2.414,0,0,1,.143,1.089.311.311,0,0,1-.614-.1,1.785,1.785,0,0,0-.12-.794,10.485,10.485,0,0,0-.609-1.365c-.8-1.6-1.767-2.962-2.67-4.466-1.979-3.3-4.084-6.866-4.853-10.714a17.9,17.9,0,0,1,0-7.687,7.745,7.745,0,0,1,.973-2.341C1.61.853,1.98.164,1.98.164a.311.311,0,0,1,.585.147V.584A.311.311,0,0,1,2.287.893Z" transform="translate(66.904 92.744)" fill="#09450b" fill-rule="evenodd"/>
    <path id="Path_168" data-name="Path 168" d="M.956.351a29.38,29.38,0,0,0,.1,9.443,15.212,15.212,0,0,0,1.822,4.442c.763,1.272,1.041,2.956,1.708,4.289.821,1.641,1.965,3.387,2.272,5.231A10.984,10.984,0,0,1,7.18,25a.828.828,0,0,1-.194.673.311.311,0,0,1-.44-.44c.024-.024.017-.064.017-.107a1.14,1.14,0,0,0-.025-.225c-.075-.384-.262-.82-.3-1.039-.3-1.784-1.421-3.467-2.215-5.055-.66-1.319-.93-2.989-1.685-4.247a15.881,15.881,0,0,1-1.9-4.64A30,30,0,0,1,.339.271.311.311,0,1,1,.956.351Z" transform="translate(68.959 91.68)" fill="#09450b" fill-rule="evenodd"/>
    <path id="Path_169" data-name="Path 169" d="M2.867,8.093a.311.311,0,0,1-.039.139s-.258.462-.377.7l-.766,1.532a7.086,7.086,0,0,1-.4.73.394.394,0,0,1-.085.074q-.055.133-.108.267A9.267,9.267,0,0,0,.724,12.7c-.047.188-.1.572-.1.572A.311.311,0,0,1,0,13.235a5.966,5.966,0,0,1,.125-1.478A9.3,9.3,0,0,1,1.493,9.09c.059-.074.126-.164.2-.263q.309-.55.664-1.083a5.656,5.656,0,0,1,1.936-1.6,9.5,9.5,0,0,0,1.933-1.3C7.27,3.8,8.042,2.614,8.931,1.688A4.774,4.774,0,0,1,12.57,0a.311.311,0,0,1,0,.622,4.191,4.191,0,0,0-3.19,1.5c-.892.929-1.667,2.121-2.719,3.172A10.12,10.12,0,0,1,4.6,6.685a5.041,5.041,0,0,0-1.732,1.4Z" transform="translate(67.422 82.621)" fill="#09450b" fill-rule="evenodd"/>
    <path id="Path_170" data-name="Path 170" d="M.752.795A.308.308,0,0,1,.678.64.964.964,0,0,1,.7.312.472.472,0,0,1,.825.1.35.35,0,0,1,1.064,0a.385.385,0,0,1,.292.127.437.437,0,0,1,.1.344,4.107,4.107,0,0,1-.2.757A8.439,8.439,0,0,0,.787,3.181a14.618,14.618,0,0,0,.374,6.163.311.311,0,0,1-.6.171A15.229,15.229,0,0,1,.172,3.093,9.069,9.069,0,0,1,.683,1C.694.972.722.891.752.795Z" transform="translate(73.548 86.525)" fill="#09450b" fill-rule="evenodd"/>
    <path id="Path_171" data-name="Path 171" d="M.713.235A8.939,8.939,0,0,1,.681,2.282c0,2.273-.392,4.45.679,6.591A.311.311,0,1,1,.8,9.151C-.313,6.918.06,4.652.06,2.282A8.275,8.275,0,0,0,.11.387a.311.311,0,0,1,.6-.152Z" transform="translate(70.21 89.897)" fill="#09450b" fill-rule="evenodd"/>
    <path id="Path_172" data-name="Path 172" d="M2.732,18.738a24.607,24.607,0,0,1,.521-2.967A8.06,8.06,0,0,0,3.4,12.837c-.27-1.622-1.443-3.294-2.16-4.727C.063,5.764,0,2.912,0,.311a.311.311,0,1,1,.622,0c0,2.507.04,5.259,1.171,7.521.742,1.484,1.938,3.224,2.217,4.9a8.665,8.665,0,0,1-.146,3.156,23.987,23.987,0,0,0-.511,2.891.311.311,0,0,1-.62-.044Z" transform="translate(77.055 94.44)" fill="#09450b" fill-rule="evenodd"/>
    <path id="Path_173" data-name="Path 173" d="M.492,17.756a4.16,4.16,0,0,0,.114-.479c.223-1.339.456-2.717.713-4,.845-4.228.769-8.679,1.309-13a.311.311,0,1,1,.617.077c-.542,4.336-.468,8.8-1.317,13.045-.256,1.281-.487,2.652-.709,3.984A6.4,6.4,0,0,1,.7,18.944a1.426,1.426,0,0,0-.078.384A.311.311,0,0,1,0,19.3a4.713,4.713,0,0,1,.088-.89A1.456,1.456,0,0,1,.3,17.875.309.309,0,0,1,.492,17.756Z" transform="translate(79.572 94.823)" fill="#09450b" fill-rule="evenodd"/>
    <path id="Path_174" data-name="Path 174" d="M.049,15.427a1.717,1.717,0,0,1,.041-.939c.069-.249.169-.494.215-.724.157-.784.227-1.519.383-2.3C1.444,7.686,1.879,3.51,4.127.138a.311.311,0,1,1,.517.345c-2.2,3.3-2.605,7.4-3.346,11.105-.156.779-.226,1.514-.383,2.3-.049.244-.152.5-.226.769a1.1,1.1,0,0,0-.042.6.311.311,0,1,1-.6.17Z" transform="translate(81.023 92.634)" fill="#09450b" fill-rule="evenodd"/>
    <path id="Path_175" data-name="Path 175" d="M.152,5.449c.009-.034.019-.065.028-.093.151-.453.2-.921.389-1.385A14.406,14.406,0,0,1,2.585.117.311.311,0,1,1,3.07.505,13.8,13.8,0,0,0,1.147,4.2c-.181.452-.23.91-.377,1.351a6.711,6.711,0,0,0-.153.669A.311.311,0,0,1,0,6.135s.036-.365.076-.544A.309.309,0,0,1,.152,5.449Z" transform="translate(80.447 104.672)" fill="#09450b" fill-rule="evenodd"/>
    <path id="Path_176" data-name="Path 176" d="M30.041.686c-.106.127-.235.31-.339.44a1.181,1.181,0,0,1-.216.22,4.736,4.736,0,0,0-.946.929A6.731,6.731,0,0,1,27.475,3.36a65.062,65.062,0,0,1-6.544,4.508c-2.8,1.6-5.913,2.3-8.77,3.729-2.749,1.375-5.318,3.159-7.967,4.749a8.876,8.876,0,0,0-2.418,2.2,7.846,7.846,0,0,1-1.29,1.71.311.311,0,0,1-.351-.513,2.122,2.122,0,0,0,.432-.484c.258-.358.511-.787.692-1.059a9.624,9.624,0,0,1,2.616-2.392c2.663-1.6,5.246-3.39,8.009-4.772,2.847-1.423,5.953-2.12,8.739-3.712A64.48,64.48,0,0,0,27.1,2.862a6.1,6.1,0,0,0,.962-.989A5.4,5.4,0,0,1,29.131.834c.015-.019.215-.268.335-.423a1.6,1.6,0,0,1,.35-.36A.327.327,0,0,1,30.2.076a.356.356,0,0,1,.132.3A.311.311,0,0,1,30.041.686Z" transform="translate(80.553 90.655)" fill="#09450b" fill-rule="evenodd"/>
    <path id="Path_177" data-name="Path 177" d="M28.059.74a.3.3,0,0,1-.08.042c-.15.079-.313.166-.424.233a3.452,3.452,0,0,1-1.089.357,2.416,2.416,0,0,0-.868.292c-1.412.941-4.041,1.318-5.715,1.527a74.284,74.284,0,0,1-7.79.255,20.792,20.792,0,0,0-7.453,1.2A8.615,8.615,0,0,0,1.461,6.385c-.17.169-.408.313-.605.483a.522.522,0,0,0-.234.391A.311.311,0,1,1,0,7.26,1.114,1.114,0,0,1,.45,6.4c.186-.16.412-.292.571-.452A9.209,9.209,0,0,1,4.409,4.071a21.41,21.41,0,0,1,7.672-1.247,73.643,73.643,0,0,0,7.725-.25c1.594-.2,4.1-.531,5.447-1.428A3.039,3.039,0,0,1,26.339.763a2.834,2.834,0,0,0,.9-.281c.127-.076.319-.179.487-.267a2.152,2.152,0,0,1,.393-.2.311.311,0,0,1,.24.572S28.224.655,28.059.74Z" transform="translate(80.994 103.249)" fill="#09450b" fill-rule="evenodd"/>
    <path id="Path_178" data-name="Path 178" d="M16.278,4.361v0a1.252,1.252,0,0,1,.36-.382,2.81,2.81,0,0,0,.61-.5,1.529,1.529,0,0,1,.669-.379,1.851,1.851,0,0,1,1.037.092c3.579,1.193,7.413,1.736,10.835,3.691A10.7,10.7,0,0,1,32.1,8.468a.527.527,0,0,0,.129.073,2.753,2.753,0,0,1,.273.144.5.5,0,0,1,.24.339.311.311,0,0,1-.586.181c-.044-.024-.156-.083-.225-.118a1.077,1.077,0,0,1-.271-.179,10.077,10.077,0,0,0-2.178-1.482C26.1,5.491,22.3,4.965,18.76,3.784A1.33,1.33,0,0,0,18.1,3.7a1.171,1.171,0,0,0-.578.381,2.536,2.536,0,0,1-.582.443c-.017.021-.135.173-.21.285a2.39,2.39,0,0,1-.4.5.43.43,0,0,1-.281.094.365.365,0,0,1-.249-.111.579.579,0,0,1-.153-.387,2.69,2.69,0,0,1,.016-.34.623.623,0,0,0,0-.183c-.073-.294-.119-.625-.206-.942a1.561,1.561,0,0,0-.369-.719,1.669,1.669,0,0,0-1.233-.47,5.634,5.634,0,0,1-1.655-.166,4.237,4.237,0,0,1-1.13-.692,2.872,2.872,0,0,0-.981-.56,1.7,1.7,0,0,0-.575,0,2.65,2.65,0,0,1-.779,0A21.843,21.843,0,0,0,4.468.627,14.843,14.843,0,0,0,1.574.894C1.4.93.586,1.109.456,1.137a.311.311,0,0,1-.366-.054A.318.318,0,0,1,.222.558C.372.5,1.242.327,1.452.285A15.478,15.478,0,0,1,4.468.005,22.459,22.459,0,0,1,8.851.23,2.026,2.026,0,0,0,9.444.218a2.313,2.313,0,0,1,.789.015A3.492,3.492,0,0,1,11.439.9a3.61,3.61,0,0,0,.952.6,5.026,5.026,0,0,0,1.482.135,2.246,2.246,0,0,1,1.648.652,2.176,2.176,0,0,1,.529,1c.088.321.135.657.209.955A.725.725,0,0,1,16.278,4.361ZM.541.656A.28.28,0,0,1,.615.92.311.311,0,0,0,.541.656Z" transform="translate(78.588 82.288)" fill="#09450b" fill-rule="evenodd"/>
    <path id="Path_179" data-name="Path 179" d="M3.141.32a1.892,1.892,0,0,1-.223.728,8.9,8.9,0,0,0-.451.911,42.662,42.662,0,0,0-1.85,5.27.311.311,0,1,1-.61-.122,43.2,43.2,0,0,1,1.87-5.345,6.312,6.312,0,0,1,.4-.833A1.657,1.657,0,0,0,2.519.3.311.311,0,0,1,3.141.32Z" transform="translate(85.973 82.658)" fill="#09450b" fill-rule="evenodd"/>
    <path id="Path_180" data-name="Path 180" d="M3.847.3a1.023,1.023,0,0,1-.14.48c-.154.291-.434.641-.554.852A17.929,17.929,0,0,0,1.915,4.158,16.847,16.847,0,0,0,.784,7.914a19.746,19.746,0,0,1-.172,2.558.311.311,0,0,1-.6-.151A19.1,19.1,0,0,0,.166,7.845a17.516,17.516,0,0,1,1.167-3.9,18.563,18.563,0,0,1,1.28-2.617c.1-.181.324-.463.481-.723A1.555,1.555,0,0,0,3.2.4.212.212,0,0,0,3.226.322.311.311,0,1,1,3.847.3Z" transform="translate(83.456 82.276)" fill="#09450b" fill-rule="evenodd"/>
    <path id="Path_181" data-name="Path 181" d="M2.845.381a3.469,3.469,0,0,1-.578,1.138,6.292,6.292,0,0,0-.607.962A9.987,9.987,0,0,0,.7,7.947a.311.311,0,0,1-.616.088A10.607,10.607,0,0,1,1.092,2.228a6.962,6.962,0,0,1,.664-1.063A2.846,2.846,0,0,0,2.239.241a.311.311,0,1,1,.606.14Z" transform="translate(77.084 82.875)" fill="#09450b" fill-rule="evenodd"/>
    <path id="Path_182" data-name="Path 182" d="M7.474.2a1.639,1.639,0,0,1-.081,1.057,13.267,13.267,0,0,1-1.18,2.225C4.616,6.144,2.969,8.925.505,10.9a.311.311,0,1,1-.388-.486c2.406-1.925,4-4.649,5.563-7.249a15.966,15.966,0,0,0,1-1.785A3.232,3.232,0,0,0,6.886.769.644.644,0,0,0,6.893.423.311.311,0,0,1,7.474.2Z" transform="translate(86.685 89.897)" fill="#09450b" fill-rule="evenodd"/>
    <path id="Path_183" data-name="Path 183" d="M35.311,7.058a3.2,3.2,0,0,0-.17-.477,10.666,10.666,0,0,0-1.4-2.1,3.088,3.088,0,0,1-.388-.593,2.22,2.22,0,0,0-.154-.243.3.3,0,0,0-.089-.091,8.518,8.518,0,0,1-1.172-.8,3.208,3.208,0,0,0-1.062-.595C28.149,1.47,25.352.236,22.36.735A28.034,28.034,0,0,0,17,1.649c-2.111.792-4.909,2.013-6.317,3.89a91.252,91.252,0,0,0-5.016,8.017,47.956,47.956,0,0,1-3.246,4.021A19.959,19.959,0,0,1,.549,19.092L.541,19.1a.3.3,0,0,1-.04.036.311.311,0,0,1-.435-.062.291.291,0,0,1-.037-.311A.448.448,0,0,1,.163,18.6a18.61,18.61,0,0,0,1.763-1.4,47.363,47.363,0,0,0,3.21-3.968,91.86,91.86,0,0,1,5.052-8.07c1.474-1.965,4.386-3.27,6.6-4.1A28.647,28.647,0,0,1,22.258.121c3.079-.513,5.963.725,8.772,1.428a3.829,3.829,0,0,1,1.283.7,7.889,7.889,0,0,0,1.078.746,1.206,1.206,0,0,1,.431.456,3.776,3.776,0,0,0,.361.587A11.5,11.5,0,0,1,35.7,6.311a2.288,2.288,0,0,1,.229.671.566.566,0,0,1-.047.315.311.311,0,0,1-.572-.239ZM.624,18.9Zm0-.016v0Zm-.053-.176a.3.3,0,0,1,.053.169A.31.31,0,0,0,.572,18.713Zm0,0L.563,18.7Z" transform="translate(18.999 99.794)" fill="#09450b" fill-rule="evenodd"/>
    <path id="Path_184" data-name="Path 184" d="M5.243,22.633a.311.311,0,0,1-.089.609c-.234,0-.452-.183-.549-.54a6.564,6.564,0,0,1-.09-1.467c0-1.944.109-3.876.109-5.8a25.016,25.016,0,0,0-.6-4.107c-.5-3.01-.918-5.719-2.477-8.317C1.269,2.541,1,1.888.7,1.336A2.541,2.541,0,0,0,.12.556.311.311,0,1,1,.5.066a3.17,3.17,0,0,1,.743.972c.3.544.562,1.19.839,1.652,1.6,2.667,2.042,5.445,2.557,8.535a25.626,25.626,0,0,1,.606,4.21c0,1.924-.109,3.856-.109,5.8a7.586,7.586,0,0,0,.035,1.137A1.677,1.677,0,0,0,5.243,22.633Z" transform="translate(52.021 102.898)" fill="#09450b" fill-rule="evenodd"/>
    <path id="Path_185" data-name="Path 185" d="M.408.016a1.087,1.087,0,0,1,.653.656,1.6,1.6,0,0,0,.232.477A16.383,16.383,0,0,1,3.146,4.326C3.839,5.481,3.977,6.7,4.58,7.9c.835,1.67,1.985,3.127,2.692,4.893.494,1.235,1.265,2.4,1.751,3.611a7.742,7.742,0,0,0,.835,1.844,1.58,1.58,0,0,0,.563.41c.269.137.552.254.771.386a31.774,31.774,0,0,0,6.559,2.926c3.356,1.119,7.227,1.553,10.5.067a19.742,19.742,0,0,0,3.075-1.179c1.228-.819,2.043-2.314,3-3.4a11.518,11.518,0,0,0,1.282-1.49c.907-1.452.686-2.984.885-4.579a27.691,27.691,0,0,0,.545-3.682.311.311,0,1,1,.622,0,28.261,28.261,0,0,1-.549,3.759c-.211,1.686-.016,3.3-.975,4.832a12.128,12.128,0,0,1-1.344,1.574c-.995,1.119-1.854,2.652-3.124,3.5a20.321,20.321,0,0,1-3.163,1.228c-3.412,1.551-7.45,1.124-10.951-.043a32.382,32.382,0,0,1-6.682-2.983c-.255-.153-.6-.283-.9-.454a1.949,1.949,0,0,1-.611-.5,8.364,8.364,0,0,1-.915-1.986c-.486-1.215-1.257-2.376-1.751-3.611-.7-1.75-1.843-3.191-2.671-4.846-.6-1.192-.727-2.4-1.411-3.536A15.722,15.722,0,0,0,.854,1.587a1.645,1.645,0,0,1-.311-.545C.473.87.419.674.213.606A.311.311,0,0,1,.408.016Z" transform="translate(19.059 118.716)" fill="#09450b" fill-rule="evenodd"/>
    <path id="Path_186" data-name="Path 186" d="M.123.561a.311.311,0,0,1-.1-.137A.293.293,0,0,1,.023.2.3.3,0,0,1,.232.012.307.307,0,0,1,.539.1c.087.082.6.688.852.936a12.836,12.836,0,0,1,1.9,2.189,20.63,20.63,0,0,1,3.327,7.945.311.311,0,1,1-.616.088,20.018,20.018,0,0,0-3.239-7.7A12.222,12.222,0,0,0,.951,1.471C.726,1.247.209.658.123.561ZM.52.547l0,0L.524.542ZM.532.535l0,0L.536.531ZM.544.522l0,0L.546.52Zm.065-.3A.282.282,0,0,1,.615.386.31.31,0,0,0,.609.221Z" transform="translate(46.868 100.721)" fill="#09450b" fill-rule="evenodd"/>
    <path id="Path_187" data-name="Path 187" d="M.317.694A.31.31,0,0,1,.038.5.358.358,0,0,1,.048.157.305.305,0,0,1,.414.014.644.644,0,0,1,.623.129,5.369,5.369,0,0,1,1.15.634a10.909,10.909,0,0,1,.845,1.238c.781,1.3,1.239,2.787,1.975,4.113a.311.311,0,1,1-.543.3c-.733-1.319-1.187-2.8-1.965-4.095a10.3,10.3,0,0,0-.8-1.169C.645,1,.443.81.317.694Z" transform="translate(45.654 100.543)" fill="#09450b" fill-rule="evenodd"/>
    <path id="Path_188" data-name="Path 188" d="M9.7,19.713q-.015-.133-.027-.266c-.109-1.232-.023-2.515-.023-3.652a.311.311,0,0,1,.622,0c0,1.12-.086,2.384.021,3.6a5.543,5.543,0,0,0,1.111,3.152c.493.592.818,1.32,1.313,1.915.09.109.175.226.265.34a3.837,3.837,0,0,1,.407.324.632.632,0,0,1,.221.411.285.285,0,0,1-.219.3.3.3,0,0,1-.252-.028c-.059-.033-.356-.292-.388-.324a2.85,2.85,0,0,1-.2-.232c-.358-.255-.765-.519-.89-.643a8.709,8.709,0,0,1-2.164-3.387,27.176,27.176,0,0,0-1.732-4.534c-1.505-3.512-2.591-7.151-4.315-10.6-.748-1.5-1.66-2.938-2.407-4.432A4.691,4.691,0,0,0,.57.836.9.9,0,0,0,.394.659.146.146,0,0,0,.314.622.311.311,0,1,1,.308,0,.87.87,0,0,1,.916.29,4.451,4.451,0,0,1,1.6,1.375C2.342,2.869,3.255,4.311,4,5.807c1.729,3.459,2.821,7.109,4.33,10.631C8.741,17.389,9.3,18.6,9.7,19.713Z" transform="translate(43.711 100.131)" fill="#09450b" fill-rule="evenodd"/>
    <path id="Path_189" data-name="Path 189" d="M37.217,10.091a2.315,2.315,0,0,0-.555-.55,3.812,3.812,0,0,1-.707-.66,16.691,16.691,0,0,0-4.945-4.024c-2.846-1.708-5.5-3.4-8.82-4.065-2.294-.459-4.705.1-6.959.387C11.8,1.608,8.488,3.2,5.06,3.694c-.754.108-1.564.391-2.366.526A3.385,3.385,0,0,1,.138,3.81a.311.311,0,1,1,.345-.517,2.787,2.787,0,0,0,2.108.315c.808-.136,1.623-.42,2.381-.528C8.4,2.589,11.715.991,15.155.561c2.318-.29,4.8-.851,7.158-.38,3.395.679,6.109,2.4,9.018,4.142a17.308,17.308,0,0,1,5.123,4.184,3.192,3.192,0,0,0,.6.546,2.937,2.937,0,0,1,.695.707.311.311,0,0,1-.527.331Z" transform="translate(18.619 115.001)" fill="#09450b" fill-rule="evenodd"/>
    <path id="Path_190" data-name="Path 190" d="M22.1,5.317a6.093,6.093,0,0,1-2.822-1.378,12.036,12.036,0,0,0-3.923-1.585C12.9,1.862,10.518,1.023,7.995.771,5.451.516,2.878.663.311.663a.311.311,0,1,1,0-.622C2.9.041,5.492-.1,8.057.152,10.6.406,13,1.248,15.473,1.743a12.823,12.823,0,0,1,4.174,1.7A5.394,5.394,0,0,0,22.125,4.7a.311.311,0,1,1-.028.621Z" transform="translate(26.388 113.385)" fill="#09450b" fill-rule="evenodd"/>
    <path id="Path_191" data-name="Path 191" d="M3.612,7.662a.311.311,0,0,1-.033.62.584.584,0,0,1-.361-.137,1.575,1.575,0,0,1-.311-.367c-.118-.18-.231-.393-.34-.554-.037-.054-.062-.106-.1-.124a1.407,1.407,0,0,1-.6-.669,8.607,8.607,0,0,1-.376-1.1C.953,3.714.573,2.081.016.409a.311.311,0,1,1,.59-.2c.557,1.672.938,3.3,1.477,4.924.08.239.156.566.275.864a.965.965,0,0,0,.39.543.763.763,0,0,1,.233.2,4.88,4.88,0,0,1,.355.55,2.23,2.23,0,0,0,.215.315A.619.619,0,0,0,3.612,7.662Z" transform="translate(45.484 110.745)" fill="#09450b" fill-rule="evenodd"/>
    <path id="Path_192" data-name="Path 192" d="M8.389,9.356c-.052-.024-.193-.088-.31-.133-.3-.113-.634-.231-.705-.275A7.876,7.876,0,0,1,5.141,7.1,18.787,18.787,0,0,0,2.881,4.47a8.031,8.031,0,0,1-1.207-2A15.431,15.431,0,0,0,.062.5.311.311,0,1,1,.56.124,16.087,16.087,0,0,1,2.23,2.2,7.353,7.353,0,0,0,3.321,4.03,19.435,19.435,0,0,1,5.658,6.759,7.145,7.145,0,0,0,7.693,8.416c.1.058.729.256.975.383a.563.563,0,0,1,.218.18.327.327,0,0,1,.05.194.311.311,0,0,1-.547.184Z" transform="translate(39.903 108.94)" fill="#09450b" fill-rule="evenodd"/>
    <path id="Path_193" data-name="Path 193" d="M18.471,7.975a1.871,1.871,0,0,0-.2-.078,2.807,2.807,0,0,1-.619-.214c-1.008-.672-2.287-.99-3.242-1.706C10.457,3.015,5.286.622.311.622A.311.311,0,0,1,.311,0C5.416,0,10.727,2.441,14.778,5.479c.946.71,2.216,1.021,3.214,1.686a1.029,1.029,0,0,0,.256.082,2.948,2.948,0,0,1,.46.148.572.572,0,0,1,.357.408.311.311,0,0,1-.593.171Z" transform="translate(26.771 108.392)" fill="#09450b" fill-rule="evenodd"/>
    <path id="Path_194" data-name="Path 194" d="M17.979,5.792a7.7,7.7,0,0,0-1.82-.415,8.151,8.151,0,0,1-2.018-.487C10.433,3.3,6.632,1.313,2.612.643a2.686,2.686,0,0,0-1.1.106,5.183,5.183,0,0,1-1.2.226.311.311,0,1,1,0-.622A4.572,4.572,0,0,0,1.358.147,3.3,3.3,0,0,1,2.715.03c4.068.678,7.918,2.68,11.671,4.289a7.543,7.543,0,0,0,1.865.443,8.314,8.314,0,0,1,1.968.456.311.311,0,1,1-.239.574Z" transform="translate(25.896 109.734)" fill="#09450b" fill-rule="evenodd"/>
    <path id="Path_195" data-name="Path 195" d="M2.29.7A.311.311,0,0,1,2.561.541a2.853,2.853,0,0,1,.916.313.31.31,0,0,1,.1.083l.788.279a.311.311,0,0,1-.174.6S3.3,1.6,2.859,1.479c-.468-.134-1.108-.25-1.676-.424A3.338,3.338,0,0,1,.118.555.311.311,0,1,1,.5.067a2.71,2.71,0,0,0,.862.394C1.665.553,1.986.628,2.29.7Z" transform="translate(41.154 114.472)" fill="#09450b" fill-rule="evenodd"/>
    <path id="Path_196" data-name="Path 196" d="M.4.012C4,1.061,7.442,5.382,8.491,9.051a.311.311,0,0,1-.6.171C6.9,5.734,3.65,1.606.224.609A.311.311,0,1,1,.4.012Z" transform="translate(36.344 100.934)" fill="#09450b" fill-rule="evenodd"/>
    <path id="Path_197" data-name="Path 197" d="M.392.011A8.4,8.4,0,0,1,4.257,1.847a.311.311,0,0,1-.4.472A7.861,7.861,0,0,0,.23.611a.311.311,0,1,1,.161-.6Z" transform="translate(33.15 102.188)" fill="#09450b" fill-rule="evenodd"/>
    <path id="Path_198" data-name="Path 198" d="M24.959,1.578c-.03-.011-.114-.043-.176-.06-.186-.05-.4-.084-.485-.1-1.059-.212-2.114-.5-3.173-.711a9.244,9.244,0,0,0-4.8.747A91.462,91.462,0,0,0,6.895,5.979a9.542,9.542,0,0,1-4.641.971A17.172,17.172,0,0,1,.24,6.74.314.314,0,0,1,0,6.391.3.3,0,0,1,.13,6.178a.574.574,0,0,1,.319-.069.31.31,0,0,1,.186.062c.422.05,1.346.157,1.619.157a8.9,8.9,0,0,0,4.332-.889,92.021,92.021,0,0,1,9.5-4.557A9.942,9.942,0,0,1,21.247.1c1.06.212,2.114.5,3.174.711a4.026,4.026,0,0,1,.828.22.5.5,0,0,1,.24.235.311.311,0,0,1-.529.316Z" transform="translate(22.421 117.165)" fill="#09450b" fill-rule="evenodd"/>
    <path id="Path_199" data-name="Path 199" d="M.532,5.162a.311.311,0,0,1-.5-.363.42.42,0,0,1,.156-.16A1.564,1.564,0,0,1,.53,4.5c.69-.207,2.33-.476,2.875-.658A11.262,11.262,0,0,0,8.3.109a.311.311,0,1,1,.472.4A11.868,11.868,0,0,1,3.6,4.436c-.609.2-2.6.513-3.066.724Z" transform="translate(27.354 127.707)" fill="#09450b" fill-rule="evenodd"/>
    <path id="Path_200" data-name="Path 200" d="M14.307,1.6l.066.072a1.915,1.915,0,0,1,.411.8l.017.059c.27.521.483,1.1.724,1.577a1.015,1.015,0,0,1,.052.212,3.018,3.018,0,0,1,.04.568.3.3,0,0,1-.315.272.644.644,0,0,1-.341-.115.308.308,0,0,1-.093-.036.333.333,0,0,1-.121-.123.2.2,0,0,0-.036-.016,3.334,3.334,0,0,0-1.684-.052,10.334,10.334,0,0,0-2.565.965,15.156,15.156,0,0,0-4.023,2.4C4.5,10.126,3.407,11.835.311,11.835a.311.311,0,1,1,0-.622C3.2,11.214,4.19,9.559,6,7.748a15.789,15.789,0,0,1,4.184-2.52,8.1,8.1,0,0,1,4-1.094,6.035,6.035,0,0,0-.361-.488,3.585,3.585,0,0,0-1.032-.528.311.311,0,0,1,.191-.592s.483.143.722.222a1.494,1.494,0,0,1,.595.407c-.1-.275-.208-.547-.329-.815-.063-.1-.2-.312-.32-.514A2.657,2.657,0,0,1,13.3,1.4a.415.415,0,0,1-.023-.41c-.1-.175-.2-.348-.3-.519a.311.311,0,0,1,.538-.312C13.789.623,14.061,1.106,14.307,1.6Z" transform="translate(34.158 115.289)" fill="#09450b" fill-rule="evenodd"/>
    <path id="Path_201" data-name="Path 201" d="M25.162.789a16.71,16.71,0,0,0-6.3,2.466C15.067,5.627,11.894,9,7.59,10.615a18.707,18.707,0,0,1-4.452,1.331,20.05,20.05,0,0,1-2.223-.053l-.465,0a.311.311,0,0,1-.449-.3.316.316,0,0,1,.191-.276.778.778,0,0,1,.272-.052c.163-.007.393.007.451.007a19.482,19.482,0,0,0,2.154.057,18.1,18.1,0,0,0,4.3-1.3c4.265-1.6,7.4-4.954,11.161-7.3A17.3,17.3,0,0,1,25.1.168,13.247,13.247,0,0,1,27.343,0h.711a3.181,3.181,0,0,1,.394.032.417.417,0,0,1,.205.1.308.308,0,0,1,.1.229.3.3,0,0,1-.094.226.478.478,0,0,1-.291.122c-.188.018-.555-.048-.651-.034a10.048,10.048,0,0,0-1.9.531A8.133,8.133,0,0,0,21.895,3.9a.311.311,0,0,1-.486-.388A8.4,8.4,0,0,1,25.162.789ZM.616,11.676v0Zm0-.021v0Z" transform="translate(28.629 125.19)" fill="#09450b" fill-rule="evenodd"/>
    <path id="Path_202" data-name="Path 202" d="M16.06.2a.311.311,0,0,1,.595.172.641.641,0,0,1-.267.362c-.191.141-.512.284-.662.374A14.114,14.114,0,0,0,13.768,2.51,36.408,36.408,0,0,1,4.752,8.159a8.142,8.142,0,0,1-3.483.51A1.533,1.533,0,0,1,.033,7.963a.311.311,0,0,1,.556-.278.634.634,0,0,0,.39.283,2.728,2.728,0,0,0,.835.117A7.812,7.812,0,0,0,4.5,7.591a35.761,35.761,0,0,0,8.859-5.549A14.8,14.8,0,0,1,15.406.571c.112-.067.322-.164.5-.267A1.855,1.855,0,0,0,16.06.2Z" transform="translate(31.205 130.524)" fill="#09450b" fill-rule="evenodd"/>
    <path id="Path_203" data-name="Path 203" d="M14.813,28.007a.311.311,0,0,1-.461.416.8.8,0,0,1-.177-.544c0-.178.022-.39.04-.587a1,1,0,0,0,0-.342,7.817,7.817,0,0,1-.292-1.917,7.236,7.236,0,0,0-.267-1.781,16.426,16.426,0,0,1-.4-2.37c-.554-3.324-.885-6.7-1.546-10.012a8.823,8.823,0,0,0-1.091-2.116C9.275,6.065,6.234,4.237,3.917,2.5A16.659,16.659,0,0,0,1.384,1.067C1.137.943.395.67.259.621A.3.3,0,0,1,.179.594.294.294,0,0,1,0,.278.3.3,0,0,1,.15.046.3.3,0,0,1,.4.014c.1.028.959.348,1.257.5A17.3,17.3,0,0,1,4.29,2c2.389,1.791,5.5,3.7,6.887,6.475a9.428,9.428,0,0,1,1.145,2.272c.663,3.315,1,6.7,1.55,10.031a15.729,15.729,0,0,0,.375,2.275,7.861,7.861,0,0,1,.3,1.935,7.186,7.186,0,0,0,.261,1.764,2.543,2.543,0,0,1,0,.837,2.172,2.172,0,0,0-.012.331A.67.67,0,0,0,14.813,28.007ZM.543.1A.314.314,0,0,0,.457.037.287.287,0,0,1,.543.1Z" transform="translate(45.765 82.249)" fill="#09450b" fill-rule="evenodd"/>
    <path id="Path_204" data-name="Path 204" d="M1.507.588c-.026.074-.056.161-.058.165a3.319,3.319,0,0,0-.234.667,9.57,9.57,0,0,0-.421,2.2c0,2.429-.172,4.84-.172,7.269a17.993,17.993,0,0,0,.256,2.073c.2,1.842-.2,3.8.251,5.593a26.547,26.547,0,0,1,.136,3c.287,2.292.183,4.574.6,6.865.231,1.272.488,2.61.648,3.888a7.827,7.827,0,0,0,.226,1.189,1.186,1.186,0,0,0,.247.518.311.311,0,0,1-.414.464,1.477,1.477,0,0,1-.353-.579,7.429,7.429,0,0,1-.322-1.516c-.158-1.267-.413-2.593-.642-3.854-.419-2.3-.317-4.6-.6-6.9a25.945,25.945,0,0,0-.122-2.931C.07,16.891.468,14.9.26,13.036A18.566,18.566,0,0,1,0,10.894c0-2.428.172-4.84.172-7.269A10.208,10.208,0,0,1,.611,1.27,3.992,3.992,0,0,1,.883.5a2.8,2.8,0,0,1,.13-.337A.338.338,0,0,1,1.142.037.309.309,0,0,1,1.329,0a.305.305,0,0,1,.19.1.343.343,0,0,1,.092.258A.31.31,0,0,1,1.507.588ZM.99.377v0Z" transform="translate(59.75 77.606)" fill="#09450b" fill-rule="evenodd"/>
    <path id="Path_205" data-name="Path 205" d="M2.613.225a2.807,2.807,0,0,1-.12,1.441c-.211.729-.57,1.514-.727,1.986C1.031,5.857,1.028,8.338.7,10.607a18.628,18.628,0,0,0,.259,4.864c.256,2.047.547,4.1.775,6.155.078.7-.032,1.439.084,2.134a34.554,34.554,0,0,1,.821,5.384.311.311,0,1,1-.622,0,33.923,33.923,0,0,0-.813-5.282c-.118-.706-.009-1.457-.088-2.167C.892,19.645.6,17.592.346,15.548a19.272,19.272,0,0,1-.257-5.029C.418,8.214.429,5.7,1.176,3.454c.155-.466.511-1.241.719-1.962A2.183,2.183,0,0,0,2.016.4a.311.311,0,0,1,.6-.172Z" transform="translate(58.289 77.678)" fill="#09450b" fill-rule="evenodd"/>
    <path id="Path_206" data-name="Path 206" d="M10.443,9.076c-1.509-1.9-4-3.152-5.9-4.668A53.3,53.3,0,0,1,.091.531a.311.311,0,1,1,.44-.44,52.6,52.6,0,0,0,4.4,3.831c1.93,1.544,4.457,2.835,5.994,4.767a.311.311,0,1,1-.487.387Z" transform="translate(46.416 79.886)" fill="#09450b" fill-rule="evenodd"/>
    <path id="Path_207" data-name="Path 207" d="M6.176,5.252a.46.46,0,0,0-.131-.167,3.4,3.4,0,0,0-.38-.317c-.486-.359-1.1-.72-1.307-.9A42.229,42.229,0,0,0,.138.569.311.311,0,1,1,.483.052,42.849,42.849,0,0,1,4.768,3.4c.236.207,1.019.65,1.507,1.056a1.465,1.465,0,0,1,.5.644.311.311,0,0,1-.6.152Z" transform="translate(48.852 82.855)" fill="#09450b" fill-rule="evenodd"/>
    <path id="Path_208" data-name="Path 208" d="M42.1,18.948a1.958,1.958,0,0,0-.218-.227c-.3-.244-.7-.489-.862-.651a11.09,11.09,0,0,0-5-2.783c-3.144-.786-6.4-.992-9.557-1.625a26.008,26.008,0,0,1-9.5-4.093A7.8,7.8,0,0,0,15.27,8.7a8.456,8.456,0,0,1-1.829-.953A57.691,57.691,0,0,0,4.5,2.827,14.476,14.476,0,0,1,1.175.953C1.164.947,1.077.9,1.011.87.826.789.52.691.371.645A.309.309,0,0,1,.206.613a.323.323,0,0,1-.2-.357A.332.332,0,0,1,.4.008,5.949,5.949,0,0,1,1.261.3a1.272,1.272,0,0,1,.346.205A13.671,13.671,0,0,0,4.782,2.271a58.311,58.311,0,0,1,9.033,4.978,7.832,7.832,0,0,0,1.7.877,8.432,8.432,0,0,1,1.82.946,25.319,25.319,0,0,0,9.25,3.981c3.17.634,6.432.842,9.586,1.631a11.736,11.736,0,0,1,5.288,2.947c.183.183.688.473.97.746a.811.811,0,0,1,.291.57.311.311,0,0,1-.621,0Z" transform="translate(7.123 64.591)" fill="#09450b" fill-rule="evenodd"/>
    <path id="Path_209" data-name="Path 209" d="M.248.078A6.269,6.269,0,0,1,3.095.325c.912.246,1.818.571,2.638.708,2.012.335,3.76,1.474,5.557,2.373a75.335,75.335,0,0,1,13.273,8.956.311.311,0,0,1-.388.486A74.715,74.715,0,0,0,11.012,3.961C9.269,3.09,7.581,1.971,5.63,1.646c-.838-.14-1.765-.469-2.7-.721A5.647,5.647,0,0,0,.374.687.311.311,0,1,1,.248.078Z" transform="translate(7.191 63.326)" fill="#09450b" fill-rule="evenodd"/>
    <path id="Path_210" data-name="Path 210" d="M.315,0A5.012,5.012,0,0,1,2.352.641c1.02.518,2.06,1.236,2.763,1.611,3.759,2,8.376,3.375,11.585,6.228a.311.311,0,1,1-.413.465C13.114,6.123,8.54,4.783,4.822,2.8c-.7-.373-1.737-1.089-2.752-1.6A4.38,4.38,0,0,0,.307.622.311.311,0,0,1,.315,0Z" transform="translate(14.415 59.991)" fill="#09450b" fill-rule="evenodd"/>
    <path id="Path_211" data-name="Path 211" d="M8.835,7.667a.649.649,0,0,0-.149-.225,3.7,3.7,0,0,0-.592-.5c-.647-.458-1.464-.9-1.8-1.191C4.236,3.992,2.378,2.138.133.565A.311.311,0,0,1,.489.056C2.752,1.64,4.625,3.507,6.7,5.284c.385.33,1.417.867,2.072,1.394a1.909,1.909,0,0,1,.659.81.311.311,0,0,1-.595.18Z" transform="translate(37.5 73.015)" fill="#09450b" fill-rule="evenodd"/>
    <path id="Path_212" data-name="Path 212" d="M8.774,13.334a65.346,65.346,0,0,1-4.7-8.066C3.111,3.352,2.155,1.58.172.589A.311.311,0,1,1,.45.033C2.561,1.088,3.606,2.95,4.626,4.99a64.75,64.75,0,0,0,4.658,7.989.311.311,0,1,1-.51.355Z" transform="translate(37.369 66.764)" fill="#09450b" fill-rule="evenodd"/>
    <path id="Path_213" data-name="Path 213" d="M5.345,13.406A27.306,27.306,0,0,1,2.756,6.927,24.479,24.479,0,0,0,.052.483.311.311,0,0,1,.57.138a25.1,25.1,0,0,1,2.78,6.6,26.685,26.685,0,0,0,2.522,6.332.311.311,0,1,1-.526.331Z" transform="translate(40.755 66.569)" fill="#09450b" fill-rule="evenodd"/>
    <path id="Path_214" data-name="Path 214" d="M.363,0a3.527,3.527,0,0,1,1.4.683A15.835,15.835,0,0,0,3.552,1.993C6.844,3.639,10.8,4.614,13.639,6.981a.311.311,0,1,1-.4.478c-2.8-2.337-6.717-3.284-9.967-4.909A10.835,10.835,0,0,1,1.7,1.423,3.6,3.6,0,0,0,.259.617.311.311,0,1,1,.363,0Z" transform="translate(19.813 55.948)" fill="#09450b" fill-rule="evenodd"/>
    <path id="Path_215" data-name="Path 215" d="M.26.211C6.593-.832,12.337,2.163,17.382,5.527a.311.311,0,1,1-.345.517C12.12,2.766,6.533-.192.361.824A.311.311,0,0,1,.26.211Z" transform="translate(20.08 55.69)" fill="#09450b" fill-rule="evenodd"/>
    <path id="Path_216" data-name="Path 216" d="M40.442,25.351a1.426,1.426,0,0,0,.019-.21,7.254,7.254,0,0,1,.211-1.986,12.834,12.834,0,0,0,.706-6.352C40.217,11,36.625,3.9,30.516,1.865A22.32,22.32,0,0,0,9.509,5.27,39.1,39.1,0,0,1,3.472,8.555L1.388,9.6c-.1.049-.664.188-.867.237a.309.309,0,0,1-.2.059.311.311,0,0,1-.277-.157.3.3,0,0,1-.018-.284.338.338,0,0,1,.2-.182C.367,9.218,1,9.1,1.11,9.04L3.194,8A38.448,38.448,0,0,0,9.136,4.773a22.925,22.925,0,0,1,21.576-3.5c6.314,2.1,10.075,9.4,11.276,15.4a13.478,13.478,0,0,1-.726,6.67,6.532,6.532,0,0,0-.18,1.79,5.337,5.337,0,0,1-.209,1.067.311.311,0,0,1-.606-.05.944.944,0,0,0-.081-.324.311.311,0,0,1,.086-.431A.307.307,0,0,1,40.442,25.351ZM.459,9.3a.308.308,0,0,0-.1-.024A.289.289,0,0,1,.459,9.3Z" transform="translate(6.871 54.11)" fill="#09450b" fill-rule="evenodd"/>
    <path id="Path_217" data-name="Path 217" d="M.112.555A.311.311,0,0,1,.067.124.3.3,0,0,1,.376.006.371.371,0,0,1,.621.183c.2.311.855,2.348,1.149,2.789a10.7,10.7,0,0,1,1.4,3.838,34.33,34.33,0,0,0,.852,3.854c.569,1.708,2.034,3.28,2.848,4.908A2.775,2.775,0,0,1,7,16.982a2.14,2.14,0,0,0,.061,1.065,5.865,5.865,0,0,1,.455,1.589,5.2,5.2,0,0,0,.391,1.406c1.023,2.046,4.9,5.184,7.048,5.9.584.195,1.306.63,1.987.949a2.853,2.853,0,0,0,1.105.337.311.311,0,0,1,0,.622,3.476,3.476,0,0,1-1.369-.4c-.659-.308-1.355-.734-1.92-.922-2.257-.752-6.331-4.06-7.407-6.211a5.823,5.823,0,0,1-.447-1.571,5.24,5.24,0,0,0-.4-1.424,2.762,2.762,0,0,1-.125-1.391,2.151,2.151,0,0,0-.071-1.083c-.826-1.653-2.3-3.255-2.882-4.989a34.972,34.972,0,0,1-.872-3.926A10.08,10.08,0,0,0,1.253,3.318,27.293,27.293,0,0,1,.112.555ZM.543.523A.274.274,0,0,1,.38.62.309.309,0,0,0,.543.523Z" transform="translate(6.678 63.583)" fill="#09450b" fill-rule="evenodd"/>
    <path id="Path_218" data-name="Path 218" d="M22.824.66c-.116-.013-.274-.03-.4-.036a1.288,1.288,0,0,0-.313,0,1.04,1.04,0,0,0-.559.5c-.11.181-.2.383-.3.584C20.7,2.8,20.242,4.438,19.513,5.8a5.021,5.021,0,0,1-2.05,2.233c-1.741.87-3.317,2.44-5.079,3.321a9.127,9.127,0,0,1-5.024.782A27.184,27.184,0,0,1,.2,10.094a.311.311,0,0,1,.23-.578,31.194,31.194,0,0,0,5.762,1.825,9.328,9.328,0,0,0,5.919-.544c1.761-.881,3.338-2.451,5.079-3.321A5.175,5.175,0,0,0,19.3,4.826c.542-1.194.938-2.486,1.393-3.4.3-.6.569-1.176,1.221-1.393A1.891,1.891,0,0,1,22.452,0a4.293,4.293,0,0,1,.73.088.309.309,0,0,1,.168.14.294.294,0,0,1,0,.306.3.3,0,0,1-.187.151.665.665,0,0,1-.178.018A.308.308,0,0,1,22.824.66Z" transform="translate(24.202 82.414)" fill="#09450b" fill-rule="evenodd"/>
    <path id="Path_219" data-name="Path 219" d="M25.906.326a5.56,5.56,0,0,1,2.264.9,7.833,7.833,0,0,1,.671.448A.459.459,0,0,1,29.01,2a.3.3,0,0,1-.128.255.315.315,0,0,1-.244.059.631.631,0,0,1-.176-.064c-.131-.068-.418-.253-.479-.293a11.445,11.445,0,0,1-1.31-.657c-.129-.065-.265-.126-.406-.184a.351.351,0,0,1-.094.176.339.339,0,0,1-.317.1,1.263,1.263,0,0,1-.377-.2c-.054-.037-.148-.088-.188-.11A.31.31,0,0,1,24.9.8,1.578,1.578,0,0,0,24.6.744a3.871,3.871,0,0,1-.52-.025.439.439,0,0,1-.212-.1A4.2,4.2,0,0,0,22.85.735C18.4,1.847,15.424,4.521,11.324,6.571,8.871,7.8,6.122,8.113,3.665,8.932a7.173,7.173,0,0,1-2.247.211A1.573,1.573,0,0,1,1.109,9.1a.311.311,0,0,1-.277.171,1.75,1.75,0,0,1-.563-.047A.4.4,0,0,1,0,8.833a.462.462,0,0,1,.1-.293A.485.485,0,0,1,.457,8.36a1.613,1.613,0,0,1,.454.057,2.7,2.7,0,0,0,.506.1,6.545,6.545,0,0,0,2.05-.179c2.43-.81,5.152-1.114,7.577-2.327C15.189,3.944,18.2,1.256,22.7.132A6.208,6.208,0,0,1,25.906.326Z" transform="translate(21.877 82.247)" fill="#09450b" fill-rule="evenodd"/>
    <path id="Path_220" data-name="Path 220" d="M5.328,2.189a9.9,9.9,0,0,1-1.711.826,5.849,5.849,0,0,1-1.778.068C1.31,3.051.644,3.039.5,3.037a.311.311,0,0,1-.491-.322A.36.36,0,0,1,.2,2.478.956.956,0,0,1,.583,2.4c.225-.008.562.013.934.038a.3.3,0,0,1,.2-.156,5.472,5.472,0,0,1,.634-.07,4.508,4.508,0,0,0,1.2-.114c.523-.174,1.051-.332,1.577-.5a11.832,11.832,0,0,1,2-1C7.676.421,8.75.02,8.75.02a.311.311,0,0,1,.279.552S8.8.722,8.672.784c-.479.239-.951.511-1.449.724C6.6,1.774,5.967,1.987,5.328,2.189Zm-3.483.09h0Z" transform="translate(22.901 88.816)" fill="#09450b" fill-rule="evenodd"/>
    <path id="Path_221" data-name="Path 221" d="M.6.188A2.77,2.77,0,0,0,.884.339c.272.116.591.214.7.251A21.422,21.422,0,0,1,5.228,2.637c2.52,1.512,4.831,1.764,7.533,2.439a7.1,7.1,0,0,0,3.668.072A4.649,4.649,0,0,1,17.939,5a4,4,0,0,0,1.29-.112,20.384,20.384,0,0,0,2.629-.7,9.271,9.271,0,0,1,2.5-1.071,11.838,11.838,0,0,0,2.756-.874,13.787,13.787,0,0,1,2.9-.948,7.982,7.982,0,0,1,2.557.027,1.968,1.968,0,0,1,.97.451.324.324,0,0,1,.1.278.312.312,0,0,1-.15.243.414.414,0,0,1-.2.059,2.063,2.063,0,0,1-.435-.058.311.311,0,0,1-.235-.324,3.77,3.77,0,0,0-.515-.1,7.733,7.733,0,0,0-1.989.035,13.184,13.184,0,0,0-2.768.91,12.462,12.462,0,0,1-2.9.914,8.6,8.6,0,0,0-2.314,1.012,21.025,21.025,0,0,1-2.71.733,4.627,4.627,0,0,1-1.494.143,4.024,4.024,0,0,0-1.306.117A7.771,7.771,0,0,1,12.61,5.68c-2.765-.691-5.125-.963-7.7-2.509a20.705,20.705,0,0,0-3.52-1.99A5.638,5.638,0,0,1,.237.7.518.518,0,0,1,0,.334.311.311,0,0,1,.6.188Z" transform="translate(13.409 79.06)" fill="#09450b" fill-rule="evenodd"/>
    <path id="Path_222" data-name="Path 222" d="M26.349.629c-1.927-.1-3.655.7-5.559.906-3.832.426-7.508,1.724-11.329,2.149A12.285,12.285,0,0,1,4.3,3.339,29.925,29.925,0,0,1,1.647,1.769a8.1,8.1,0,0,0-.976-.52,1.052,1.052,0,0,0-.36-.1.311.311,0,1,1,0-.622A3.009,3.009,0,0,1,1.5.968C2.51,1.523,3.852,2.49,4.528,2.761a11.571,11.571,0,0,0,4.864.305c3.822-.425,7.5-1.723,11.329-2.149,1.937-.215,3.7-1.007,5.658-.91a.311.311,0,1,1-.031.621Z" transform="translate(13.934 78.784)" fill="#09450b" fill-rule="evenodd"/>
    <path id="Path_223" data-name="Path 223" d="M.948,46.214A.311.311,0,0,1,.6,46.64l-.138.051A.311.311,0,0,1,.11,46.18a2.1,2.1,0,0,0,.43-.459,2.5,2.5,0,0,1,.648-.7,5.016,5.016,0,0,1,1.307-.772,4.824,4.824,0,0,1,2.682.085,4.936,4.936,0,0,0,2.311.212,7.644,7.644,0,0,0,2.272-1.164A32.187,32.187,0,0,1,14.675,39.9c2.119-1.059,4.653-1.464,6.673-2.676,3.1-1.859,4.983-4.742,7.445-7.205a3.437,3.437,0,0,0,.76-1.528c.27-.985.369-2.1.524-2.877.408-2.039-.328-3.466-.661-5.466-.636-3.813-3.242-7.458-5.183-10.693a15.35,15.35,0,0,1-1.3-3.194,11.961,11.961,0,0,0-1.279-2.98,8.329,8.329,0,0,1-.848-2,1.557,1.557,0,0,1-.044-.425V.67a.311.311,0,0,1-.09-.387C20.8.033,20.964,0,21.024,0a.325.325,0,0,1,.34.274,2.665,2.665,0,0,1,.021.485,1.351,1.351,0,0,0,.012.326,7.7,7.7,0,0,0,.775,1.853A12.584,12.584,0,0,1,23.526,6.07a14.713,14.713,0,0,0,1.241,3.067c1.978,3.3,4.615,7.023,5.263,10.91.347,2.081,1.082,3.569.658,5.69-.157.785-.26,1.919-.534,2.92a4.062,4.062,0,0,1-.92,1.8c-2.5,2.5-4.421,5.412-7.565,7.3-2.033,1.22-4.582,1.633-6.715,2.7a31.609,31.609,0,0,0-4.821,3.419,8.38,8.38,0,0,1-2.495,1.27,5.548,5.548,0,0,1-2.6-.21,4.22,4.22,0,0,0-2.343-.1,4.331,4.331,0,0,0-1.115.668A1.867,1.867,0,0,0,1.1,46,1.218,1.218,0,0,1,.948,46.214Z" transform="translate(60.231 31.572)" fill="#09450b" fill-rule="evenodd"/>
    <path id="Path_224" data-name="Path 224" d="M.05,17.247a2.979,2.979,0,0,1,.378-1.936c.448-.933,1.149-1.9,1.41-2.557C3.007,9.833,5.025,7.441,6.98,5,8.256,3.4,9.919,2.218,10.588.213a.311.311,0,0,1,.59.2c-.693,2.078-2.39,3.323-3.712,4.976-1.917,2.4-3.9,4.736-5.049,7.6-.266.664-.973,1.649-1.427,2.6a2.363,2.363,0,0,0-.338,1.506.311.311,0,0,1-.6.161Z" transform="translate(60.263 60.667)" fill="#09450b" fill-rule="evenodd"/>
    <path id="Path_225" data-name="Path 225" d="M22.083.787a21.877,21.877,0,0,1-.913,2.2A28.019,28.019,0,0,1,17.392,8.5a34.82,34.82,0,0,1-5.214,4.129,17.914,17.914,0,0,0-2.967,1.827c-1.67,1.67-3.083,3.559-4.646,5.433a33.987,33.987,0,0,0-2.843,4.267c-.084.139-.171.276-.258.412-.034.14-.068.282-.1.423A3.461,3.461,0,0,1,.6,26.58a.363.363,0,0,1-.307.124.3.3,0,0,1-.285-.26A.6.6,0,0,1,.02,26.2a7.57,7.57,0,0,1,.286-.813,6.513,6.513,0,0,1,.58-1.067,5.592,5.592,0,0,1,.363-1.11,14.275,14.275,0,0,1,1.222-1.975,10.647,10.647,0,0,1,.96-1.8A33.641,33.641,0,0,1,6.44,15.993c.038-.07.074-.134.1-.182a.608.608,0,0,1,.164-.178.365.365,0,0,1,.142-.056l.414-.415a10.51,10.51,0,0,1,1.411-1.4c.244-.162.686-.55.686-.55a.311.311,0,0,1,.421.011l.02.021c.663-.393,1.391-.706,2.031-1.133a34.171,34.171,0,0,0,5.12-4.052,27.393,27.393,0,0,0,3.685-5.394c.285-.476.946-2.335,1-2.466a.288.288,0,0,1,.152-.163.311.311,0,0,1,.4.108.285.285,0,0,1,.048.214c0,.012-.03.116-.105.34A.307.307,0,0,1,22.083.787Z" transform="translate(59.786 51.482)" fill="#09450b" fill-rule="evenodd"/>
    <path id="Path_226" data-name="Path 226" d="M21.017.4a38.548,38.548,0,0,1-3.754,8.68,11.572,11.572,0,0,1-4.184,4.377c-1.042.521-2.047,1.131-3.086,1.651-1.094.547-2.554.568-3.7.95a14.216,14.216,0,0,0-5.763,3.3.311.311,0,0,1-.44-.44A14.824,14.824,0,0,1,6.1,15.466c1.12-.373,2.551-.382,3.619-.916,1.039-.52,2.044-1.129,3.086-1.651a10.945,10.945,0,0,0,3.932-4.147A37.871,37.871,0,0,0,20.421.223a.311.311,0,1,1,.6.176Z" transform="translate(67.677 47.728)" fill="#09450b" fill-rule="evenodd"/>
    <path id="Path_227" data-name="Path 227" d="M.545.107A2.2,2.2,0,0,1,.9,1.159c.131.941.1,2.285.171,2.8a6.245,6.245,0,0,0,.566,1.673A8.379,8.379,0,0,1,2.288,7.39a11.154,11.154,0,0,1-.816,7.951.311.311,0,0,1-.556-.278,10.592,10.592,0,0,0,.763-7.551A7.746,7.746,0,0,0,1.07,5.891,6.877,6.877,0,0,1,.455,4.05C.391,3.6.406,2.544.328,1.653A4.948,4.948,0,0,0,.192.78.717.717,0,0,0,.076.515.311.311,0,1,1,.545.107Z" transform="translate(81.291 33.72)" fill="#09450b" fill-rule="evenodd"/>
    <path id="Path_228" data-name="Path 228" d="M4.008.4C2.334,5.972,2.482,12.233.606,17.863a.311.311,0,0,1-.59-.2C1.891,12.043,1.741,5.787,3.412.222a.311.311,0,1,1,.6.179Z" transform="translate(77.437 32.018)" fill="#09450b" fill-rule="evenodd"/>
    <path id="Path_229" data-name="Path 229" d="M.143,11.7a1.524,1.524,0,0,0,.438-.831A11.188,11.188,0,0,0,.908,9.032a25.685,25.685,0,0,0,.217-6.38A18.639,18.639,0,0,1,.691.311a.311.311,0,1,1,.622,0,17.976,17.976,0,0,0,.428,2.252A26.328,26.328,0,0,1,1.526,9.1a10.181,10.181,0,0,1-.468,2.3,1.709,1.709,0,0,1-.58.827A.311.311,0,1,1,.143,11.7Z" transform="translate(64.474 56.791)" fill="#09450b" fill-rule="evenodd"/>
    <path id="Path_230" data-name="Path 230" d="M.038,30.546c.682-1.255.648-3.265.881-4.666C1.916,19.9.2,13.832,1.062,7.8A23.53,23.53,0,0,1,2.085,2.2,6.68,6.68,0,0,1,2.8,1.16,1.645,1.645,0,0,0,3.035.725.357.357,0,0,0,3.029.45.311.311,0,1,1,3.585.172a1.138,1.138,0,0,1-.13,1.116,13.457,13.457,0,0,0-.792,1.147A22.919,22.919,0,0,0,1.677,7.89C.815,13.924,2.53,20,1.533,25.982c-.244,1.462-.237,3.552-.948,4.861a.311.311,0,0,1-.546-.3Z" transform="translate(65.614 37.2)" fill="#09450b" fill-rule="evenodd"/>
    <path id="Path_231" data-name="Path 231" d="M1.814.433c-.056.189-.282,1.114-.321,1.213a14.28,14.28,0,0,0-.416,2.105C.183,7.776.788,11.629,1.3,15.7a.311.311,0,0,1-.617.077C.162,11.634-.44,7.712.47,3.616a14.906,14.906,0,0,1,.445-2.2c.038-.1.251-.985.3-1.162A.34.34,0,0,1,1.531,0a.311.311,0,0,1,.283.433Zm-.067.1a.288.288,0,0,1-.2.09A.31.31,0,0,0,1.748.531Z" transform="translate(64.559 38.994)" fill="#09450b" fill-rule="evenodd"/>
    <path id="Path_232" data-name="Path 232" d="M29.164.618c-.106.041-1.184.457-1.357.5a17.229,17.229,0,0,0-2.939.671c-.644.276-1.289.649-1.952.87-2.9.968-5.089,3.063-7.414,4.806a34.086,34.086,0,0,1-3.577,1.88c-1.3.742-2.616,1.508-3.883,2.268-1.384.831-3.121,1.98-3.84,3.417a24.4,24.4,0,0,0-1.6,2.919c-.423,1.269-.832,2.541-1.163,3.866-.2.786-.389,1.623-.585,2.409-.045.18-.176.979-.226,1.139a.339.339,0,0,1-.153.2.29.29,0,0,1-.342-.018.337.337,0,0,1-.133-.3.31.31,0,0,1,.053-.173c.046-.244.163-.864.2-1,.2-.786.389-1.623.585-2.409.335-1.341.749-2.628,1.177-3.912a25.044,25.044,0,0,1,1.634-3c.767-1.534,2.6-2.786,4.076-3.672,1.271-.762,2.593-1.531,3.895-2.275a33.442,33.442,0,0,0,3.512-1.837c2.377-1.783,4.623-3.909,7.591-4.9.646-.215,1.275-.582,1.9-.851A17.9,17.9,0,0,1,27.672.506c.161-.036.9-.364,1.247-.468a.645.645,0,0,1,.387-.017.311.311,0,0,1-.141.6Z" transform="translate(51.797 31.379)" fill="#09450b" fill-rule="evenodd"/>
    <path id="Path_233" data-name="Path 233" d="M7.653,26.583a.305.305,0,0,1-.006.122.438.438,0,0,0-.009.046c-.01.09-.019.162-.019.162A.311.311,0,0,1,7,26.842s.008-.081.02-.164c.007-.064.013-.136.013-.186,0-.226.069-.411.069-.654a7.981,7.981,0,0,1,.118-1.016,2.3,2.3,0,0,0,.029-.8,5.546,5.546,0,0,1-.113-1.315,4.892,4.892,0,0,0-.093-1.163c-.287-1.147-.415-2.411-.785-3.522-.833-2.5-1.225-5.113-2.524-7.45-.509-.915-.985-1.85-1.541-2.739A11.21,11.21,0,0,1,.75,5.21C.459,4.241.217,3.272.02,2.29A3.292,3.292,0,0,1,.129,1.143C.166.967.2.8.223.647A.57.57,0,0,0,.23.416.311.311,0,0,1,.815.206a1.833,1.833,0,0,1-.032.846A3.55,3.55,0,0,0,.63,2.168c.193.963.43,1.912.716,2.862A10.6,10.6,0,0,0,2.722,7.5c.562.9,1.043,1.842,1.557,2.767C5.6,12.64,6,15.288,6.849,17.824c.375,1.126.508,2.405.8,3.568A5.529,5.529,0,0,1,7.759,22.7a4.921,4.921,0,0,0,.094,1.167,2.416,2.416,0,0,1,.011.83c-.047.391-.14.816-.14,1.138,0,.243-.069.427-.069.654C7.657,26.518,7.655,26.55,7.653,26.583Z" transform="translate(51.68 56.184)" fill="#09450b" fill-rule="evenodd"/>
    <path id="Path_234" data-name="Path 234" d="M2.216,6.925A4.477,4.477,0,0,1,1.53,8.748h0l-.016.037a.311.311,0,0,1,.1.1.306.306,0,0,1,.049.2.952.952,0,0,1-.03.126c-.031.225-.168,1.231-.188,1.3-.1.359-.366.858-.517,1.331a1.048,1.048,0,0,0-.063.651.311.311,0,1,1-.583.216,1.125,1.125,0,0,1-.065-.4.3.3,0,0,1-.175-.3,1.767,1.767,0,0,1,.041-.356.316.316,0,0,1-.076-.138.7.7,0,0,1,0-.28A9.644,9.644,0,0,1,.624,9.3a6.509,6.509,0,0,1,.319-.884c.052-.173.115-.35.183-.527a9.07,9.07,0,0,1,.247-1.038A7.515,7.515,0,0,1,2.6,4.9a4.829,4.829,0,0,0,.348-.712c.378-.661.875-1.255,1.28-1.9A9.966,9.966,0,0,1,5.575.474,3.64,3.64,0,0,1,6.089.054.364.364,0,0,1,6.53.1.319.319,0,0,1,6.6.451a1,1,0,0,1-.189.272c-.153.169-.389.385-.435.431a2.064,2.064,0,0,0-.372.636,2.68,2.68,0,0,1-.642.924,4.639,4.639,0,0,0-.625.721C3.641,4.6,2.815,5.694,2.216,6.925Z" transform="translate(59.047 68.319)" fill="#09450b" fill-rule="evenodd"/>
    <path id="Path_235" data-name="Path 235" d="M4.841,32.995a.307.307,0,0,1,.1.147.311.311,0,0,1-.209.387.386.386,0,0,1-.474-.214.8.8,0,0,1-.045-.375,4.583,4.583,0,0,1,.108-.58c.165-.827.186-1.7.271-2.551a15.54,15.54,0,0,0-.6-6.712,67.936,67.936,0,0,1-2.281-6.638C1.463,15.49.963,14.56.74,13.6A39.592,39.592,0,0,1,.079,7.11C-.045,5.126-.143,3.157.765,1.342.873,1.126.928.864,1.016.63A1.486,1.486,0,0,1,1.34.091a.311.311,0,0,1,.44.44,1.063,1.063,0,0,0-.221.431,5.012,5.012,0,0,1-.237.659A10.36,10.36,0,0,0,.7,7.071a38.962,38.962,0,0,0,.647,6.385c.222.961.721,1.886.962,2.851A67.3,67.3,0,0,0,4.57,22.884a16.179,16.179,0,0,1,.637,6.986c-.087.866-.111,1.765-.28,2.611C4.917,32.53,4.866,32.843,4.841,32.995Z" transform="translate(55.195 44.818)" fill="#09450b" fill-rule="evenodd"/>
    <path id="Path_236" data-name="Path 236" d="M2.938,7.121a.736.736,0,0,1,.029.08c.031.1.079.325.108.42.073.244.145.495.2.745a.313.313,0,0,1,.105.033.419.419,0,0,1,.046-.1c.017-.127.032-.253.042-.378C3.412,6.5,3.3,5.064,3.121,3.653c-.083-.663-.231-1.312-.365-1.963A3.507,3.507,0,0,1,2.465.483a.307.307,0,0,1,.29-.329.3.3,0,0,1,.312.193c.012.028.047.236.072.313a5.815,5.815,0,0,1,.182.691l.033.161.025.064a9.285,9.285,0,0,1,.457,1.246A12.468,12.468,0,0,1,4.094,4.46c.017.061.036.122.051.181a7.53,7.53,0,0,1,.249,1.222,10.111,10.111,0,0,1-.145,2.36c-.007.171-.017.342-.03.513a.312.312,0,0,1,.165.134.344.344,0,0,1,.039.259,1.551,1.551,0,0,1-.082.2c-.055.168-.076.352-.138.517a7.874,7.874,0,0,0-.329,1.323c-.009.049-.016.1-.024.146a1.558,1.558,0,0,1,0,.244,4.041,4.041,0,0,1,.074.535.882.882,0,0,1-.144.59c.011.611.1,1.222.1,1.837,0,.1,0,.242.009.38.016.233.025.541.025.541a.311.311,0,0,1-.621.026s-.015-.265-.025-.537c0-.037-.005-.072-.008-.1l0-.034a.309.309,0,0,1-.148-.087.531.531,0,0,1-.13-.332,7.2,7.2,0,0,1,.072-.889c-.172-1-.285-2.005-.38-3.018q-.125-.648-.234-1.3a4.477,4.477,0,0,1-.091-.45.675.675,0,0,1,.031-.278c-.082-.153-.16-.309-.23-.477A19.778,19.778,0,0,1,1.39,5.262c-.134-.285-.3-.624-.425-.952a2.789,2.789,0,0,1-.221-.936.346.346,0,0,1,.091-.252Q.809,3,.785,2.884A.3.3,0,0,1,.81,2.675a.347.347,0,0,1,.078-.107c-.1-.316-.212-.63-.33-.944-.016-.043-.109-.284-.2-.532A.31.31,0,0,1,.125.8C.12.79.058.629.033.554A.522.522,0,0,1,.012.263.344.344,0,0,1,.158.06.367.367,0,0,1,.367,0a.34.34,0,0,1,.3.186c.107.186.44,1.118.478,1.22.517,1.379.871,2.775,1.314,4.216.13.421.311.828.417,1.255C2.88,6.912,2.912,7.014,2.938,7.121ZM4.18,9.33h0l.01,0ZM4.2,9.322l-.005,0,.008,0Z" transform="translate(55.011 73.176)" fill="#09450b" fill-rule="evenodd"/>
    <path id="Path_237" data-name="Path 237" d="M.229.446A.31.31,0,0,1,.234.18.293.293,0,0,1,.557,0a.3.3,0,0,1,.232.15.557.557,0,0,1,.06.219,3.116,3.116,0,0,1-.042.8A2.675,2.675,0,0,0,.675,2.646c.343,1.259.777,2.495,1.135,3.748a11.626,11.626,0,0,0,.6,1.977c.335.67.493,1.437.854,2.087,1.769,3.185,3.713,6.234,4.876,9.723a19.536,19.536,0,0,0,1.153,2.472c.1.2.265.407.387.624a1.411,1.411,0,0,1,.2.574.311.311,0,0,1-.62.048.988.988,0,0,0-.179-.414c-.119-.191-.256-.379-.344-.554a20.178,20.178,0,0,1-1.187-2.553C6.4,16.925,4.469,13.911,2.719,10.76c-.366-.658-.528-1.433-.867-2.111a12.3,12.3,0,0,1-.64-2.084C.853,5.309.419,4.071.075,2.81A3.326,3.326,0,0,1,.218.977,2.786,2.786,0,0,0,.229.446ZM.59.619a.31.31,0,0,0,.2-.162A.271.271,0,0,1,.59.619Z" transform="translate(46.571 51.211)" fill="#09450b" fill-rule="evenodd"/>
    <path id="Path_238" data-name="Path 238" d="M.215.684A.309.309,0,0,1,.028.491.349.349,0,0,1,.169.038.306.306,0,0,1,.518.075.906.906,0,0,1,.664.242c.15.209.417.65.5.761.411.575.722,1.333,1.083,1.951,1.108,1.9,1.9,4.052,3,5.992.62,1.1,1.311,2.191,1.987,3.255a35.869,35.869,0,0,1,1.982,4.27c.877,1.9,1.784,3.775,2.651,5.68.564,1.241,1.17,2.5,1.659,3.768a8.039,8.039,0,0,1,.571,1.361.311.311,0,1,1-.614.1,7.367,7.367,0,0,0-.538-1.235c-.484-1.259-1.086-2.5-1.645-3.734-.866-1.9-1.773-3.777-2.649-5.677a35.264,35.264,0,0,0-1.942-4.2c-.683-1.073-1.379-2.172-2-3.284C3.608,7.314,2.813,5.165,1.707,3.268c-.352-.6-.651-1.343-1.051-1.9C.585,1.267.366.905.215.684Z" transform="translate(42.114 49.451)" fill="#09450b" fill-rule="evenodd"/>
    <path id="Path_239" data-name="Path 239" d="M.649.3C.715.423.854.675.881.72c.226.377.45.76.66,1.147A22.141,22.141,0,0,1,3.284,5.29c.944,2.832,1.666,5.647,2.448,8.517.438,1.6,1.136,3.141,1.484,4.766.336,1.569.826,3.191,1.037,4.773a13.91,13.91,0,0,1,.312,1.8,4.756,4.756,0,0,1-.006.525.492.492,0,0,1-.078.22.3.3,0,0,1-.369.12.311.311,0,0,1-.2-.394.308.308,0,0,1,.025-.056l0-.415a13.3,13.3,0,0,0-.307-1.714c-.209-1.566-.7-3.172-1.028-4.725-.346-1.614-1.041-3.14-1.476-4.733-.78-2.859-1.5-5.663-2.438-8.484A21.516,21.516,0,0,0,1,2.164C.789,1.785.57,1.41.348,1.04A6.632,6.632,0,0,1,.02.425.308.308,0,0,1,.233.014a.31.31,0,0,1,.326.1A.309.309,0,0,1,.649.3Zm7.53,25.1a.29.29,0,0,1,.132.015A.308.308,0,0,0,8.178,25.4ZM.129.558.119.549Z" transform="translate(48.844 63.074)" fill="#09450b" fill-rule="evenodd"/>
    <path id="Path_240" data-name="Path 240" d="M5.609,10.782A12.661,12.661,0,0,0,4.315,8.735c-.525-.84-.947-1.822-1.391-2.71-.4-.805-.973-1.532-1.376-2.34C1.184,2.959.795,2.252.473,1.5.4,1.335.348,1.12.28.914A.973.973,0,0,0,.091.531a.311.311,0,1,1,.44-.44,1.4,1.4,0,0,1,.3.5c.083.224.138.477.217.663.317.74.7,1.436,1.059,2.151.4.808.974,1.535,1.376,2.34.435.871.847,1.835,1.362,2.659a13.274,13.274,0,0,1,1.35,2.16.311.311,0,1,1-.583.216Z" transform="translate(43.263 53.009)" fill="#09450b" fill-rule="evenodd"/>
    <path id="Path_241" data-name="Path 241" d="M2.013.7a.31.31,0,0,1-.12-.245A.459.459,0,0,1,2.045.063.312.312,0,0,1,2.278,0a.339.339,0,0,1,.248.165,1.228,1.228,0,0,1,.09.74c-.146.73-.281,1.447-.466,2.184C1.656,5.071.972,6.993.617,8.952a.311.311,0,1,1-.612-.111c.357-1.972,1.044-3.907,1.542-5.9.182-.727.315-1.435.459-2.155A.429.429,0,0,0,2.013.7Z" transform="translate(46.838 43.068)" fill="#09450b" fill-rule="evenodd"/>
    <path id="Path_242" data-name="Path 242" d="M.082,10.614c.046-.2.141-.612.176-.754A3.227,3.227,0,0,1,.817,8.8a4.894,4.894,0,0,0,.56-.876A14.129,14.129,0,0,0,2.81,2.216c0-.222.052-.769.018-1.22A1.614,1.614,0,0,0,2.772.654.671.671,0,0,0,2.733.565a.311.311,0,0,1,.35-.514A.952.952,0,0,1,3.419.7a9.492,9.492,0,0,1,.012,1.513A14.732,14.732,0,0,1,1.948,8.172a5.551,5.551,0,0,1-.627.994,2.608,2.608,0,0,0-.46.844c-.056.223-.2.91-.257,1.009a.314.314,0,0,1-.2.163.3.3,0,0,1-.29-.061.358.358,0,0,1-.118-.3A.309.309,0,0,1,.082,10.614Z" transform="translate(44.713 42.695)" fill="#09450b" fill-rule="evenodd"/>
    <path id="Path_243" data-name="Path 243" d="M2.279,6.311a.309.309,0,0,1,.063.17,3.109,3.109,0,0,1,0,.335.688.688,0,0,1-.061.251l-.014.024,0,.022-.029.225a2.835,2.835,0,0,1-.009.328.406.406,0,0,1-.1.216.348.348,0,0,1-.137.094c-.037.341-.1.663-.152,1.02C1.63,10.487.994,11.927.7,13.39a5.637,5.637,0,0,0-.006.811,1.553,1.553,0,0,1-.107.649.311.311,0,0,1-.553-.284,1.32,1.32,0,0,0,.037-.517,4.321,4.321,0,0,1,.02-.781c.267-1.336.825-2.651,1.077-4a.306.306,0,0,1-.014-.125s.042-.483.072-.723a8.589,8.589,0,0,0,.033-1.064v-.42a.693.693,0,0,1-.05-.119.377.377,0,0,1,0-.2.336.336,0,0,1,.209-.228,2.219,2.219,0,0,0,.139-.354c0-.01.005-.022.007-.035.01-.131.021-.241.021-.241A.311.311,0,0,1,1.8,5.489c.064-.23.14-.458.217-.688a7.688,7.688,0,0,1,1.96-3.323A5.03,5.03,0,0,1,5.74.016a.311.311,0,1,1,.2.59,2.067,2.067,0,0,0-.777.526c-.261.257-.5.545-.737.786A7.12,7.12,0,0,0,2.612,5,5.458,5.458,0,0,0,2.279,6.311Z" transform="translate(46.655 36.597)" fill="#09450b" fill-rule="evenodd"/>
    <path id="Path_244" data-name="Path 244" d="M1.6,6.586a1.572,1.572,0,0,0,.017-.612c-.045-.412-.154-.852-.194-1.137A11.571,11.571,0,0,0,.876,2.2C.63,1.591.222,1.027.016.409a.311.311,0,0,1,.59-.2c.2.607.606,1.159.847,1.761a12.2,12.2,0,0,1,.588,2.775c.041.29.151.738.2,1.157a2.2,2.2,0,0,1-.043.87.311.311,0,1,1-.592-.19Z" transform="translate(46.527 36.597)" fill="#09450b" fill-rule="evenodd"/>
    <path id="Path_245" data-name="Path 245" d="M.662.47l0,.024c0,.188-.035.373-.035.553a.311.311,0,0,1-.622,0C0,.861.036.671.036.478A1.68,1.68,0,0,1,.084.21.3.3,0,0,1,.22.045.3.3,0,0,1,.483.019.3.3,0,0,1,.691.353.306.306,0,0,1,.662.47ZM.07.357v0Zm0-.017v0Z" transform="translate(48.234 44.113)" fill="#09450b" fill-rule="evenodd"/>
    <path id="Path_246" data-name="Path 246" d="M.237.613A.311.311,0,0,1,.311,0,.518.518,0,0,1,.7.189a4.771,4.771,0,0,1,.3.474c.445.623.753,1.325,1.179,1.965,1.327,1.99,2.09,4.289,3.348,6.3A11.669,11.669,0,0,0,6.755,10.94a4.409,4.409,0,0,1,.436.443.786.786,0,0,1,.183.556.311.311,0,1,1-.618-.072c0-.02-.014-.037-.025-.056a.752.752,0,0,0-.085-.111c-.11-.124-.246-.234-.331-.319A12.339,12.339,0,0,1,4.991,9.261c-1.255-2.009-2.015-4.3-3.338-6.288C1.23,2.339.926,1.643.485,1.025.436.957.382.848.322.742A1.544,1.544,0,0,0,.237.613Z" transform="translate(35.785 38.447)" fill="#09450b" fill-rule="evenodd"/>
    <path id="Path_247" data-name="Path 247" d="M.281.668l-.019,0A.311.311,0,0,1,0,.309.338.338,0,0,1,.243.015.406.406,0,0,1,.637.121,9.226,9.226,0,0,1,1.7,1.719,40.212,40.212,0,0,1,3.452,5.448a13.71,13.71,0,0,0,1.6,2.64C5.932,9.4,6.816,10.7,7.72,11.994a10.735,10.735,0,0,1,1.861,3.019.311.311,0,1,1-.6.151A10.066,10.066,0,0,0,7.21,12.351c-.907-1.3-1.793-2.6-2.672-3.919A14.335,14.335,0,0,1,2.87,5.666,39.57,39.57,0,0,0,1.14,2C1.048,1.812.461.936.281.668ZM.61.442v0l0-.006Zm0-.011v0l0-.011Zm0-.01,0-.014S.616.417.615.421Z" transform="translate(34.962 39.994)" fill="#09450b" fill-rule="evenodd"/>
    <path id="Path_248" data-name="Path 248" d="M.588,30.456l.154-.012a.892.892,0,0,1,.282.012,5.214,5.214,0,0,0,2.069-.11c2.855-.571,4.828-2.156,7.095-3.856,1.981-1.486,3.258-3.511,4.982-5.235C16.3,20.123,17.877,19.3,18.754,17.9a6.945,6.945,0,0,0,.709-1.9,7.612,7.612,0,0,0-.068-3.2,19.843,19.843,0,0,1-.475-3.414,16.7,16.7,0,0,0-1.609-7.023,12.168,12.168,0,0,0-.976-1.42C16.3.889,16.151.654,16.11.592A.311.311,0,0,1,16.243,0a.421.421,0,0,1,.285.125,2.945,2.945,0,0,1,.335.483,12.754,12.754,0,0,1,1.016,1.5,17.3,17.3,0,0,1,1.663,7.276,19.231,19.231,0,0,0,.465,3.3,8.225,8.225,0,0,1,.059,3.457,7.594,7.594,0,0,1-.785,2.081c-.9,1.442-2.508,2.306-3.672,3.47-1.745,1.745-3.043,3.789-5.048,5.293-2.344,1.757-4.394,3.378-7.346,3.969a5.89,5.89,0,0,1-2.342.1.9.9,0,0,0-.232.02A.848.848,0,0,1,.3,31.051a.434.434,0,0,1-.23-.183A.473.473,0,0,1,0,30.578a.311.311,0,0,1,.586-.122Z" transform="translate(48.806 12.481)" fill="#09450b" fill-rule="evenodd"/>
    <path id="Path_249" data-name="Path 249" d="M17.367,13c-.085-.128-.227-.3-.258-.341-.294-.367-.664-.654-.968-1.009A20,20,0,0,0,12.8,8.9C9.649,6.536,6.318,4.561,3.253,2.109A9.744,9.744,0,0,0,1.032.7,1.178,1.178,0,0,0,.654.615a.166.166,0,0,0-.123.03.311.311,0,0,1-.44-.44A1.086,1.086,0,0,1,1.242.113a10.549,10.549,0,0,1,2.4,1.511C6.7,4.071,10.028,6.042,13.172,8.4a20.613,20.613,0,0,1,3.441,2.844c.309.361.684.653.982,1.025a3.939,3.939,0,0,1,.406.6.327.327,0,0,1-.051.314.3.3,0,0,1-.375.1A.311.311,0,0,1,17.367,13Zm.293-.314a.283.283,0,0,1,.121.017A.31.31,0,0,0,17.66,12.686Z" transform="translate(47.484 0.06)" fill="#09450b" fill-rule="evenodd"/>
    <path id="Path_250" data-name="Path 250" d="M.852,16.44a.307.307,0,0,1,.021.111.311.311,0,0,1-.311.311.329.329,0,0,1-.317-.278C.206,16.4.158,15.478.13,15.34a11.422,11.422,0,0,1,.424-4.827,3.574,3.574,0,0,1,.734-1.44C2.422,7.562,3.117,6.024,4.916,5.124c.546-.273,1.128-.459,1.68-.682a3.977,3.977,0,0,0,1.376-.828c.915-.915,1.844-1.887,2.755-2.8a1.692,1.692,0,0,1,.4-.242c.262-.125.72-.334.908-.419a.311.311,0,0,1,.3-.154.314.314,0,0,1,.307.267.368.368,0,0,1-.189.372c-.147.094-.563.268-.908.424a1.929,1.929,0,0,0-.379.191c-.911.911-1.84,1.882-2.756,2.8a4.585,4.585,0,0,1-1.583.965c-.537.217-1.1.4-1.635.661-1.7.852-2.335,2.334-3.409,3.766a2.969,2.969,0,0,0-.622,1.189A10.849,10.849,0,0,0,.74,15.219C.765,15.346.842,16.309.852,16.44Zm-.1-.138a.309.309,0,0,0-.187-.062A.292.292,0,0,1,.749,16.3Z" transform="translate(35.533 0)" fill="#09450b" fill-rule="evenodd"/>
    <path id="Path_251" data-name="Path 251" d="M10.692.443a.311.311,0,0,1,.55-.288.744.744,0,0,1,.066.44c-.025.23-.131.531-.131.682a12.874,12.874,0,0,1-.52,3.473,16.544,16.544,0,0,1-6.7,9.63,19.544,19.544,0,0,1-2.037,1.3,3.67,3.67,0,0,1-1.611.444.311.311,0,1,1,0-.622,3.048,3.048,0,0,0,1.333-.378,18.918,18.918,0,0,0,1.971-1.265,15.928,15.928,0,0,0,6.443-9.276,12.265,12.265,0,0,0,.5-3.31,3.581,3.581,0,0,1,.1-.562A2.533,2.533,0,0,0,10.692.443Z" transform="translate(56.429 18.622)" fill="#09450b" fill-rule="evenodd"/>
    <path id="Path_252" data-name="Path 252" d="M.81.445a.311.311,0,0,1,.118-.4.3.3,0,0,1,.29-.021A.314.314,0,0,1,1.395.22a6.01,6.01,0,0,1,.075.8c0,.5.037,1.012,0,1.508a20.644,20.644,0,0,1-.86,4.262.311.311,0,1,1-.6-.179A20.023,20.023,0,0,0,.849,2.479c.037-.48,0-.978,0-1.46C.848.957.832.6.81.445Zm.328.176h0Zm.1-.035a.3.3,0,0,1-.1.034A.313.313,0,0,0,1.241.587Zm0,0L1.255.578Z" transform="translate(61.685 10.445)" fill="#09450b" fill-rule="evenodd"/>
    <path id="Path_253" data-name="Path 253" d="M1.118,22.016a11.038,11.038,0,0,1,2.454-2.552,20.733,20.733,0,0,0,3.217-2.377,9.194,9.194,0,0,0,.978-1.521.311.311,0,0,1,.518.345,9.8,9.8,0,0,1-1.056,1.616,21.375,21.375,0,0,1-3.311,2.455A12.045,12.045,0,0,0,1.28,22.834a3.919,3.919,0,0,0-.547,1.014c-.048.145-.12.441-.12.441A.311.311,0,0,1,0,24.165a7.672,7.672,0,0,1,.181-.81c.16-.48.208-1.007.332-1.5a11.5,11.5,0,0,1,2.136-4.231c2.237-2.8,4.914-5.806,5.964-9.306a19.507,19.507,0,0,0,.5-3.633,12.3,12.3,0,0,0-.125-3.306A4.611,4.611,0,0,1,8.968.812.814.814,0,0,0,8.92.464.311.311,0,1,1,9.462.158a1.226,1.226,0,0,1,.123.518c.012.21-.006.442.02.6a12.939,12.939,0,0,1,.129,3.477,20.1,20.1,0,0,1-.52,3.743c-1.072,3.575-3.79,6.66-6.074,9.516A10.86,10.86,0,0,0,1.121,22Z" transform="translate(50.494 8.231)" fill="#09450b" fill-rule="evenodd"/>
    <path id="Path_254" data-name="Path 254" d="M3,.52A2.039,2.039,0,0,0,2.64,1.695,11.771,11.771,0,0,1,2.478,3.23C2.047,4.952,2.132,6.746,1.4,8.449c-.12.28-.205.6-.317.9a2.545,2.545,0,0,1-.554.938.311.311,0,0,1-.44-.44A1.927,1.927,0,0,0,.5,9.129c.116-.311.2-.636.329-.925.716-1.671.621-3.434,1.044-5.125.121-.485.1-1.167.185-1.771A2.259,2.259,0,0,1,2.538.1.311.311,0,0,1,3,.52Z" transform="translate(48.205 31.54)" fill="#09450b" fill-rule="evenodd"/>
    <path id="Path_255" data-name="Path 255" d="M2.569,32.108a4.991,4.991,0,0,0,.106-.5c.056-.4.095-.853.134-.992.521-1.824.285-3.865.285-5.765,0-3.39.34-6.8,0-10.185-.239-2.389.006-4.794-.586-7.162-.44-1.76-1-3.5-1.522-5.243A12.021,12.021,0,0,0,.224.935,1.524,1.524,0,0,1,0,.311a.311.311,0,0,1,.622,0A.464.464,0,0,0,.68.465C.731.573.8.7.881.83a8.443,8.443,0,0,1,.7,1.257c.524,1.748,1.087,3.5,1.53,5.27.6,2.4.359,4.832.6,7.251.34,3.4,0,6.837,0,10.247,0,1.956.228,4.057-.309,5.935-.056.2-.1,1.051-.222,1.442a.63.63,0,0,1-.247.369.311.311,0,0,1-.369-.494Z" transform="translate(47.823 0.217)" fill="#09450b" fill-rule="evenodd"/>
    <path id="Path_256" data-name="Path 256" d="M8.167,27.144c0,.006,0,.011,0,.017a.267.267,0,0,1-.007.066.286.286,0,0,1-.111.178.3.3,0,0,1-.245.063.289.289,0,0,1-.253-.246.255.255,0,0,1-.006-.051c0-.011,0-.223,0-.281a6.08,6.08,0,0,1,.045-.759q.138-1.107.3-2.21a15.092,15.092,0,0,0-.581-6.513c-.4-1.195-.519-2.49-1.009-3.667C5.348,11.462,4.142,9.3,3.043,7.105c-.536-1.071-1.285-2.089-1.9-3.158A7.249,7.249,0,0,1,0,.311a.311.311,0,1,1,.622,0,6.638,6.638,0,0,0,1.06,3.326C2.3,4.717,3.058,5.746,3.6,6.827,4.7,9.039,5.917,11.21,6.872,13.5c.5,1.191.622,2.5,1.025,3.709a15.755,15.755,0,0,1,.606,6.8q-.157,1.1-.3,2.2a5.421,5.421,0,0,0-.04.682Zm-.449-.265a.311.311,0,0,0-.173.274C7.549,26.941,7.623,26.875,7.719,26.879Z" transform="translate(42.652 4.964)" fill="#09450b" fill-rule="evenodd"/>
    <path id="Path_257" data-name="Path 257" d="M9.413,25.581c.037-.26.073-.632.085-.722a16.818,16.818,0,0,0,.125-2.081c0-2.237-.782-3.719-1.588-5.735A67.626,67.626,0,0,0,3.815,8.183c-1-1.721-2.332-3.222-3.231-5.02A3.835,3.835,0,0,1,.241,1.688,4.158,4.158,0,0,0,.022.426.311.311,0,0,1,.6.2,4.768,4.768,0,0,1,.861,1.639,3.236,3.236,0,0,0,1.14,2.885C2.033,4.671,3.355,6.16,4.352,7.87a68.241,68.241,0,0,1,4.259,8.943c.838,2.1,1.633,3.64,1.633,5.965a17.475,17.475,0,0,1-.13,2.158c-.014.115-.07.666-.116.915a.678.678,0,0,1-.085.243.294.294,0,0,1-.35.119.3.3,0,0,1-.192-.165.634.634,0,0,1-.048-.231A.31.31,0,0,1,9.413,25.581Z" transform="translate(40.744 5.642)" fill="#09450b" fill-rule="evenodd"/>
    <path id="Path_258" data-name="Path 258" d="M13.208,23.753a1.165,1.165,0,0,0,.061-.606c-.027-.473-.139-1-.168-1.266a15.026,15.026,0,0,0-1.5-4.993c-1.91-4.2-5.619-7.246-8.279-10.97C2.055,4.144.561,2.595.009.386a.311.311,0,1,1,.6-.151c.532,2.13,1.994,3.61,3.215,5.321,2.683,3.756,6.412,6.834,8.339,11.074a15.583,15.583,0,0,1,1.552,5.181,12.246,12.246,0,0,1,.178,1.554,1.441,1.441,0,0,1-.158.712.311.311,0,0,1-.531-.324Z" transform="translate(36.844 9.458)" fill="#09450b" fill-rule="evenodd"/>
    <path id="Path_259" data-name="Path 259" d="M1.98.352c-.073.554-.311,1.132-.386,1.726A10.929,10.929,0,0,1,.578,6.353a.311.311,0,0,1-.533-.32A10.294,10.294,0,0,0,.977,2c.074-.6.313-1.175.386-1.73A.311.311,0,1,1,1.98.352Z" transform="translate(49.477 31.214)" fill="#09450b" fill-rule="evenodd"/>
    <path id="Path_260" data-name="Path 260" d="M2.037,3.849a.309.309,0,0,1,.11.237,16.082,16.082,0,0,1-.86,4.325c-.131.458-.289.906-.425,1.36a5.918,5.918,0,0,1-.274.642A.311.311,0,0,1,0,10.239S.089,9.5.179,9.14A19.538,19.538,0,0,0,.935,6.972c.264-2.115.883-4.552.63-6.624A.311.311,0,0,1,2.183.273,14.031,14.031,0,0,1,2.037,3.849Z" transform="translate(48.247 30.99)" fill="#09450b" fill-rule="evenodd"/>
    <path id="Path_261" data-name="Path 261" d="M.622.319A.779.779,0,0,0,.81.729c.212.3.513.594.671.784.311.373.459.823.763,1.187.832,1,1.9,1.938,2.821,2.862a.311.311,0,0,1-.44.44C3.689,5.065,2.61,4.111,1.767,3.1c-.3-.364-.452-.814-.763-1.187-.166-.2-.48-.508-.7-.824A1.4,1.4,0,0,1,0,.3.311.311,0,1,1,.622.319Z" transform="translate(40.448 27.683)" fill="#09450b" fill-rule="evenodd"/>
    <path id="Path_262" data-name="Path 262" d="M7.988,12.731a.311.311,0,0,1-.287.524.408.408,0,0,1-.3-.3,1.317,1.317,0,0,1-.035-.42,2.807,2.807,0,0,0,.019-.383,6.119,6.119,0,0,0-.754-2.339c-1.714-2.4-3.954-4.587-5.521-7.1C.656,2,.412,1.208.033.45A.311.311,0,0,1,.589.172c.37.741.6,1.516,1.045,2.221,1.561,2.5,3.794,4.674,5.5,7.063a6.769,6.769,0,0,1,.857,2.578,2.3,2.3,0,0,1,0,.447C7.984,12.559,7.986,12.672,7.988,12.731Z" transform="translate(40.235 29.975)" fill="#09450b" fill-rule="evenodd"/>
    <path id="Path_263" data-name="Path 263" d="M7.816,10.6A11.489,11.489,0,0,0,4,4.7C2.451,3.317.884,2.438.025.433A.311.311,0,0,1,.6.189C1.416,2.1,2.936,2.916,4.418,4.233a12.128,12.128,0,0,1,4.008,6.239.311.311,0,1,1-.609.124Z" transform="translate(39.345 31.883)" fill="#09450b" fill-rule="evenodd"/>
    <path id="Path_264" data-name="Path 264" d="M9.4,9.1A5.352,5.352,0,0,0,7.051,6.318c-1.067-.69-2.286-1.227-3.4-2.024C2.2,3.262,1.324,1.764.091.531a.311.311,0,1,1,.44-.44C1.739,1.3,2.593,2.776,4.01,3.788,5.118,4.58,6.33,5.111,7.389,5.8a5.943,5.943,0,0,1,2.6,3.093A.311.311,0,1,1,9.4,9.1Z" transform="translate(37.904 33.918)" fill="#09450b" fill-rule="evenodd"/>
    <path id="Path_265" data-name="Path 265" d="M.126.561A.311.311,0,0,1,.311,0,.375.375,0,0,1,.605.141a.614.614,0,0,1,.106.2c.031.09.047.2.064.257a4.351,4.351,0,0,0,.753,1.091A26.236,26.236,0,0,0,4.922,4.95,6.129,6.129,0,0,0,7.239,6.322a15.3,15.3,0,0,1,2.435.547A2.194,2.194,0,0,1,11,7.941a.311.311,0,0,1-.572.244,1.584,1.584,0,0,0-.972-.734,14.624,14.624,0,0,0-2.337-.519,6.838,6.838,0,0,1-2.6-1.51A26.87,26.87,0,0,1,1.043,2.074,5.042,5.042,0,0,1,.186.791C.172.751.141.625.126.561Z" transform="translate(37.141 35.274)" fill="#09450b" fill-rule="evenodd"/>
    <path id="Path_266" data-name="Path 266" d="M38.42,9.122c-.116-.163-1-1.4-1.052-1.508A9.528,9.528,0,0,0,34.585,5C31.155,2.424,26.735-.109,22.118.814c-.8.159-1.579.286-2.373.484a2.488,2.488,0,0,0-.787.425,3.878,3.878,0,0,1-.944.543,4.884,4.884,0,0,1-1.969.1,5.385,5.385,0,0,0-1.757.008c-1.8.451-3.506.57-5.177,1.572a9.05,9.05,0,0,0-2.951,2.99,15.58,15.58,0,0,1-.653,1.641,7.811,7.811,0,0,1-1.5,1.938,4.589,4.589,0,0,0-1.941,1.78,1.939,1.939,0,0,1-1.105.887,2.409,2.409,0,0,1-.4.065.31.31,0,0,1-.262.051.374.374,0,0,1-.255-.172A.3.3,0,0,1,.051,12.8a.324.324,0,0,1,.194-.143c.074-.021.384-.023.522-.069a1.289,1.289,0,0,0,.746-.575,5.134,5.134,0,0,1,2.152-2.02A7.045,7.045,0,0,0,4.991,8.229a2.761,2.761,0,0,0,.3-.7,5.934,5.934,0,0,1,.317-.87A9.8,9.8,0,0,1,8.792,3.409c1.727-1.036,3.483-1.177,5.346-1.643A6.01,6.01,0,0,1,16.1,1.743a4.267,4.267,0,0,0,1.715-.067,3.249,3.249,0,0,0,.784-.462,3.109,3.109,0,0,1,.993-.518c.8-.2,1.6-.329,2.4-.49C26.79-.755,31.4,1.827,34.958,4.5a10.2,10.2,0,0,1,2.966,2.838c.055.11.934,1.279,1.057,1.512A.347.347,0,0,1,39,9.163a.291.291,0,0,1-.285.182A.311.311,0,0,1,38.42,9.122Zm.28-.4a.311.311,0,0,0-.231.124A.276.276,0,0,1,38.7,8.724Z" transform="translate(0.066 10.563)" fill="#09450b" fill-rule="evenodd"/>
    <path id="Path_267" data-name="Path 267" d="M.622,19.26v.669a.173.173,0,0,1,0,.022c-.015.321-.162.386-.31.338-.147.048-.294-.017-.309-.338a.179.179,0,0,1,0-.022V19.26a3.18,3.18,0,0,1,.374-1.211c.533-1.065,1.163-2.083,1.705-3.167a20.787,20.787,0,0,0,.568-2.3,7.644,7.644,0,0,1,.935-1.723,7.034,7.034,0,0,0,.868-1.589,8,8,0,0,0-.14-5.437A7.3,7.3,0,0,0,3.16,1.406a2.1,2.1,0,0,1-.253-.39C2.82.855,2.687.622,2.652.561A.311.311,0,0,1,2.826,0,.435.435,0,0,1,3.17.214c.082.121.2.356.309.55a1.225,1.225,0,0,0,.121.2A7.955,7.955,0,0,1,4.887,3.6a8.634,8.634,0,0,1,.152,5.865A7.666,7.666,0,0,1,4.1,11.2a7.015,7.015,0,0,0-.864,1.578,21.469,21.469,0,0,1-.6,2.379c-.542,1.083-1.173,2.1-1.705,3.167A2.466,2.466,0,0,0,.622,19.26Z" transform="translate(35.842 18.947)" fill="#09450b" fill-rule="evenodd"/>
    <path id="Path_268" data-name="Path 268" d="M.568.089A.311.311,0,0,1,.627.672.33.33,0,0,1,.371.687.738.738,0,0,1,.247.615.311.311,0,0,1,.311,0,.574.574,0,0,1,.568.089Z" transform="translate(30.581 12.563)" fill="#09450b" fill-rule="evenodd"/>
    <path id="Path_269" data-name="Path 269" d="M5.9,3.872l.111.093.061.052A12.286,12.286,0,0,0,7.106,4.8,6.3,6.3,0,0,1,8.4,6.183c.041.054.09.122.142.194a5.573,5.573,0,0,1,.361.511.311.311,0,0,1,.028.266,17.377,17.377,0,0,1,2.048,4.33c.6,1.793,0,3.747-.536,5.36a1.048,1.048,0,0,1-.3.423,2.393,2.393,0,0,0-.365.333,8.306,8.306,0,0,0-1.035,1.777,19.372,19.372,0,0,1-.7,2.477c-.511,1.022-1.244,2-1.754,3.02-.168.336-.322.689-.472.993l.043.326a.309.309,0,0,1,.072.2.351.351,0,0,1-.244.379.3.3,0,0,1-.3-.082.368.368,0,0,1-.078-.116,1.476,1.476,0,0,1-.075-.281,2.164,2.164,0,0,1-.039-.445.584.584,0,0,1,.052-.228c.155-.31.313-.675.487-1.023.51-1.02,1.243-2,1.754-3.02a18.688,18.688,0,0,0,.665-2.4,8.974,8.974,0,0,1,1.108-1.925,2.177,2.177,0,0,1,.4-.389.588.588,0,0,0,.2-.218c.5-1.5,1.09-3.3.536-4.967A14.972,14.972,0,0,0,6.869,5.608,30.3,30.3,0,0,0,3.12,2.739c-.5-.3-.979-.708-1.489-.963A5.682,5.682,0,0,1,.942,1.3.311.311,0,0,1,.869.9C.678.806.368.663.289.626A.311.311,0,0,1,0,.345.294.294,0,0,1,.14.054.321.321,0,0,1,.392.008,7.059,7.059,0,0,1,1.357.46c.511.341,1.065.6,1.559.926A33.082,33.082,0,0,1,5.9,3.872ZM.622.3A.28.28,0,0,1,.535.531.31.31,0,0,0,.622.3Z" transform="translate(30.486 12.496)" fill="#09450b" fill-rule="evenodd"/>
    <path id="Path_270" data-name="Path 270" d="M9.819,2.92a2.7,2.7,0,0,0-.339-.2c-.346-.157-.782-.3-.97-.366-1.6-.6-3.462-1.539-5.2-1.539C2.6.817,1.856.622,1.117.622,1.039.622.8.632.637.64a.311.311,0,0,1-.391.1A.408.408,0,0,1,.013.482.319.319,0,0,1,.065.2.456.456,0,0,1,.343.037,5.226,5.226,0,0,1,1.117,0C1.856,0,2.6.195,3.309.195c1.81,0,3.754.954,5.419,1.579a10.579,10.579,0,0,1,1.194.472,1.045,1.045,0,0,1,.451.391.311.311,0,0,1-.554.283Z" transform="translate(21.737 10.809)" fill="#09450b" fill-rule="evenodd"/>
    <path id="Path_271" data-name="Path 271" d="M.277.646A.311.311,0,0,1,0,.345.318.318,0,0,1,.105.089.324.324,0,0,1,.449.022.936.936,0,0,1,.723.2a1.576,1.576,0,0,1,.3.361,1.578,1.578,0,0,0,.261.321,3.835,3.835,0,0,1,.4.473A12.332,12.332,0,0,1,2.845,4.407a.311.311,0,1,1-.59.2,11.729,11.729,0,0,0-1.084-2.9,4.314,4.314,0,0,0-.416-.477A1.8,1.8,0,0,1,.469.844,1.151,1.151,0,0,0,.277.646ZM.621.361A.275.275,0,0,1,.6.44.32.32,0,0,0,.621.361Zm0-.009v0Z" transform="translate(38.085 18.502)" fill="#09450b" fill-rule="evenodd"/>
    <path id="Path_272" data-name="Path 272" d="M3.453,24.372A9.592,9.592,0,0,1,.48,20.453a5.377,5.377,0,0,1-.361-3.265.537.537,0,0,0-.008-.215c-.021-.122-.053-.247-.074-.37a1.038,1.038,0,0,1,.058-.647A25.87,25.87,0,0,0,1.677,10.9a34.131,34.131,0,0,0,.529-4.055C2.478,4.68,2.268,2.209.59.531a.311.311,0,1,1,.44-.44C2.848,1.909,3.117,4.576,2.823,6.926a34.749,34.749,0,0,1-.543,4.129A26.535,26.535,0,0,1,.649,16.234a.3.3,0,0,0-.015.165,3.073,3.073,0,0,0,.062.335,1.389,1.389,0,0,1,.025.605,4.753,4.753,0,0,0,.335,2.882,8.932,8.932,0,0,0,2.764,3.649.311.311,0,0,1-.368.5Z" transform="translate(32.469 14.415)" fill="#09450b" fill-rule="evenodd"/>
    <path id="Path_273" data-name="Path 273" d="M5.75,23.735a1.573,1.573,0,0,0-.276-.658c-.263-.43-.627-.87-.833-1.144A10.528,10.528,0,0,1,3.075,17.91a9.349,9.349,0,0,1,.116-3.63c.221-1.152.533-2.294.659-3.431A14.241,14.241,0,0,0,2.787,4.022,7.771,7.771,0,0,0,.138.57.311.311,0,1,1,.483.052,8.394,8.394,0,0,1,3.358,3.775a14.9,14.9,0,0,1,1.111,7.141C4.34,12.07,4.026,13.229,3.8,14.4a8.738,8.738,0,0,0-.117,3.391A9.865,9.865,0,0,0,5.139,21.56c.214.286.592.745.866,1.193a2.2,2.2,0,0,1,.366.958.311.311,0,1,1-.621.025Z" transform="translate(27.219 11.735)" fill="#09450b" fill-rule="evenodd"/>
    <path id="Path_274" data-name="Path 274" d="M18.233,22.536a1.042,1.042,0,0,0-.261-.419c-.255-.3-.589-.61-.752-.805a16.045,16.045,0,0,1-2.093-3.828c-1.913-4.463-3-9.2-6.744-12.607A18.2,18.2,0,0,0,3.4,1.959,15.223,15.223,0,0,0,.25.616.311.311,0,1,1,.372.006,15.821,15.821,0,0,1,3.653,1.391,18.831,18.831,0,0,1,8.8,4.417c3.817,3.47,4.949,8.278,6.9,12.823a15.384,15.384,0,0,0,2,3.675c.162.2.5.5.751.8a1.664,1.664,0,0,1,.4.725.311.311,0,1,1-.615.093Z" transform="translate(14.65 12.807)" fill="#09450b" fill-rule="evenodd"/>
    <path id="Path_275" data-name="Path 275" d="M12.454,13.91a.4.4,0,0,0-.09-.127,2.562,2.562,0,0,0-.257-.246c-.337-.289-.766-.587-.958-.779-1.113-1.113-2.2-2.246-3.313-3.361A93.508,93.508,0,0,1,.065.5.311.311,0,1,1,.556.12a92.944,92.944,0,0,0,7.72,8.837c1.115,1.115,2.2,2.248,3.313,3.361.218.218.754.576,1.092.9a1.321,1.321,0,0,1,.371.523.311.311,0,0,1-.6.171Z" transform="translate(20.74 21.917)" fill="#09450b" fill-rule="evenodd"/>
    <path id="Path_276" data-name="Path 276" d="M3.1,7.169c.205.281.422.549.6.812a2.263,2.263,0,0,1,.115.262,2.1,2.1,0,0,1,.193.331.557.557,0,0,1,.047.2.311.311,0,0,1,.075.572s-.053.028-.134.065a.289.289,0,0,1-.162.069c-.058.023-.121.046-.181.063a.306.306,0,0,1-.029.1.311.311,0,0,1-.392.157s-.082-.032-.185-.08a.311.311,0,0,1-.337-.2.625.625,0,0,1-.122-.133.385.385,0,0,1-.058-.286.375.375,0,0,1,.107-.2.387.387,0,0,1,.047-.04l0-.012,0-.023L2.7,8.812c0-.063,0-.127-.008-.19-.055-.094-.131-.228-.151-.265a.3.3,0,0,1-.037-.1.291.291,0,0,1,.061-.243.333.333,0,0,1,.023-.027A.96.96,0,0,1,2.4,7.521a.3.3,0,0,1,.06-.183L2.4,7.255a25.306,25.306,0,0,1-2.379-3.3A.311.311,0,1,1,.6,3.711,11.259,11.259,0,0,0,2.283,6.065l-.018-.076a3.982,3.982,0,0,0-.85-1.418,4.541,4.541,0,0,1-.953-1.6A10.146,10.146,0,0,1,.209.311a.311.311,0,0,1,.622,0,9.565,9.565,0,0,0,.234,2.507A3.921,3.921,0,0,0,1.9,4.184a4.607,4.607,0,0,1,.966,1.654A13.244,13.244,0,0,1,3.1,7.169Z" transform="translate(32.467 30.978)" fill="#09450b" fill-rule="evenodd"/>
    <path id="Path_277" data-name="Path 277" d="M.794,4.379a5.069,5.069,0,0,1,.056.706.4.4,0,0,0,.037.121c.033.088.073.179.1.258a.61.61,0,0,1,.028.337A.362.362,0,0,1,.9,5.985c.065.159.136.318.205.478a3.882,3.882,0,0,1,.38,1.319.311.311,0,1,1-.621.031,3.26,3.26,0,0,0-.329-1.1A5.69,5.69,0,0,1,.086,5.429a10.464,10.464,0,0,1-.072-2A4.8,4.8,0,0,1,.2,1.685,4.238,4.238,0,0,1,.481.826.456.456,0,0,1,.813.571l.031,0A2.129,2.129,0,0,0,.862.311a.311.311,0,1,1,.622,0,10.426,10.426,0,0,1-.5,2.17A5.673,5.673,0,0,0,.8,3.916C.8,3.96.8,4.144.794,4.379Z" transform="translate(32.545 27.958)" fill="#09450b" fill-rule="evenodd"/>
    <path id="Path_278" data-name="Path 278" d="M.542.1.728.286A1.364,1.364,0,0,1,.973.661a2.719,2.719,0,0,0,.221.438A5.948,5.948,0,0,0,3.277,2.81C3.9,3.119,4.427,3.644,5,3.99,6.776,5.054,8.688,5.88,10.536,6.8A35.78,35.78,0,0,0,20.825,9.65c1.641.273,3.352.035,5.005.242,1.889.236,3.857.208,5.529,1.211.262.157.6.306.892.5a1.879,1.879,0,0,1,.569.548.311.311,0,1,1-.526.331,1.47,1.47,0,0,0-.519-.443c-.251-.148-.52-.271-.736-.4-1.6-.958-3.482-.9-5.286-1.127-1.662-.208-3.381.029-5.03-.245a36.4,36.4,0,0,1-10.465-2.9C8.4,6.429,6.469,5.595,4.683,4.524,4.12,4.185,3.6,3.668,3,3.366A6.578,6.578,0,0,1,.7,1.472a2.536,2.536,0,0,1-.248-.463A.974.974,0,0,0,.288.726C.234.672.114.553.091.529A.28.28,0,0,1,.02.416.292.292,0,0,1,.05.145.293.293,0,0,1,.313,0,.31.31,0,0,1,.542.1Z" transform="translate(0.472 23.427)" fill="#09450b" fill-rule="evenodd"/>
    <path id="Path_279" data-name="Path 279" d="M5.288,2.033a.939.939,0,0,0-.306-.26,3.711,3.711,0,0,0-.726-.339A11.866,11.866,0,0,0,.311.622.311.311,0,0,1,.311,0,12.456,12.456,0,0,1,4.452.844a4.4,4.4,0,0,1,.859.4,1.575,1.575,0,0,1,.509.466.311.311,0,1,1-.533.321Z" transform="translate(26.732 33.024)" fill="#09450b" fill-rule="evenodd"/>
    <path id="Path_280" data-name="Path 280" d="M22.346,2.879a2.324,2.324,0,0,0-.238-.064,6.843,6.843,0,0,0-.946-.1,30.174,30.174,0,0,1-4.039-.3c-1.55-.221-3.4.125-4.9-.25a45.738,45.738,0,0,0-6.289-.626c-1.049-.1-2.329-.088-3.516-.255A6.056,6.056,0,0,1,.151.577.311.311,0,0,1,.471.044a6.281,6.281,0,0,0,2.615.7c1,.1,2.036.1,2.908.185a46.342,46.342,0,0,1,6.377.641c1.482.37,3.31.019,4.84.238a29.543,29.543,0,0,0,3.951.289,6.293,6.293,0,0,1,1.372.188.53.53,0,0,1,.346.3.311.311,0,0,1-.534.3Z" transform="translate(5.053 30.832)" fill="#09450b" fill-rule="evenodd"/>
    <path id="Path_281" data-name="Path 281" d="M12.5,1.6c-2.016-.383-4.214.246-6.28.039A33.527,33.527,0,0,1,.226.61.311.311,0,0,1,.4.012,32.919,32.919,0,0,0,6.285,1.025c2.084.208,4.3-.417,6.334-.031A.311.311,0,0,1,12.5,1.6Z" transform="translate(5.735 31.952)" fill="#09450b" fill-rule="evenodd"/>
    <path id="Path_282" data-name="Path 282" d="M13.922.8A8.626,8.626,0,0,0,9.2,1.219a27.906,27.906,0,0,1-4.86,1.33,12.482,12.482,0,0,1-2.8.146,3.172,3.172,0,0,1-.708-.208,1.514,1.514,0,0,0-.52-.13.311.311,0,1,1,0-.622,2.126,2.126,0,0,1,.739.17,2.561,2.561,0,0,0,.566.173,11.837,11.837,0,0,0,2.655-.147A27.241,27.241,0,0,0,9.018.624,9.238,9.238,0,0,1,14.076.2a.311.311,0,0,1-.154.6Z" transform="translate(5.833 32.946)" fill="#09450b" fill-rule="evenodd"/>
    <path id="Path_283" data-name="Path 283" d="M15.789.634c-.047,0-.15-.015-.226-.015a4.541,4.541,0,0,0-.489.024C14.129.8,13.141.7,12.193.84A18.87,18.87,0,0,0,6.3,3.1a18.973,18.973,0,0,1-2.671.8,7.647,7.647,0,0,1-2.5.4,1.6,1.6,0,0,1-1.03-.381.311.311,0,1,1,.44-.44,1.336,1.336,0,0,0,.962.2,7.743,7.743,0,0,0,1.935-.377,18.349,18.349,0,0,0,2.59-.762A19.463,19.463,0,0,1,12.1.224C13.048.09,14.031.187,14.972.031a4.494,4.494,0,0,1,.944-.008.438.438,0,0,1,.337.236.311.311,0,0,1-.464.375ZM15.725.575A.276.276,0,0,1,15.679.5.31.31,0,0,0,15.725.575Z" transform="translate(6.904 33.144)" fill="#09450b" fill-rule="evenodd"/>
    <path id="Path_284" data-name="Path 284" d="M.517.638A.3.3,0,0,1,.441.684.311.311,0,0,1,.033.52.362.362,0,0,1,.02.25.351.351,0,0,1,.212.041.659.659,0,0,1,.536,0,2.54,2.54,0,0,1,1,.112,17.24,17.24,0,0,0,3.2.781a14.684,14.684,0,0,1,5.526,3.03.311.311,0,1,1-.388.486A14.068,14.068,0,0,0,3.049,1.384,17.9,17.9,0,0,1,.768.689C.754.683.614.656.517.638Zm.1-.344h0Z" transform="translate(8.767 13.594)" fill="#09450b" fill-rule="evenodd"/>
    <path id="Path_285" data-name="Path 285" d="M.672.393.756.531A1.134,1.134,0,0,1,.892.819c.112.448.236.948.383,1.39A17.456,17.456,0,0,0,4.151,7.187a25.777,25.777,0,0,1,2.27,4.091c.543,1.087.588,2.393,1.121,3.459a1.924,1.924,0,0,0,.766.777c.354.219.739.388,1.077.614a6.216,6.216,0,0,0,.6.381.725.725,0,0,0,.3.1.311.311,0,0,1,0,.622,1.351,1.351,0,0,1-.589-.172,6.869,6.869,0,0,1-.655-.416c-.332-.221-.712-.387-1.059-.6a2.53,2.53,0,0,1-.995-1.028c-.533-1.065-.577-2.372-1.121-3.459a25.16,25.16,0,0,0-2.212-4A18.061,18.061,0,0,1,.685,2.406C.533,1.949.4,1.433.288.97a2.051,2.051,0,0,0-.2-.336A.586.586,0,0,1,0,.323.339.339,0,0,1,.1.1.358.358,0,0,1,.386,0a.311.311,0,0,1,.3.324A.306.306,0,0,1,.672.393Zm-.3.229h0Zm.01,0h0ZM.4.621h0Z" transform="translate(0 23.379)" fill="#09450b" fill-rule="evenodd"/>
    <path id="Path_286" data-name="Path 286" d="M26.322.483A8.811,8.811,0,0,1,25.88,1.56a13.711,13.711,0,0,0-.651,1.391,2.214,2.214,0,0,1-.7.887c-.429.286-.969.782-1.511,1.177a3.635,3.635,0,0,1-1.168.619,20.678,20.678,0,0,1-4.9.3c-4.407,0-8.4-1.733-12.679-2.588C3.228,3.14,2.255,2.577,1.237,2.323c-.12-.03-.59-.3-.843-.363a.311.311,0,0,1-.309-.513.438.438,0,0,1,.423-.1c.25.056.754.341.879.372,1.009.252,1.972.813,3.006,1.02,4.235.847,8.191,2.576,12.557,2.576A20.044,20.044,0,0,0,21.7,5.032a3.01,3.01,0,0,0,.953-.518c.549-.4,1.1-.9,1.532-1.192a1.969,1.969,0,0,0,.6-.877,8.607,8.607,0,0,1,.584-1.229,10.443,10.443,0,0,0,.41-1.031A.3.3,0,0,1,26.014,0a.293.293,0,0,1,.285.11.3.3,0,0,1,.072.2A.307.307,0,0,1,26.322.483ZM.528,1.882l.009-.01ZM25.75.332a.307.307,0,0,0,.036.13A.28.28,0,0,1,25.75.332Z" transform="translate(9.362 38.475)" fill="#09450b" fill-rule="evenodd"/>
    <path id="Path_287" data-name="Path 287" d="M.621.285.715.409A.752.752,0,0,1,.876.8.311.311,0,0,1,.258.858.212.212,0,0,0,.191.748C.159.708.128.67.1.63A.567.567,0,0,1,0,.311.311.311,0,0,1,.621.285Z" transform="translate(34.868 37.36)" fill="#09450b" fill-rule="evenodd"/>
    <path id="Path_288" data-name="Path 288" d="M.221.71C.167.655.147.587.091.531a.311.311,0,1,1,.44-.44C.588.148.609.218.664.274A.311.311,0,0,1,.221.71Z" transform="translate(34.527 36.921)" fill="#09450b" fill-rule="evenodd"/>
    <path id="Path_289" data-name="Path 289" d="M4.464.121A.834.834,0,0,1,4.633.17a1.514,1.514,0,0,1,.9,1.269.311.311,0,0,1-.338.31.3.3,0,0,1-.2-.1c-.053-.054-.319-.351-.37-.428l-.1-.145c.013.111.028.224.043.318A2.083,2.083,0,0,1,4.6,2.05,6.784,6.784,0,0,1,3.568,4.557a26.774,26.774,0,0,1-2.02,2.218,3.474,3.474,0,0,1-.857.509,1.048,1.048,0,0,1-.374.1.333.333,0,0,1-.2-.073A.312.312,0,0,1,0,7.1a.375.375,0,0,1,.131-.326A.311.311,0,0,1,.468,6.7a2.576,2.576,0,0,0,.64-.369A26.2,26.2,0,0,0,3.083,4.168,6.121,6.121,0,0,0,4,1.9a.955.955,0,0,0-.02-.268c-.034-.253-.093-.562-.116-.8a1.515,1.515,0,0,1,0-.317A.311.311,0,0,1,4.132,0,.869.869,0,0,1,4.464.121Z" transform="translate(30.684 36.767)" fill="#09450b" fill-rule="evenodd"/>
    <path id="Path_290" data-name="Path 290" d="M9.239.626a3.39,3.39,0,0,0-.816.128,8.576,8.576,0,0,0-2.116,1.22A8.661,8.661,0,0,0,4.523,4.233,4.145,4.145,0,0,1,3.092,5.54a6.034,6.034,0,0,1-2.781.89.311.311,0,1,1,0-.622,5.367,5.367,0,0,0,2.462-.8A3.512,3.512,0,0,0,3.99,3.913,9.286,9.286,0,0,1,5.909,1.5,9.2,9.2,0,0,1,8.178.183,4.426,4.426,0,0,1,9.423,0a.3.3,0,0,1,.216.113.291.291,0,0,1,.05.312.366.366,0,0,1-.324.21A.308.308,0,0,1,9.239.626Z" transform="translate(25.271 37.446)" fill="#09450b" fill-rule="evenodd"/>
    <path id="Path_291" data-name="Path 291" d="M15.313,1.156c-.049-.019-.362-.138-.429-.172A3.5,3.5,0,0,0,12.161.816,9.8,9.8,0,0,0,8.168,2.846c-1.254.966-2.425,2.08-3.627,2.981A8.1,8.1,0,0,1,1.395,7.052a4.947,4.947,0,0,1-1.03.107A.371.371,0,0,1,0,6.8a.311.311,0,0,1,.485-.258c.152-.017.714-.081.788-.1A7.433,7.433,0,0,0,4.168,5.329c1.2-.9,2.369-2.012,3.621-2.976A10.414,10.414,0,0,1,12.039.207a4.01,4.01,0,0,1,3.123.222c.076.038.334.118.457.185A.465.465,0,0,1,15.8.775a.311.311,0,0,1-.484.381ZM.621,6.781s0,.01,0,.015Zm0-.011v0Zm0-.013v0Z" transform="translate(18.158 35.211)" fill="#09450b" fill-rule="evenodd"/>
    <path id="Path_292" data-name="Path 292" d="M23.434.87c-.085-.011-1.079-.135-1.2-.135-1.442,0-2.741-.352-4.189.13-1.613.538-2.811,1.57-4.405,2.279A29.521,29.521,0,0,1,4.921,4.972a13.446,13.446,0,0,1-3.485,0A9.5,9.5,0,0,1,.321,4.78a.515.515,0,0,1-.258-.166A.325.325,0,0,1,0,4.419a.311.311,0,0,1,.518-.231c.039.011.112.031.172.043.3.061.729.109.834.125a12.873,12.873,0,0,0,3.335,0,28.872,28.872,0,0,0,8.527-1.777C15,1.859,16.216.82,17.848.276c1.516-.505,2.875-.162,4.385-.162.139,0,1.129.11,1.32.146a.345.345,0,0,1,.216.118.292.292,0,0,1,.045.314A.311.311,0,0,1,23.434.87ZM.564,4.239A.256.256,0,0,1,.621,4.4.31.31,0,0,0,.564,4.239ZM23.271.75A.288.288,0,0,1,23.24.455.31.31,0,0,0,23.271.75Z" transform="translate(8.902 34.859)" fill="#09450b" fill-rule="evenodd"/>
  </g>
</svg>
